<svg width="512" height="512" xmlns="http://www.w3.org/2000/svg" preserveAspectRatio="xMidYMid meet" version="1.0">
 <metadata>Created by potrace 1.16, written by Peter Selinger 2001-2019</metadata>

 <g>
  <title>Layer 1</title>
  <g id="svg_1" fill="#000000" transform="translate(0 512) scale(0.1 -0.1)">
   <path fill="#ffffff" id="svg_2" d="m2245,5095c-592,-78 -1117,-344 -1532,-779c-360,-378 -596,-853 -679,-1371c-25,-155 -30,-537 -10,-705c97,-800 562,-1501 1266,-1913c262,-153 567,-260 895,-314c158,-26 612,-26 770,0c222,37 417,92 602,168c130,54 293,139 293,154c0,9 -303,541 -315,554c-2,2 -44,-17 -92,-42c-423,-216 -919,-267 -1379,-142c-473,130 -885,446 -1145,880c-115,193 -209,459 -243,692c-21,146 -21,400 0,546c122,835 787,1500 1624,1621c149,22 403,22 541,1c585,-90 1075,-421 1380,-930c115,-193 209,-460 242,-690c21,-147 32,-488 19,-590c-18,-137 -71,-224 -171,-283c-41,-24 -56,-27 -141,-27c-80,0 -102,4 -138,23c-54,29 -115,90 -141,140c-37,73 -41,147 -41,795l0,627l-214,0l-214,0l-85,64c-230,173 -478,256 -766,256c-272,0 -497,-67 -725,-217c-91,-60 -279,-248 -339,-339c-149,-227 -217,-453 -217,-724c0,-272 68,-497 217,-723c61,-93 248,-280 338,-339c154,-101 332,-173 499,-203c189,-33 448,-14 626,45c104,34 259,115 345,179c44,33 90,68 103,77c22,16 24,16 80,-41c131,-132 297,-221 485,-261c91,-19 288,-18 385,2c288,59 523,245 657,519c93,190 98,218 103,598c4,361 -6,488 -54,706c-233,1050 -1117,1854 -2184,1986c-152,18 -501,18 -645,0zm479,-1931c191,-46 363,-200 438,-389c27,-69 32,-96 36,-195c3,-87 0,-131 -13,-180c-114,-439 -633,-627 -990,-358c-119,90 -204,215 -240,353c-19,76 -19,234 0,310c88,336 431,541 769,459z"/>
  </g>
 </g>
</svg>