<svg id="svg" version="1.1" xmlns="http://www.w3.org/2000/svg" xmlns:xlink="http://www.w3.org/1999/xlink" width="400" height="400" viewBox="0, 0, 400,400"><g id="svgg"><path id="path0" d="M179.948 96.387 C 174.952 97.898,173.649 102.070,174.785 112.923 C 174.996 114.946,175.360 118.670,175.594 121.200 C 175.827 123.730,176.188 127.600,176.397 129.800 C 176.605 132.000,176.970 136.050,177.207 138.800 C 177.444 141.550,177.802 145.510,178.003 147.600 C 178.957 157.535,179.274 160.995,180.201 171.600 C 183.072 204.422,182.996 203.944,185.748 206.265 C 189.758 209.647,195.233 208.918,198.264 204.600 C 199.133 203.362,200.225 199.087,199.833 198.454 C 199.712 198.258,199.426 195.870,199.198 193.148 C 198.971 190.427,198.605 186.220,198.385 183.800 C 197.562 174.745,197.172 170.483,196.792 166.400 C 196.576 164.090,196.224 160.220,196.008 157.800 C 195.793 155.380,195.440 151.510,195.225 149.200 C 195.010 146.890,194.654 143.020,194.434 140.600 C 194.215 138.180,193.934 135.120,193.811 133.800 C 193.688 132.480,193.403 129.330,193.179 126.800 C 192.954 124.270,192.600 120.400,192.391 118.200 C 192.183 116.000,191.825 112.040,191.596 109.400 C 190.631 98.278,187.023 94.247,179.948 96.387 M232.274 96.383 C 230.617 96.915,228.605 98.576,227.538 100.291 L 226.600 101.800 226.600 148.000 L 226.600 194.200 227.694 195.810 C 231.121 200.856,238.479 200.856,241.906 195.810 L 243.000 194.200 243.000 147.784 L 243.000 101.368 241.685 99.707 C 239.308 96.707,235.480 95.355,232.274 96.383 M283.256 96.904 C 279.245 98.957,278.772 100.373,277.211 115.000 C 276.976 117.200,276.611 120.440,276.399 122.200 C 276.188 123.960,275.921 126.300,275.806 127.400 C 275.691 128.500,275.412 131.020,275.187 133.000 C 274.961 134.980,274.591 138.310,274.366 140.400 C 274.140 142.490,273.796 145.640,273.600 147.400 C 272.646 155.982,272.328 158.852,272.003 161.800 C 271.810 163.560,271.455 166.710,271.214 168.800 C 270.018 179.203,269.868 180.725,269.884 182.312 C 269.953 189.312,277.421 193.405,282.972 189.485 C 286.407 187.059,286.382 187.160,288.598 166.600 C 289.829 155.181,290.332 150.642,290.795 146.800 C 290.993 145.150,291.353 141.820,291.594 139.400 C 291.834 136.980,292.196 133.740,292.396 132.200 C 292.597 130.660,292.956 127.510,293.195 125.200 C 293.811 119.243,294.354 114.627,294.808 111.493 C 296.528 99.611,291.175 92.851,283.256 96.904 M336.400 96.276 C 333.085 97.452,331.412 100.088,329.846 106.600 C 329.264 109.020,328.422 112.350,327.975 114.000 C 327.528 115.650,326.982 117.810,326.761 118.800 C 326.316 120.803,325.867 122.607,325.221 125.000 C 324.983 125.880,324.602 127.410,324.375 128.400 C 324.147 129.390,323.798 130.830,323.599 131.600 C 323.177 133.231,322.599 135.538,322.045 137.800 C 321.829 138.680,321.459 140.120,321.221 141.000 C 320.983 141.880,320.623 143.320,320.420 144.200 C 320.217 145.080,319.857 146.520,319.620 147.400 C 319.383 148.280,319.027 149.720,318.831 150.600 C 318.634 151.480,317.351 156.610,315.980 162.000 C 312.610 175.244,312.766 177.887,317.096 180.866 C 322.301 184.447,328.839 181.233,330.451 174.300 C 330.840 172.628,331.454 170.118,331.992 168.000 C 332.188 167.230,332.705 165.160,333.140 163.400 C 335.388 154.312,339.791 136.728,341.053 131.800 C 341.841 128.720,342.647 125.525,342.843 124.700 C 343.039 123.875,343.380 122.480,343.600 121.600 C 343.820 120.720,344.180 119.280,344.400 118.400 C 344.620 117.520,344.972 116.125,345.182 115.300 C 345.392 114.475,345.752 113.035,345.982 112.100 C 346.212 111.165,346.599 109.635,346.843 108.700 C 347.524 106.087,347.739 102.379,347.238 101.878 C 346.997 101.637,346.800 101.139,346.800 100.770 C 346.800 97.901,340.045 94.983,336.400 96.276 M127.400 96.881 C 124.183 98.000,121.750 102.050,122.163 105.595 C 122.477 108.281,123.317 113.689,123.997 117.400 C 124.339 119.267,124.582 120.693,125.600 126.800 C 125.820 128.120,126.173 130.235,126.384 131.500 C 126.596 132.765,126.969 135.060,127.214 136.600 C 127.458 138.140,127.817 140.300,128.012 141.400 C 128.972 146.835,129.362 149.180,131.401 161.800 C 132.611 169.280,133.772 176.300,133.982 177.400 C 134.418 179.686,134.973 182.955,135.612 187.000 C 135.855 188.540,136.217 190.700,136.415 191.800 C 136.613 192.900,136.973 195.060,137.215 196.600 C 137.457 198.140,137.817 200.300,138.015 201.400 C 138.213 202.500,138.576 204.660,138.821 206.200 C 139.790 212.296,140.875 214.430,143.844 216.085 C 146.954 217.819,150.660 217.329,153.333 214.832 C 156.611 211.770,156.722 209.976,154.462 196.600 C 153.570 191.320,152.558 185.290,152.213 183.200 C 151.868 181.110,151.415 178.410,151.208 177.200 C 151.000 175.990,150.631 173.740,150.388 172.200 C 150.145 170.660,149.786 168.500,149.591 167.400 C 149.258 165.518,148.959 163.752,148.000 158.000 C 147.780 156.680,147.427 154.565,147.215 153.300 C 147.003 152.035,146.631 149.740,146.388 148.200 C 146.145 146.660,145.786 144.500,145.591 143.400 C 145.396 142.300,145.040 140.230,144.800 138.800 C 144.560 137.370,144.202 135.300,144.004 134.200 C 143.806 133.100,143.439 130.850,143.188 129.200 C 142.937 127.550,142.583 125.390,142.400 124.400 C 142.217 123.410,141.857 121.250,141.600 119.600 C 141.343 117.950,140.973 115.790,140.779 114.800 C 140.585 113.810,140.060 110.725,139.612 107.945 C 138.007 97.988,134.181 94.521,127.400 96.881 " stroke="none" fill="#fcfbf9" fill-rule="evenodd"></path><path id="path1" d="M4.290 8.984 C 3.679 9.302,2.902 9.841,2.561 10.182 C 2.221 10.522,1.776 10.800,1.571 10.800 C 1.367 10.800,1.200 10.993,1.200 11.229 C 1.200 11.464,0.916 11.942,0.568 12.289 C -0.442 13.299,-0.102 21.844,1.000 23.145 C 2.509 24.927,2.859 25.200,3.629 25.200 C 4.053 25.200,4.400 25.380,4.400 25.600 C 4.400 25.820,4.940 26.000,5.600 26.000 C 6.260 26.000,6.800 26.180,6.800 26.400 C 6.800 26.662,14.676 26.800,29.629 26.800 C 55.203 26.800,53.600 26.601,53.600 29.771 C 53.600 30.777,53.780 31.600,54.000 31.600 C 54.220 31.600,54.400 32.399,54.400 33.376 C 54.400 34.353,54.580 35.264,54.800 35.400 C 55.020 35.536,55.200 36.447,55.200 37.424 C 55.200 38.401,55.380 39.200,55.600 39.200 C 55.820 39.200,56.000 40.100,56.000 41.200 C 56.000 42.300,56.180 43.200,56.400 43.200 C 56.620 43.200,56.800 44.100,56.800 45.200 C 56.800 46.300,56.980 47.200,57.200 47.200 C 57.420 47.200,57.600 48.100,57.600 49.200 C 57.600 50.300,57.748 51.200,57.930 51.200 C 58.111 51.200,58.460 52.775,58.705 54.700 C 59.119 57.953,59.358 59.322,60.433 64.600 C 60.657 65.700,60.940 67.320,61.061 68.200 C 61.183 69.080,61.444 69.971,61.641 70.180 C 61.838 70.389,62.000 71.323,62.000 72.256 C 62.000 73.189,62.180 74.064,62.400 74.200 C 62.620 74.336,62.800 75.236,62.800 76.200 C 62.800 77.164,62.980 78.064,63.200 78.200 C 63.420 78.336,63.600 79.236,63.600 80.200 C 63.600 81.164,63.780 82.064,64.000 82.200 C 64.220 82.336,64.400 83.236,64.400 84.200 C 64.400 85.164,64.580 86.064,64.800 86.200 C 65.020 86.336,65.200 87.247,65.200 88.224 C 65.200 89.201,65.380 90.000,65.600 90.000 C 65.820 90.000,66.000 90.900,66.000 92.000 C 66.000 93.100,66.180 94.000,66.400 94.000 C 66.620 94.000,66.800 94.799,66.800 95.776 C 66.800 96.753,66.980 97.664,67.200 97.800 C 67.420 97.936,67.600 98.836,67.600 99.800 C 67.600 100.764,67.780 101.664,68.000 101.800 C 68.220 101.936,68.400 102.847,68.400 103.824 C 68.400 104.801,68.580 105.600,68.800 105.600 C 69.020 105.600,69.200 106.500,69.200 107.600 C 69.200 108.700,69.380 109.600,69.600 109.600 C 69.820 109.600,70.000 110.500,70.000 111.600 C 70.000 112.700,70.180 113.600,70.400 113.600 C 70.620 113.600,70.800 114.500,70.800 115.600 C 70.800 116.700,70.980 117.600,71.200 117.600 C 71.420 117.600,71.600 118.399,71.600 119.376 C 71.600 120.353,71.780 121.264,72.000 121.400 C 72.220 121.536,72.400 122.447,72.400 123.424 C 72.400 124.401,72.580 125.200,72.800 125.200 C 73.020 125.200,73.200 126.100,73.200 127.200 C 73.200 128.300,73.380 129.200,73.600 129.200 C 73.820 129.200,74.000 130.100,74.000 131.200 C 74.000 132.300,74.142 133.200,74.317 133.200 C 74.491 133.200,74.847 134.775,75.107 136.700 C 75.368 138.625,75.760 141.100,75.978 142.200 C 76.196 143.300,76.554 145.100,76.774 146.200 C 77.787 151.262,78.056 152.709,78.261 154.200 C 78.383 155.080,78.644 155.971,78.841 156.180 C 79.038 156.389,79.200 157.323,79.200 158.256 C 79.200 159.189,79.380 160.064,79.600 160.200 C 79.820 160.336,80.000 161.236,80.000 162.200 C 80.000 163.164,80.180 164.064,80.400 164.200 C 80.620 164.336,80.800 165.236,80.800 166.200 C 80.800 167.164,80.980 168.064,81.200 168.200 C 81.420 168.336,81.600 169.247,81.600 170.224 C 81.600 171.201,81.780 172.000,82.000 172.000 C 82.220 172.000,82.400 172.900,82.400 174.000 C 82.400 175.100,82.580 176.000,82.800 176.000 C 83.020 176.000,83.200 176.900,83.200 178.000 C 83.200 179.100,83.380 180.000,83.600 180.000 C 83.820 180.000,84.000 180.799,84.000 181.776 C 84.000 182.753,84.180 183.664,84.400 183.800 C 84.620 183.936,84.800 184.836,84.800 185.800 C 84.800 186.764,84.980 187.664,85.200 187.800 C 85.420 187.936,85.600 188.847,85.600 189.824 C 85.600 190.801,85.780 191.600,86.000 191.600 C 86.220 191.600,86.400 192.500,86.400 193.600 C 86.400 194.700,86.580 195.600,86.800 195.600 C 87.020 195.600,87.200 196.500,87.200 197.600 C 87.200 198.700,87.380 199.600,87.600 199.600 C 87.820 199.600,88.000 200.399,88.000 201.376 C 88.000 202.353,88.180 203.264,88.400 203.400 C 88.620 203.536,88.800 204.447,88.800 205.424 C 88.800 206.401,88.980 207.200,89.200 207.200 C 89.420 207.200,89.600 208.100,89.600 209.200 C 89.600 210.300,89.780 211.200,90.000 211.200 C 90.220 211.200,90.400 212.100,90.400 213.200 C 90.400 214.300,90.563 215.200,90.763 215.200 C 90.963 215.200,91.213 216.145,91.319 217.300 C 91.529 219.587,92.522 225.184,94.033 232.600 C 94.257 233.700,94.540 235.320,94.661 236.200 C 94.783 237.080,95.044 237.971,95.241 238.180 C 95.438 238.389,95.600 239.244,95.600 240.080 C 95.600 240.916,95.780 241.600,96.000 241.600 C 96.220 241.600,96.403 242.005,96.406 242.500 C 96.413 243.476,97.282 246.215,97.726 246.659 C 97.877 246.810,98.000 247.353,98.000 247.867 C 98.000 248.380,98.180 248.800,98.400 248.800 C 98.620 248.800,98.800 249.239,98.800 249.776 C 98.800 250.313,98.980 250.864,99.200 251.000 C 99.420 251.136,99.600 251.597,99.600 252.024 C 99.600 252.451,99.780 252.800,100.000 252.800 C 100.220 252.800,100.400 253.160,100.400 253.600 C 100.400 254.040,100.546 254.400,100.725 254.400 C 100.904 254.400,101.298 255.030,101.600 255.800 C 101.902 256.570,102.296 257.200,102.475 257.200 C 102.654 257.200,102.800 257.470,102.800 257.800 C 102.800 258.130,102.980 258.400,103.200 258.400 C 103.420 258.400,103.600 258.630,103.600 258.912 C 103.600 259.193,103.960 259.683,104.400 260.000 C 104.840 260.317,105.200 260.857,105.200 261.200 C 105.200 261.543,105.560 262.083,106.000 262.400 C 106.440 262.717,106.802 263.162,106.805 263.388 C 106.818 264.485,115.636 273.586,117.730 274.664 C 118.428 275.024,119.291 275.652,119.647 276.059 C 120.003 276.467,120.548 276.800,120.859 276.800 C 121.169 276.800,121.683 277.160,122.000 277.600 C 122.317 278.040,122.897 278.400,123.288 278.400 C 123.680 278.400,124.000 278.580,124.000 278.800 C 124.000 279.020,124.270 279.200,124.600 279.200 C 124.930 279.200,125.200 279.380,125.200 279.600 C 125.200 279.820,125.470 280.000,125.800 280.000 C 126.130 280.000,126.400 280.180,126.400 280.400 C 126.400 280.620,126.760 280.800,127.200 280.800 C 127.640 280.800,128.001 280.935,128.003 281.100 C 128.007 281.506,129.986 282.400,130.880 282.400 C 131.276 282.400,131.600 282.580,131.600 282.800 C 131.600 283.020,131.960 283.200,132.400 283.200 C 132.840 283.200,133.200 283.380,133.200 283.600 C 133.200 283.820,133.740 284.000,134.400 284.000 C 135.060 284.000,135.600 284.180,135.600 284.400 C 135.600 284.620,136.140 284.800,136.800 284.800 C 137.460 284.800,138.000 284.980,138.000 285.200 C 138.000 285.420,138.720 285.600,139.600 285.600 C 140.480 285.600,141.200 285.780,141.200 286.000 C 141.200 286.220,141.920 286.400,142.800 286.400 C 143.680 286.400,144.400 286.580,144.400 286.800 C 144.400 287.031,145.659 287.200,147.376 287.200 C 149.013 287.200,150.464 287.380,150.600 287.600 C 150.943 288.155,358.000 288.155,358.000 287.600 C 358.000 287.380,358.654 287.200,359.453 287.200 C 360.354 287.200,361.152 286.924,361.553 286.472 C 361.909 286.072,362.515 285.628,362.900 285.485 C 363.285 285.342,363.600 284.989,363.600 284.701 C 363.600 284.413,363.960 283.917,364.400 283.600 C 364.870 283.261,365.200 282.565,365.200 281.912 C 365.200 281.300,365.380 280.800,365.600 280.800 C 366.122 280.800,366.122 276.523,365.600 276.200 C 365.380 276.064,365.200 275.513,365.200 274.976 C 365.200 274.439,365.020 274.000,364.800 274.000 C 364.580 274.000,364.400 273.724,364.400 273.387 C 364.400 272.591,361.809 270.000,361.013 270.000 C 360.676 270.000,360.400 269.820,360.400 269.600 C 360.400 269.334,326.075 269.200,258.224 269.200 C 190.537 269.200,155.964 269.065,155.800 268.800 C 155.663 268.579,153.863 268.400,151.776 268.400 C 149.525 268.400,148.000 268.238,148.000 268.000 C 148.000 267.780,147.471 267.600,146.824 267.600 C 146.177 267.600,145.536 267.420,145.400 267.200 C 145.264 266.980,144.533 266.800,143.776 266.800 C 143.019 266.800,142.400 266.620,142.400 266.400 C 142.400 266.180,141.950 266.000,141.400 266.000 C 140.850 266.000,140.400 265.820,140.400 265.600 C 140.400 265.380,140.040 265.200,139.600 265.200 C 139.160 265.200,138.800 265.020,138.800 264.800 C 138.800 264.580,138.440 264.400,138.000 264.400 C 137.560 264.400,137.200 264.220,137.200 264.000 C 137.200 263.780,136.928 263.600,136.595 263.600 C 135.886 263.600,134.570 262.889,133.445 261.900 C 133.007 261.515,132.413 261.200,132.125 261.200 C 131.836 261.200,131.600 261.050,131.600 260.868 C 131.600 260.685,131.105 260.280,130.500 259.968 C 129.050 259.220,128.644 258.896,126.775 257.000 C 124.372 254.563,121.540 251.753,120.154 250.431 C 117.500 247.899,113.779 238.461,112.415 230.800 C 111.950 228.187,108.108 208.826,107.216 204.600 C 106.799 202.620,106.154 199.470,105.784 197.600 C 105.414 195.730,104.941 193.390,104.734 192.400 C 104.526 191.410,104.169 189.610,103.941 188.400 C 103.330 185.160,102.977 183.364,102.253 179.800 C 101.895 178.040,101.407 175.610,101.169 174.400 C 100.930 173.190,100.584 171.480,100.400 170.600 C 100.216 169.720,99.856 167.920,99.600 166.600 C 99.344 165.280,98.976 163.480,98.782 162.600 C 98.587 161.720,98.227 159.920,97.982 158.600 C 97.737 157.280,97.373 155.480,97.172 154.600 C 96.972 153.720,96.098 149.400,95.229 145.000 C 94.360 140.600,92.534 131.420,91.172 124.600 C 89.809 117.780,88.554 111.480,88.384 110.600 C 88.213 109.720,87.861 107.920,87.600 106.600 C 87.339 105.280,86.986 103.480,86.815 102.600 C 86.643 101.720,86.211 99.560,85.853 97.800 C 85.495 96.040,85.007 93.610,84.769 92.400 C 84.530 91.190,84.179 89.480,83.988 88.600 C 83.627 86.934,83.073 84.154,82.356 80.400 C 82.124 79.190,81.784 77.480,81.600 76.600 C 81.416 75.720,81.058 74.010,80.805 72.800 C 78.887 63.618,78.553 61.370,78.965 60.432 C 79.284 59.706,79.267 59.422,78.895 59.298 C 78.591 59.197,78.400 58.374,78.400 57.167 C 78.400 56.085,78.220 55.200,78.000 55.200 C 77.780 55.200,77.600 54.300,77.600 53.200 C 77.600 52.100,77.420 51.200,77.200 51.200 C 76.980 51.200,76.800 50.300,76.800 49.200 C 76.800 48.100,76.620 47.200,76.400 47.200 C 76.180 47.200,76.000 46.300,76.000 45.200 C 76.000 44.100,75.839 43.200,75.642 43.200 C 75.446 43.200,75.157 41.579,75.000 39.597 C 74.843 37.616,74.554 35.895,74.357 35.774 C 74.161 35.652,74.000 34.764,74.000 33.800 C 74.000 32.836,73.820 31.936,73.600 31.800 C 73.380 31.664,73.200 30.764,73.200 29.800 C 73.200 28.836,73.020 27.936,72.800 27.800 C 72.580 27.664,72.400 26.753,72.400 25.776 C 72.400 24.799,72.220 24.000,72.000 24.000 C 71.780 24.000,71.600 23.100,71.600 22.000 C 71.600 20.900,71.420 20.000,71.200 20.000 C 70.980 20.000,70.800 19.100,70.800 18.000 C 70.800 16.900,70.620 16.000,70.400 16.000 C 70.180 16.000,70.000 15.460,70.000 14.800 C 70.000 14.140,69.820 13.600,69.600 13.600 C 69.380 13.600,69.200 13.280,69.200 12.888 C 69.200 12.497,68.840 11.917,68.400 11.600 C 67.960 11.283,67.600 10.825,67.600 10.583 C 67.600 10.340,66.815 9.750,65.856 9.271 C 63.596 8.142,6.415 7.875,4.290 8.984 M142.000 304.000 C 142.000 304.220,141.111 304.400,140.024 304.400 C 138.937 304.400,137.936 304.580,137.800 304.800 C 137.664 305.020,136.933 305.200,136.176 305.200 C 135.419 305.200,134.800 305.380,134.800 305.600 C 134.800 305.820,134.260 306.000,133.600 306.000 C 132.940 306.000,132.400 306.180,132.400 306.400 C 132.400 306.620,131.860 306.800,131.200 306.800 C 130.540 306.800,130.000 306.980,130.000 307.200 C 130.000 307.420,129.640 307.600,129.200 307.600 C 128.760 307.600,128.400 307.780,128.400 308.000 C 128.400 308.220,128.126 308.400,127.792 308.400 C 127.458 308.400,126.471 308.850,125.600 309.400 C 124.729 309.950,123.872 310.400,123.696 310.400 C 123.520 310.400,123.117 310.760,122.800 311.200 C 122.483 311.640,121.989 312.000,121.702 312.000 C 121.228 312.000,119.322 313.635,116.478 316.478 C 113.635 319.322,112.000 321.228,112.000 321.702 C 112.000 321.989,111.640 322.483,111.200 322.800 C 110.760 323.117,110.400 323.520,110.400 323.696 C 110.400 323.872,109.950 324.729,109.400 325.600 C 108.850 326.471,108.400 327.458,108.400 327.792 C 108.400 328.126,108.220 328.400,108.000 328.400 C 107.780 328.400,107.600 328.760,107.600 329.200 C 107.600 329.640,107.420 330.000,107.200 330.000 C 106.980 330.000,106.800 330.540,106.800 331.200 C 106.800 331.860,106.620 332.400,106.400 332.400 C 106.180 332.400,106.000 332.940,106.000 333.600 C 106.000 334.260,105.820 334.800,105.600 334.800 C 105.380 334.800,105.200 335.419,105.200 336.176 C 105.200 336.933,105.020 337.664,104.800 337.800 C 104.580 337.936,104.400 338.937,104.400 340.024 C 104.400 341.111,104.220 342.000,104.000 342.000 C 103.752 342.000,103.600 344.200,103.600 347.800 C 103.600 351.400,103.752 353.600,104.000 353.600 C 104.220 353.600,104.400 354.590,104.400 355.800 C 104.400 357.010,104.580 358.000,104.800 358.000 C 105.020 358.000,105.200 358.720,105.200 359.600 C 105.200 360.480,105.380 361.200,105.600 361.200 C 105.820 361.200,106.000 361.740,106.000 362.400 C 106.000 363.060,106.180 363.600,106.400 363.600 C 106.620 363.600,106.800 363.960,106.800 364.400 C 106.800 364.840,106.980 365.200,107.200 365.200 C 107.420 365.200,107.600 365.560,107.600 366.000 C 107.600 366.440,107.780 366.800,108.000 366.800 C 108.220 366.800,108.401 367.115,108.402 367.500 C 108.408 370.054,118.045 382.400,120.033 382.400 C 120.278 382.400,120.983 382.940,121.600 383.600 C 122.217 384.260,122.926 384.800,123.177 384.800 C 123.428 384.800,123.990 385.132,124.425 385.538 C 125.513 386.551,129.946 388.800,130.856 388.800 C 131.265 388.800,131.600 388.936,131.600 389.103 C 131.600 389.455,134.450 390.400,135.514 390.400 C 135.913 390.400,136.465 390.625,136.740 390.900 C 137.113 391.274,139.789 391.400,147.320 391.400 C 157.139 391.400,159.352 391.178,161.695 389.961 C 162.077 389.762,162.741 389.600,163.171 389.600 C 163.601 389.600,164.064 389.420,164.200 389.200 C 164.336 388.980,164.797 388.800,165.224 388.800 C 165.651 388.800,166.000 388.620,166.000 388.400 C 166.000 388.180,166.360 388.000,166.800 388.000 C 167.240 388.000,167.600 387.820,167.600 387.600 C 167.600 387.380,167.960 387.200,168.400 387.200 C 168.840 387.200,169.200 387.020,169.200 386.800 C 169.200 386.580,169.560 386.400,170.000 386.400 C 170.440 386.400,170.800 386.220,170.800 386.000 C 170.800 385.780,171.070 385.600,171.400 385.600 C 171.730 385.600,172.000 385.420,172.000 385.200 C 172.000 384.980,172.178 384.800,172.395 384.800 C 173.465 384.800,184.800 373.465,184.800 372.395 C 184.800 372.178,184.980 372.000,185.200 372.000 C 185.420 372.000,185.600 371.730,185.600 371.400 C 185.600 371.070,185.780 370.800,186.000 370.800 C 186.220 370.800,186.400 370.440,186.400 370.000 C 186.400 369.560,186.580 369.200,186.800 369.200 C 187.020 369.200,187.200 368.840,187.200 368.400 C 187.200 367.960,187.380 367.600,187.600 367.600 C 187.820 367.600,188.000 367.240,188.000 366.800 C 188.000 366.360,188.180 366.000,188.400 366.000 C 188.620 366.000,188.800 365.651,188.800 365.224 C 188.800 364.797,188.980 364.336,189.200 364.200 C 189.420 364.064,189.600 363.601,189.600 363.171 C 189.600 362.741,189.762 362.077,189.961 361.695 C 191.178 359.352,191.400 357.139,191.400 347.320 C 191.400 339.789,191.274 337.113,190.900 336.740 C 190.625 336.465,190.400 335.913,190.400 335.514 C 190.400 334.450,189.455 331.600,189.103 331.600 C 188.936 331.600,188.800 331.265,188.800 330.856 C 188.800 329.946,186.551 325.513,185.538 324.425 C 185.132 323.990,184.800 323.428,184.800 323.177 C 184.800 322.926,184.260 322.217,183.600 321.600 C 182.940 320.983,182.400 320.278,182.400 320.033 C 182.400 318.045,170.054 308.408,167.500 308.402 C 167.115 308.401,166.800 308.220,166.800 308.000 C 166.800 307.780,166.440 307.600,166.000 307.600 C 165.560 307.600,165.200 307.420,165.200 307.200 C 165.200 306.980,164.840 306.800,164.400 306.800 C 163.960 306.800,163.600 306.620,163.600 306.400 C 163.600 306.180,163.060 306.000,162.400 306.000 C 161.740 306.000,161.200 305.820,161.200 305.600 C 161.200 305.380,160.480 305.200,159.600 305.200 C 158.720 305.200,158.000 305.020,158.000 304.800 C 158.000 304.580,157.010 304.400,155.800 304.400 C 154.590 304.400,153.600 304.220,153.600 304.000 C 153.600 303.752,151.400 303.600,147.800 303.600 C 144.200 303.600,142.000 303.752,142.000 304.000 M316.000 304.000 C 316.000 304.220,315.021 304.400,313.824 304.400 C 312.627 304.400,311.536 304.580,311.400 304.800 C 311.264 305.020,310.533 305.200,309.776 305.200 C 309.019 305.200,308.400 305.380,308.400 305.600 C 308.400 305.820,307.860 306.000,307.200 306.000 C 306.540 306.000,306.000 306.180,306.000 306.400 C 306.000 306.620,305.640 306.800,305.200 306.800 C 304.760 306.800,304.400 306.980,304.400 307.200 C 304.400 307.420,304.040 307.600,303.600 307.600 C 303.160 307.600,302.800 307.780,302.800 308.000 C 302.800 308.220,302.512 308.400,302.160 308.400 C 300.927 308.400,296.901 310.632,294.258 312.782 C 292.336 314.345,287.200 319.614,287.200 320.022 C 287.200 320.274,286.660 320.983,286.000 321.600 C 285.340 322.217,284.800 323.009,284.800 323.360 C 284.800 323.712,284.620 324.000,284.400 324.000 C 284.180 324.000,284.000 324.270,284.000 324.600 C 284.000 324.930,283.820 325.200,283.600 325.200 C 283.380 325.200,283.200 325.455,283.200 325.767 C 283.200 326.078,283.065 326.393,282.900 326.467 C 282.401 326.688,280.800 330.022,280.800 330.838 C 280.800 331.257,280.620 331.600,280.400 331.600 C 280.180 331.600,280.000 332.039,280.000 332.576 C 280.000 333.113,279.820 333.664,279.600 333.800 C 279.380 333.936,279.200 334.577,279.200 335.224 C 279.200 335.871,279.020 336.400,278.800 336.400 C 278.580 336.400,278.400 337.300,278.400 338.400 C 278.400 339.521,278.217 340.400,277.983 340.400 C 277.702 340.400,277.624 342.786,277.745 347.700 C 277.936 355.503,278.262 358.800,278.840 358.800 C 279.038 358.800,279.200 359.520,279.200 360.400 C 279.200 361.280,279.380 362.000,279.600 362.000 C 279.820 362.000,280.000 362.439,280.000 362.976 C 280.000 363.513,280.180 364.064,280.400 364.200 C 280.620 364.336,280.800 364.797,280.800 365.224 C 280.800 365.651,280.980 366.000,281.200 366.000 C 281.420 366.000,281.600 366.360,281.600 366.800 C 281.600 367.240,281.780 367.600,282.000 367.600 C 282.220 367.600,282.400 367.960,282.400 368.400 C 282.400 368.840,282.580 369.200,282.800 369.200 C 283.020 369.200,283.200 369.560,283.200 370.000 C 283.200 370.440,283.350 370.800,283.532 370.800 C 283.715 370.800,284.119 371.295,284.430 371.900 C 284.740 372.505,285.311 373.291,285.697 373.647 C 286.084 374.003,286.400 374.411,286.400 374.553 C 286.400 374.696,287.705 376.132,289.300 377.744 C 290.895 379.357,292.454 381.049,292.764 381.505 C 293.075 381.961,293.792 382.574,294.358 382.867 C 294.923 383.160,295.911 383.895,296.552 384.500 C 297.194 385.105,297.962 385.600,298.259 385.600 C 298.557 385.600,298.800 385.780,298.800 386.000 C 298.800 386.220,299.160 386.400,299.600 386.400 C 300.040 386.400,300.400 386.580,300.400 386.800 C 300.400 387.020,300.760 387.200,301.200 387.200 C 301.640 387.200,302.000 387.380,302.000 387.600 C 302.000 387.820,302.360 388.000,302.800 388.000 C 303.240 388.000,303.600 388.180,303.600 388.400 C 303.600 388.620,303.949 388.800,304.376 388.800 C 304.803 388.800,305.264 388.980,305.400 389.200 C 305.536 389.420,306.087 389.600,306.624 389.600 C 307.161 389.600,307.600 389.760,307.600 389.956 C 307.600 390.152,308.185 390.411,308.900 390.532 C 309.615 390.653,311.280 390.957,312.600 391.208 C 315.901 391.835,332.174 391.586,332.862 390.898 C 333.136 390.624,333.783 390.400,334.299 390.400 C 334.816 390.400,335.984 390.040,336.894 389.600 C 337.805 389.160,338.876 388.800,339.275 388.800 C 339.674 388.800,340.000 388.620,340.000 388.400 C 340.000 388.180,340.360 388.000,340.800 388.000 C 341.240 388.000,341.600 387.820,341.600 387.600 C 341.600 387.380,341.960 387.200,342.400 387.200 C 342.840 387.200,343.200 387.020,343.200 386.800 C 343.200 386.580,343.436 386.400,343.725 386.400 C 344.013 386.400,344.636 386.040,345.108 385.600 C 345.580 385.160,346.172 384.800,346.423 384.800 C 346.674 384.800,347.383 384.260,348.000 383.600 C 348.617 382.940,349.326 382.400,349.578 382.400 C 350.587 382.400,358.800 373.278,358.800 372.157 C 358.800 371.851,358.980 371.600,359.200 371.600 C 359.420 371.600,359.600 371.322,359.600 370.983 C 359.600 370.644,359.960 369.980,360.400 369.508 C 360.840 369.036,361.200 368.334,361.200 367.948 C 361.200 367.563,361.380 367.136,361.600 367.000 C 361.820 366.864,362.000 366.403,362.000 365.976 C 362.000 365.549,362.180 365.200,362.400 365.200 C 362.620 365.200,362.800 364.840,362.800 364.400 C 362.800 363.960,362.980 363.600,363.200 363.600 C 363.420 363.600,363.600 363.060,363.600 362.400 C 363.600 361.740,363.780 361.200,364.000 361.200 C 364.220 361.200,364.400 360.480,364.400 359.600 C 364.400 358.720,364.580 358.000,364.800 358.000 C 365.020 358.000,365.200 357.010,365.200 355.800 C 365.200 354.590,365.380 353.600,365.600 353.600 C 365.848 353.600,366.000 351.400,366.000 347.800 C 366.000 344.200,365.848 342.000,365.600 342.000 C 365.380 342.000,365.200 341.021,365.200 339.824 C 365.200 338.627,365.020 337.536,364.800 337.400 C 364.580 337.264,364.400 336.634,364.400 336.000 C 364.400 335.366,364.220 334.736,364.000 334.600 C 363.780 334.464,363.600 333.913,363.600 333.376 C 363.600 332.839,363.420 332.400,363.200 332.400 C 362.980 332.400,362.800 331.860,362.800 331.200 C 362.800 330.540,362.620 330.000,362.400 330.000 C 362.180 330.000,362.000 329.640,362.000 329.200 C 362.000 328.760,361.820 328.400,361.600 328.400 C 361.380 328.400,361.200 328.040,361.200 327.600 C 361.200 327.160,361.020 326.800,360.800 326.800 C 360.580 326.800,360.400 326.530,360.400 326.200 C 360.400 325.870,360.220 325.600,360.000 325.600 C 359.780 325.600,359.600 325.240,359.600 324.800 C 359.600 324.360,359.442 324.000,359.249 324.000 C 359.055 324.000,358.684 323.487,358.425 322.859 C 358.165 322.232,357.108 320.784,356.076 319.641 C 355.044 318.499,353.750 317.035,353.200 316.389 C 352.650 315.743,352.060 315.211,351.889 315.207 C 351.719 315.203,350.769 314.390,349.779 313.400 C 348.789 312.410,347.817 311.600,347.618 311.600 C 347.420 311.600,347.019 311.365,346.729 311.078 C 346.438 310.791,344.760 309.846,343.000 308.978 C 341.240 308.110,339.740 307.265,339.667 307.100 C 339.593 306.935,339.008 306.800,338.367 306.800 C 337.725 306.800,337.200 306.620,337.200 306.400 C 337.200 306.180,336.660 306.000,336.000 306.000 C 335.340 306.000,334.800 305.820,334.800 305.600 C 334.800 305.380,334.181 305.200,333.424 305.200 C 332.667 305.200,331.936 305.020,331.800 304.800 C 331.664 304.580,330.663 304.400,329.576 304.400 C 328.489 304.400,327.600 304.220,327.600 304.000 C 327.600 303.752,325.400 303.600,321.800 303.600 C 318.200 303.600,316.000 303.752,316.000 304.000 " stroke="none" fill="#445c63" fill-rule="evenodd"></path><path id="path2" d="M79.042 60.573 C 78.908 61.109,79.419 64.755,80.179 68.674 C 82.242 79.317,84.363 89.993,84.773 91.800 C 84.973 92.680,85.337 94.480,85.582 95.800 C 85.827 97.120,86.187 98.920,86.382 99.800 C 86.576 100.680,86.944 102.480,87.200 103.800 C 87.456 105.120,87.816 106.920,88.000 107.800 C 88.184 108.680,88.524 110.390,88.756 111.600 C 89.473 115.354,90.027 118.134,90.388 119.800 C 90.579 120.680,90.924 122.390,91.156 123.600 C 91.878 127.378,92.428 130.139,92.789 131.800 C 92.980 132.680,93.340 134.480,93.589 135.800 C 93.838 137.120,94.386 139.820,94.807 141.800 C 95.453 144.835,100.441 169.791,101.683 176.200 C 101.896 177.300,102.218 178.920,102.398 179.800 C 102.578 180.680,102.939 182.480,103.200 183.800 C 103.461 185.120,103.821 186.920,104.000 187.800 C 104.179 188.680,104.539 190.480,104.800 191.800 C 105.061 193.120,105.421 194.920,105.600 195.800 C 105.779 196.680,106.139 198.480,106.400 199.800 C 106.661 201.120,107.019 202.920,107.195 203.800 C 108.973 212.650,109.852 217.067,110.379 219.800 C 114.039 238.787,116.279 245.711,120.271 250.374 C 121.678 252.018,124.319 252.702,125.000 251.600 C 125.136 251.380,126.497 251.200,128.024 251.200 C 129.608 251.200,130.800 251.028,130.800 250.800 C 130.800 250.569,132.067 250.400,133.800 250.400 C 135.533 250.400,136.800 250.231,136.800 250.000 C 136.800 249.771,138.000 249.600,139.600 249.600 C 141.200 249.600,142.400 249.429,142.400 249.200 C 142.400 248.969,143.659 248.800,145.376 248.800 C 147.013 248.800,148.464 248.620,148.600 248.400 C 148.736 248.180,150.097 248.000,151.624 248.000 C 153.208 248.000,154.400 247.828,154.400 247.600 C 154.400 247.369,155.667 247.200,157.400 247.200 C 159.133 247.200,160.400 247.031,160.400 246.800 C 160.400 246.571,161.600 246.400,163.200 246.400 C 164.800 246.400,166.000 246.229,166.000 246.000 C 166.000 245.769,167.267 245.600,169.000 245.600 C 170.733 245.600,172.000 245.431,172.000 245.200 C 172.000 244.971,173.200 244.800,174.800 244.800 C 176.400 244.800,177.600 244.629,177.600 244.400 C 177.600 244.169,178.859 244.000,180.576 244.000 C 182.213 244.000,183.664 243.820,183.800 243.600 C 183.936 243.380,185.297 243.200,186.824 243.200 C 188.408 243.200,189.600 243.028,189.600 242.800 C 189.600 242.569,190.867 242.400,192.600 242.400 C 194.250 242.400,195.600 242.249,195.600 242.065 C 195.600 241.880,198.165 241.517,201.300 241.257 C 204.435 240.996,208.170 240.683,209.600 240.559 C 211.030 240.436,212.371 240.170,212.580 239.968 C 212.789 239.765,214.173 239.600,215.656 239.600 C 217.139 239.600,218.464 239.420,218.600 239.200 C 218.736 238.980,220.097 238.800,221.624 238.800 C 223.151 238.800,224.400 238.634,224.400 238.432 C 224.400 238.229,225.705 237.964,227.300 237.842 C 233.702 237.354,235.435 237.151,236.200 236.800 C 236.965 236.449,238.698 236.246,245.100 235.758 C 246.695 235.636,248.000 235.371,248.000 235.168 C 248.000 234.966,249.249 234.800,250.776 234.800 C 252.303 234.800,253.664 234.620,253.800 234.400 C 253.936 234.180,255.297 234.000,256.824 234.000 C 258.408 234.000,259.600 233.828,259.600 233.600 C 259.600 233.369,260.859 233.200,262.576 233.200 C 264.213 233.200,265.664 233.020,265.800 232.800 C 265.936 232.580,267.196 232.400,268.600 232.400 C 270.004 232.400,271.264 232.220,271.400 232.000 C 271.536 231.780,272.886 231.600,274.400 231.600 C 275.914 231.600,277.264 231.420,277.400 231.200 C 277.536 230.980,278.897 230.800,280.424 230.800 C 282.008 230.800,283.200 230.628,283.200 230.400 C 283.200 230.169,284.467 230.000,286.200 230.000 C 287.933 230.000,289.200 229.831,289.200 229.600 C 289.200 229.371,290.400 229.200,292.000 229.200 C 293.600 229.200,294.800 229.029,294.800 228.800 C 294.800 228.569,296.059 228.400,297.776 228.400 C 299.413 228.400,300.864 228.220,301.000 228.000 C 301.136 227.780,302.396 227.600,303.800 227.600 C 305.204 227.600,306.464 227.420,306.600 227.200 C 306.736 226.980,308.187 226.800,309.824 226.800 C 311.541 226.800,312.800 226.631,312.800 226.400 C 312.800 226.171,314.000 226.000,315.600 226.000 C 317.200 226.000,318.400 225.829,318.400 225.600 C 318.400 225.379,319.519 225.187,320.900 225.172 C 323.293 225.144,326.255 224.846,332.800 223.974 C 334.450 223.754,336.880 223.482,338.200 223.370 C 339.520 223.258,340.960 223.001,341.400 222.799 C 341.840 222.597,343.370 222.337,344.800 222.223 C 351.361 221.696,352.652 221.543,353.400 221.200 C 354.165 220.849,355.898 220.646,362.300 220.158 C 363.895 220.036,365.200 219.771,365.200 219.568 C 365.200 219.366,366.449 219.200,367.976 219.200 C 369.503 219.200,370.864 219.020,371.000 218.800 C 371.136 218.580,372.317 218.400,373.624 218.400 C 374.941 218.400,376.000 218.222,376.000 218.000 C 376.000 217.780,376.540 217.600,377.200 217.600 C 377.860 217.600,378.400 217.420,378.400 217.200 C 378.400 216.980,378.625 216.800,378.900 216.800 C 379.675 216.799,381.600 214.984,381.600 214.253 C 381.600 213.894,381.780 213.600,382.000 213.600 C 382.220 213.600,382.400 213.240,382.400 212.800 C 382.400 212.360,382.580 212.000,382.800 212.000 C 383.020 212.000,383.200 211.100,383.200 210.000 C 383.200 208.900,383.380 208.000,383.600 208.000 C 383.831 208.000,384.000 206.741,384.000 205.024 C 384.000 203.387,384.180 201.936,384.400 201.800 C 384.620 201.664,384.800 200.213,384.800 198.576 C 384.800 196.859,384.969 195.600,385.200 195.600 C 385.433 195.600,385.600 194.267,385.600 192.400 C 385.600 190.533,385.767 189.200,386.000 189.200 C 386.231 189.200,386.400 187.941,386.400 186.224 C 386.400 184.587,386.580 183.136,386.800 183.000 C 387.020 182.864,387.200 181.413,387.200 179.776 C 387.200 178.059,387.369 176.800,387.600 176.800 C 387.831 176.800,388.000 175.541,388.000 173.824 C 388.000 172.187,388.180 170.736,388.400 170.600 C 388.620 170.464,388.800 169.049,388.800 167.456 C 388.800 165.863,388.966 164.389,389.170 164.180 C 389.373 163.971,389.635 162.450,389.752 160.800 C 389.868 159.150,390.156 156.360,390.392 154.600 C 390.628 152.840,391.041 148.759,391.311 145.530 C 391.580 142.302,391.935 139.527,392.100 139.364 C 392.265 139.200,392.400 137.747,392.400 136.133 C 392.400 134.444,392.570 133.200,392.800 133.200 C 393.033 133.200,393.200 131.867,393.200 130.000 C 393.200 128.133,393.367 126.800,393.600 126.800 C 393.831 126.800,394.000 125.541,394.000 123.824 C 394.000 122.187,394.180 120.736,394.400 120.600 C 394.620 120.464,394.800 119.013,394.800 117.376 C 394.800 115.659,394.969 114.400,395.200 114.400 C 395.433 114.400,395.600 113.067,395.600 111.200 C 395.600 109.333,395.767 108.000,396.000 108.000 C 396.231 108.000,396.400 106.733,396.400 105.000 C 396.400 103.267,396.569 102.000,396.800 102.000 C 397.033 102.000,397.200 100.667,397.200 98.800 C 397.200 96.933,397.367 95.600,397.600 95.600 C 397.833 95.600,398.000 94.267,398.000 92.400 C 398.000 90.533,398.167 89.200,398.400 89.200 C 398.631 89.200,398.800 87.944,398.800 86.233 C 398.800 84.602,398.973 83.207,399.185 83.133 C 399.654 82.971,400.232 67.561,399.846 65.506 C 399.561 63.984,397.177 61.200,396.160 61.200 C 395.852 61.200,395.600 61.038,395.600 60.840 C 395.600 59.965,383.517 59.883,235.544 59.744 L 79.287 59.598 79.042 60.573 M186.304 96.083 C 188.371 97.046,190.776 99.401,190.791 100.476 C 190.796 100.848,190.980 101.264,191.200 101.400 C 191.420 101.536,191.600 102.591,191.600 103.744 C 191.600 104.897,191.768 106.011,191.974 106.220 C 192.180 106.429,192.445 108.400,192.563 110.600 C 192.681 112.800,192.960 116.580,193.184 119.000 C 193.407 121.420,193.765 125.290,193.979 127.600 C 194.193 129.910,194.559 133.870,194.792 136.400 C 195.025 138.930,195.383 142.800,195.588 145.000 C 195.793 147.200,196.158 151.160,196.399 153.800 C 196.639 156.440,197.000 160.310,197.200 162.400 C 197.400 164.490,197.749 168.270,197.975 170.800 C 198.201 173.330,198.579 177.470,198.813 180.000 C 200.570 198.930,200.682 201.598,199.799 203.459 C 198.961 205.225,196.306 208.000,195.455 208.000 C 195.121 208.000,194.736 208.180,194.600 208.400 C 193.966 209.426,188.020 208.852,186.181 207.587 C 182.113 204.788,182.142 204.966,178.608 161.800 C 178.500 160.480,178.224 157.420,177.996 155.000 C 177.767 152.580,177.401 148.620,177.182 146.200 C 176.689 140.773,176.138 134.780,175.600 129.000 C 175.375 126.580,175.016 122.710,174.804 120.400 C 174.591 118.090,174.223 114.130,173.986 111.600 C 173.335 104.662,173.509 100.400,174.444 100.400 C 174.640 100.400,174.800 100.151,174.800 99.846 C 174.800 99.010,178.077 96.001,178.996 95.994 C 179.438 95.991,180.070 95.813,180.400 95.600 C 181.439 94.929,184.335 95.166,186.304 96.083 M237.866 95.815 C 239.756 96.212,243.200 99.677,243.200 101.181 C 243.200 101.605,243.380 102.064,243.600 102.200 C 243.863 102.362,244.000 117.996,244.000 147.800 C 244.000 177.604,243.863 193.238,243.600 193.400 C 243.380 193.536,243.200 194.087,243.200 194.624 C 243.200 195.161,243.064 195.600,242.898 195.600 C 242.731 195.600,242.374 196.101,242.103 196.712 C 240.015 201.430,229.600 201.421,227.495 196.700 C 227.225 196.095,226.869 195.600,226.702 195.600 C 226.536 195.600,226.400 195.161,226.400 194.624 C 226.400 194.087,226.220 193.536,226.000 193.400 C 225.737 193.238,225.600 177.596,225.600 147.776 C 225.600 117.792,225.736 102.400,226.000 102.400 C 226.220 102.400,226.400 101.952,226.400 101.405 C 226.400 99.801,229.892 96.005,231.378 95.994 C 231.830 95.991,232.470 95.805,232.800 95.581 C 233.384 95.186,235.294 95.274,237.866 95.815 M289.400 95.600 C 289.536 95.820,289.995 96.000,290.421 96.000 C 291.564 96.000,294.800 98.864,294.800 99.875 C 294.800 100.164,294.956 100.400,295.147 100.400 C 296.068 100.400,296.253 104.501,295.599 110.400 C 295.367 112.490,295.086 115.550,294.975 117.200 C 294.864 118.850,294.605 120.560,294.400 121.000 C 294.195 121.440,293.929 123.240,293.809 125.000 C 293.688 126.760,293.489 129.640,293.366 131.400 C 293.243 133.160,292.975 134.771,292.771 134.980 C 292.567 135.189,292.400 136.818,292.400 138.600 C 292.400 140.382,292.237 142.011,292.037 142.220 C 291.837 142.429,291.568 144.130,291.438 146.000 C 291.308 147.870,291.035 150.930,290.830 152.800 C 290.626 154.670,290.280 158.000,290.063 160.200 C 288.310 177.949,287.270 185.199,286.218 187.000 C 282.418 193.506,273.055 193.115,269.828 186.316 C 269.075 184.729,269.123 180.200,269.971 172.800 C 270.399 169.072,271.011 163.670,271.604 158.400 C 271.814 156.530,272.161 153.470,272.374 151.600 C 274.214 135.452,274.416 133.551,274.642 130.200 C 274.761 128.440,275.025 126.829,275.229 126.620 C 275.433 126.411,275.600 124.782,275.600 123.000 C 275.600 121.218,275.767 119.589,275.971 119.380 C 276.175 119.171,276.439 117.560,276.558 115.800 C 277.073 108.173,277.923 101.695,278.453 101.367 C 278.644 101.249,278.804 100.848,278.809 100.476 C 278.848 97.626,288.037 93.395,289.400 95.600 M342.867 95.956 C 344.564 96.695,346.504 98.512,347.500 100.295 C 348.101 101.369,348.183 108.239,347.600 108.600 C 347.380 108.736,347.200 109.456,347.200 110.200 C 347.200 110.944,347.020 111.664,346.800 111.800 C 346.580 111.936,346.400 112.656,346.400 113.400 C 346.400 114.144,346.220 114.864,346.000 115.000 C 345.780 115.136,345.600 115.856,345.600 116.600 C 345.600 117.344,345.420 118.064,345.200 118.200 C 344.980 118.336,344.800 119.056,344.800 119.800 C 344.800 120.544,344.620 121.264,344.400 121.400 C 344.180 121.536,344.000 122.256,344.000 123.000 C 344.000 123.744,343.820 124.464,343.600 124.600 C 343.380 124.736,343.200 125.467,343.200 126.224 C 343.200 126.981,343.020 127.600,342.800 127.600 C 342.580 127.600,342.400 128.320,342.400 129.200 C 342.400 130.080,342.220 130.800,342.000 130.800 C 341.780 130.800,341.600 131.282,341.600 131.872 C 341.600 132.461,341.432 133.496,341.227 134.172 C 340.435 136.781,335.996 154.899,335.732 156.600 C 335.629 157.260,335.391 158.160,335.203 158.600 C 335.014 159.040,334.749 159.940,334.612 160.600 C 334.476 161.260,334.178 162.520,333.950 163.400 C 333.721 164.280,333.440 165.676,333.325 166.503 C 333.210 167.329,332.955 168.105,332.758 168.226 C 332.561 168.348,332.400 168.829,332.400 169.295 C 332.400 169.762,332.232 170.696,332.027 171.372 C 331.822 172.047,331.439 173.410,331.175 174.400 C 330.214 178.013,327.914 181.600,326.559 181.600 C 326.251 181.600,326.000 181.744,326.000 181.920 C 326.000 182.411,323.505 183.201,321.972 183.194 C 317.759 183.175,314.265 180.440,312.952 176.132 C 312.280 173.927,312.326 173.562,314.265 165.800 C 316.308 157.625,316.430 157.117,316.652 155.800 C 316.763 155.140,317.009 154.240,317.197 153.800 C 317.386 153.360,317.651 152.460,317.788 151.800 C 317.924 151.140,318.216 149.880,318.436 149.000 C 318.656 148.120,319.017 146.680,319.237 145.800 C 319.457 144.920,319.817 143.480,320.037 142.600 C 320.257 141.720,320.621 140.280,320.847 139.400 C 321.073 138.520,321.355 137.213,321.473 136.496 C 321.592 135.779,321.849 135.094,322.044 134.973 C 322.240 134.852,322.400 134.144,322.400 133.400 C 322.400 132.656,322.580 131.936,322.800 131.800 C 323.020 131.664,323.200 130.944,323.200 130.200 C 323.200 129.456,323.380 128.736,323.600 128.600 C 323.820 128.464,324.000 127.744,324.000 127.000 C 324.000 126.256,324.180 125.536,324.400 125.400 C 324.620 125.264,324.800 124.544,324.800 123.800 C 324.800 123.056,324.980 122.336,325.200 122.200 C 325.420 122.064,325.600 121.344,325.600 120.600 C 325.600 119.856,325.780 119.136,326.000 119.000 C 326.220 118.864,326.400 118.144,326.400 117.400 C 326.400 116.656,326.580 115.936,326.800 115.800 C 327.020 115.664,327.200 114.944,327.200 114.200 C 327.200 113.456,327.360 112.748,327.556 112.627 C 327.751 112.506,328.004 111.821,328.116 111.104 C 330.182 97.934,335.315 92.663,342.867 95.956 M134.808 96.616 C 137.640 98.047,139.367 101.036,140.041 105.676 C 140.274 107.284,140.641 109.590,140.857 110.800 C 141.072 112.010,141.343 113.990,141.459 115.200 C 141.575 116.410,141.835 117.571,142.035 117.780 C 142.236 117.989,142.400 119.103,142.400 120.256 C 142.400 121.409,142.580 122.464,142.800 122.600 C 143.020 122.736,143.200 123.791,143.200 124.944 C 143.200 126.097,143.363 127.211,143.563 127.420 C 143.763 127.629,144.036 128.790,144.170 130.000 C 144.780 135.510,144.896 136.223,145.237 136.580 C 145.437 136.789,145.600 137.903,145.600 139.056 C 145.600 140.209,145.780 141.264,146.000 141.400 C 146.220 141.536,146.400 142.591,146.400 143.744 C 146.400 144.897,146.563 146.011,146.763 146.220 C 146.963 146.429,147.225 147.500,147.346 148.600 C 147.466 149.700,147.753 151.725,147.982 153.100 C 148.212 154.475,148.580 156.680,148.800 158.000 C 149.020 159.320,149.380 161.480,149.600 162.800 C 150.329 167.171,150.768 169.774,151.155 172.000 C 151.364 173.210,151.723 175.370,151.951 176.800 C 152.178 178.230,152.546 180.480,152.768 181.800 C 152.990 183.120,153.361 185.443,153.593 186.962 C 153.825 188.481,154.475 192.351,155.039 195.562 C 157.481 209.482,157.405 211.693,154.374 214.982 C 151.621 217.969,146.494 218.760,143.400 216.675 C 141.500 215.394,139.600 213.269,139.600 212.423 C 139.600 211.996,139.420 211.536,139.200 211.400 C 138.980 211.264,138.800 210.569,138.800 209.856 C 138.800 209.143,138.637 208.389,138.437 208.180 C 138.237 207.971,137.975 206.900,137.854 205.800 C 137.734 204.700,137.447 202.675,137.218 201.300 C 136.988 199.925,136.620 197.720,136.400 196.400 C 135.671 192.029,135.232 189.426,134.845 187.200 C 134.434 184.830,133.755 180.730,133.188 177.200 C 132.994 175.990,132.662 174.010,132.450 172.800 C 132.239 171.590,131.785 168.800,131.441 166.600 C 131.097 164.400,130.364 159.990,129.812 156.800 C 129.260 153.610,128.806 150.361,128.804 149.580 C 128.802 148.799,128.637 147.989,128.437 147.780 C 128.097 147.424,127.916 146.259,127.356 140.800 C 127.231 139.590,126.965 138.429,126.765 138.220 C 126.564 138.011,126.400 136.897,126.400 135.744 C 126.400 134.591,126.220 133.536,126.000 133.400 C 125.780 133.264,125.600 132.299,125.600 131.256 C 125.600 130.213,125.436 129.189,125.235 128.980 C 125.035 128.771,124.769 127.610,124.644 126.400 C 124.084 120.941,123.903 119.776,123.563 119.420 C 123.363 119.211,123.200 118.122,123.200 117.000 C 123.200 115.878,123.037 114.789,122.837 114.580 C 121.654 113.342,121.351 102.639,122.439 100.524 C 124.606 96.311,130.512 94.445,134.808 96.616 " stroke="none" fill="#fbc304" fill-rule="evenodd"></path><path id="path3" d="M181.200 95.598 C 180.870 95.812,180.258 95.991,179.839 95.994 C 175.793 96.026,173.369 101.584,174.044 109.278 C 174.907 119.104,175.208 122.458,175.601 126.600 C 176.030 131.117,176.520 136.470,177.211 144.200 C 177.659 149.204,178.190 154.997,178.789 161.400 C 179.300 166.874,179.859 173.165,180.383 179.359 C 180.757 183.789,181.200 185.985,181.200 183.415 C 181.200 182.199,179.388 161.881,178.006 147.600 C 177.804 145.510,177.444 141.550,177.207 138.800 C 176.970 136.050,176.605 132.000,176.397 129.800 C 176.188 127.600,175.827 123.730,175.594 121.200 C 175.360 118.670,174.996 114.946,174.785 112.923 C 173.525 100.883,175.231 96.916,182.048 96.032 C 183.452 95.850,184.210 95.679,183.733 95.651 C 183.256 95.623,182.626 95.512,182.333 95.404 C 182.040 95.297,181.530 95.384,181.200 95.598 M234.200 95.627 C 233.549 95.885,233.641 95.949,234.700 95.972 C 236.052 96.001,236.358 95.820,235.500 95.498 C 235.225 95.395,234.640 95.453,234.200 95.627 M286.400 95.624 L 285.000 95.895 286.640 95.947 C 293.727 96.175,296.313 101.097,294.808 111.493 C 294.354 114.627,293.811 119.243,293.195 125.200 C 292.956 127.510,292.597 130.660,292.396 132.200 C 292.196 133.740,291.834 136.980,291.594 139.400 C 291.353 141.820,290.993 145.150,290.795 146.800 C 290.596 148.450,290.244 151.510,290.012 153.600 C 289.780 155.690,289.142 161.409,288.595 166.309 C 287.554 175.627,287.448 177.086,287.834 176.699 C 287.963 176.570,288.243 174.695,288.457 172.532 C 288.670 170.369,289.004 167.160,289.200 165.400 C 289.396 163.640,289.756 160.400,290.000 158.200 C 290.244 156.000,290.618 152.670,290.830 150.800 C 291.043 148.930,291.394 145.780,291.610 143.800 C 291.826 141.820,292.178 138.670,292.391 136.800 C 292.605 134.930,292.958 131.780,293.176 129.800 C 293.751 124.586,294.339 119.329,294.823 115.100 C 296.082 104.098,296.073 102.874,294.718 100.199 C 293.848 98.482,290.962 96.000,289.835 96.000 C 289.457 96.000,288.844 95.855,288.474 95.677 C 288.103 95.499,287.170 95.475,286.400 95.624 M336.421 95.793 C 334.381 96.530,332.071 98.643,331.238 100.534 C 330.548 102.102,330.297 102.923,329.233 107.100 C 328.995 108.035,328.605 109.565,328.367 110.500 C 327.816 112.664,327.234 114.990,326.767 116.900 C 326.565 117.725,326.205 119.165,325.967 120.100 C 325.416 122.264,324.834 124.590,324.367 126.500 C 324.165 127.325,323.819 128.675,323.597 129.500 C 321.854 135.986,318.793 148.976,318.921 149.344 C 319.009 149.595,319.208 149.170,319.365 148.400 C 319.522 147.630,319.796 146.550,319.975 146.000 C 320.154 145.450,320.520 144.010,320.788 142.800 C 321.055 141.590,321.425 140.060,321.610 139.400 C 322.018 137.944,322.747 135.100,323.200 133.200 C 323.384 132.430,323.722 131.080,323.951 130.200 C 324.378 128.562,325.401 124.500,326.016 122.000 C 326.206 121.230,326.541 119.790,326.761 118.800 C 326.982 117.810,327.528 115.650,327.975 114.000 C 328.422 112.350,329.264 109.020,329.846 106.600 C 331.700 98.891,333.709 96.417,338.390 96.078 C 342.160 95.805,346.800 98.375,346.800 100.736 C 346.800 101.123,346.997 101.637,347.238 101.878 C 347.734 102.374,347.525 106.100,346.862 108.600 C 346.628 109.480,346.248 110.965,346.018 111.900 C 345.788 112.835,345.412 114.365,345.182 115.300 C 344.952 116.235,344.592 117.675,344.382 118.500 C 344.172 119.325,343.828 120.675,343.618 121.500 C 343.408 122.325,343.065 123.720,342.856 124.600 C 342.646 125.480,341.371 130.589,340.022 135.954 C 338.673 141.319,337.644 145.909,337.735 146.154 C 337.827 146.399,338.022 146.060,338.170 145.400 C 338.318 144.740,338.603 143.570,338.804 142.800 C 339.173 141.380,340.187 137.353,340.818 134.800 C 341.008 134.030,341.343 132.680,341.563 131.800 C 342.595 127.672,342.788 126.882,343.170 125.200 C 343.395 124.210,343.957 121.960,344.420 120.200 C 344.883 118.440,345.419 116.280,345.612 115.400 C 345.805 114.520,346.418 112.090,346.974 110.000 C 348.186 105.443,348.255 103.062,347.244 100.702 C 346.433 98.810,343.509 96.000,342.352 96.000 C 341.964 96.000,341.536 95.820,341.400 95.600 C 341.068 95.062,338.129 95.177,336.421 95.793 M126.912 96.570 C 122.082 99.245,120.941 102.412,122.220 109.600 C 122.552 111.470,123.005 114.170,123.226 115.600 C 123.448 117.030,123.819 119.280,124.051 120.600 C 124.284 121.920,124.623 123.900,124.805 125.000 C 125.831 131.195,126.095 132.787,126.400 134.600 C 126.705 136.413,126.969 138.005,127.995 144.200 C 128.177 145.300,128.530 147.370,128.780 148.800 C 129.212 151.269,129.528 153.204,130.372 158.537 C 130.575 159.823,130.844 160.978,130.971 161.104 C 131.360 161.493,131.235 160.387,130.215 154.390 C 129.673 151.205,129.028 147.340,128.781 145.800 C 128.534 144.260,128.178 142.190,127.990 141.200 C 127.803 140.210,127.451 138.140,127.209 136.600 C 126.967 135.060,126.596 132.765,126.384 131.500 C 126.173 130.235,125.820 128.120,125.600 126.800 C 124.582 120.693,124.339 119.267,123.997 117.400 C 123.317 113.689,122.477 108.281,122.163 105.595 C 121.071 96.238,134.582 92.664,138.167 101.362 C 138.723 102.711,139.350 105.985,141.220 117.300 C 141.604 119.627,142.057 122.348,142.818 126.900 C 143.047 128.275,143.408 130.480,143.619 131.800 C 143.829 133.120,144.182 135.235,144.401 136.500 C 144.620 137.765,144.980 139.835,145.199 141.100 C 145.418 142.365,145.771 144.480,145.981 145.800 C 146.192 147.120,146.546 149.280,146.768 150.600 C 148.072 158.356,148.762 162.553,149.176 165.242 C 149.523 167.501,150.000 168.859,150.000 167.589 C 150.000 167.008,145.859 141.553,145.218 138.200 C 144.782 135.914,144.227 132.645,143.588 128.600 C 143.345 127.060,142.983 124.900,142.785 123.800 C 142.587 122.700,142.230 120.540,141.992 119.000 C 141.755 117.460,141.390 115.432,141.180 114.494 C 140.971 113.556,140.800 112.317,140.800 111.741 C 140.800 111.164,140.632 110.042,140.426 109.246 C 140.221 108.451,139.830 106.487,139.559 104.882 C 139.287 103.277,138.915 101.871,138.732 101.758 C 138.550 101.645,138.400 101.241,138.400 100.860 C 138.400 97.734,130.284 94.703,126.912 96.570 M186.206 96.822 C 189.982 98.769,190.849 100.792,191.596 109.400 C 191.825 112.040,192.183 116.000,192.391 118.200 C 192.600 120.400,192.954 124.270,193.179 126.800 C 193.403 129.330,193.688 132.480,193.811 133.800 C 193.934 135.120,194.215 138.180,194.434 140.600 C 194.654 143.020,195.010 146.890,195.225 149.200 C 195.440 151.510,195.793 155.380,196.008 157.800 C 196.224 160.220,196.583 164.180,196.807 166.600 C 197.698 176.224,197.963 179.206,198.369 184.162 C 198.601 187.001,198.908 189.431,199.051 189.562 C 199.319 189.809,199.172 187.577,198.182 176.400 C 197.141 164.655,196.815 161.076,196.395 156.800 C 196.168 154.490,195.806 150.530,195.591 148.000 C 195.217 143.589,194.935 140.505,193.986 130.400 C 193.748 127.870,193.384 123.865,193.177 121.500 C 191.558 103.025,191.390 101.900,189.871 99.400 C 189.005 97.976,186.374 96.000,185.342 96.000 C 184.915 96.000,185.275 96.342,186.206 96.822 M229.898 97.116 C 228.012 98.477,226.711 100.453,226.086 102.906 C 225.375 105.692,225.421 190.187,226.134 192.891 C 227.149 196.736,231.046 200.354,233.687 199.903 C 234.387 199.784,234.226 199.670,233.000 199.414 C 230.915 198.981,228.985 197.651,227.662 195.738 L 226.600 194.200 226.600 148.000 L 226.600 101.800 227.538 100.291 C 228.616 98.558,230.641 96.897,232.274 96.407 C 233.371 96.077,233.375 96.068,232.400 96.051 C 231.850 96.041,230.724 96.520,229.898 97.116 M237.550 96.460 C 238.292 96.674,239.762 97.735,240.817 98.818 C 243.396 101.466,243.266 98.572,243.123 150.000 L 243.000 194.200 241.938 195.738 C 240.618 197.648,238.689 198.978,236.600 199.420 C 235.139 199.729,235.097 199.771,236.117 199.907 C 238.821 200.268,242.509 196.719,243.429 192.870 C 244.178 189.737,244.229 106.088,243.483 102.998 C 242.597 99.326,239.498 95.941,237.109 96.036 C 236.419 96.063,236.526 96.166,237.550 96.460 M282.568 96.754 C 281.023 97.696,278.800 100.359,278.800 101.268 C 278.800 101.644,278.645 102.048,278.457 102.165 C 278.127 102.369,277.998 103.243,277.186 110.800 C 276.985 112.670,276.645 115.730,276.431 117.600 C 275.512 125.609,275.154 128.798,274.816 132.000 C 274.618 133.870,274.259 137.110,274.019 139.200 C 273.778 141.290,273.416 144.530,273.215 146.400 C 272.664 151.503,272.092 156.632,271.207 164.400 C 270.768 168.250,270.407 171.925,270.404 172.567 C 270.396 174.886,270.779 173.276,271.211 169.182 C 271.744 164.124,271.950 162.243,273.600 147.400 C 273.796 145.640,274.140 142.490,274.366 140.400 C 274.591 138.310,274.961 134.980,275.187 133.000 C 275.412 131.020,275.691 128.500,275.806 127.400 C 275.921 126.300,276.188 123.960,276.399 122.200 C 276.611 120.440,276.976 117.200,277.211 115.000 C 278.772 100.373,279.245 98.957,283.256 96.904 C 284.215 96.413,284.730 96.009,284.400 96.007 C 284.070 96.005,283.246 96.341,282.568 96.754 M335.844 152.730 C 335.009 156.101,334.411 158.944,334.515 159.048 C 334.618 159.151,335.185 157.203,335.775 154.718 C 336.364 152.233,337.032 149.719,337.259 149.132 C 337.485 148.544,337.601 147.734,337.516 147.332 C 337.432 146.929,336.679 149.358,335.844 152.730 M318.222 151.129 C 318.058 151.859,318.022 152.556,318.142 152.676 C 318.443 152.977,318.920 150.956,318.699 150.317 C 318.601 150.033,318.386 150.398,318.222 151.129 M317.400 154.400 C 317.248 155.091,317.214 155.747,317.324 155.857 C 317.434 155.967,317.648 155.491,317.800 154.800 C 317.952 154.109,317.986 153.453,317.876 153.343 C 317.766 153.233,317.552 153.709,317.400 154.400 M316.233 159.290 C 315.859 160.890,315.368 162.681,315.141 163.268 C 314.915 163.856,314.798 164.666,314.882 165.068 C 314.966 165.471,315.544 163.767,316.167 161.283 C 316.790 158.799,317.213 156.680,317.106 156.573 C 317.000 156.467,316.607 157.689,316.233 159.290 M333.850 160.400 C 333.627 161.294,333.314 162.579,331.951 168.200 C 331.738 169.080,331.400 170.430,331.200 171.200 C 331.000 171.970,330.671 173.320,330.469 174.200 C 329.252 179.508,326.281 182.159,321.580 182.132 C 315.327 182.096,312.321 177.243,314.033 169.951 C 314.498 167.968,314.780 166.247,314.659 166.126 C 314.538 166.005,314.334 166.422,314.206 167.053 C 314.077 167.684,313.770 168.830,313.523 169.600 C 310.374 179.407,320.438 186.826,327.939 180.226 C 329.657 178.715,334.941 161.650,334.257 159.823 C 334.170 159.590,333.987 159.850,333.850 160.400 M131.275 163.400 C 131.265 164.280,131.411 165.360,131.600 165.800 C 132.053 166.853,132.053 164.779,131.600 163.000 C 131.308 161.853,131.294 161.871,131.275 163.400 M132.087 168.000 C 132.083 168.770,132.224 169.850,132.400 170.400 C 132.848 171.799,132.848 169.561,132.400 167.800 L 132.095 166.600 132.087 168.000 M150.087 170.000 C 150.083 170.770,150.224 171.850,150.400 172.400 C 150.848 173.799,150.848 171.561,150.400 169.800 L 150.095 168.600 150.087 170.000 M132.887 172.800 C 132.883 173.570,133.024 174.650,133.200 175.200 C 133.648 176.599,133.648 174.361,133.200 172.600 L 132.895 171.400 132.887 172.800 M150.880 174.800 C 150.880 175.570,151.024 176.650,151.200 177.200 C 151.490 178.105,151.520 178.067,151.520 176.800 C 151.520 176.030,151.376 174.950,151.200 174.400 C 150.910 173.495,150.880 173.533,150.880 174.800 M269.733 178.000 C 269.038 184.257,269.766 187.222,272.540 189.435 C 279.291 194.821,287.764 189.380,287.545 179.800 C 287.504 178.032,287.441 178.194,287.000 181.200 C 286.295 185.998,285.439 187.761,282.972 189.491 C 276.427 194.081,268.392 187.969,270.022 179.641 C 270.263 178.408,270.402 176.590,270.330 175.600 C 270.232 174.238,270.087 174.821,269.733 178.000 M133.668 177.800 C 133.687 179.711,134.317 181.419,134.332 179.600 C 134.338 178.830,134.189 177.840,134.000 177.400 C 133.708 176.721,133.658 176.781,133.668 177.800 M151.687 179.600 C 151.691 180.370,151.832 181.540,152.000 182.200 C 152.290 183.342,152.306 183.322,152.313 181.800 C 152.317 180.920,152.176 179.750,152.000 179.200 C 151.711 178.298,151.680 178.337,151.687 179.600 M134.480 182.400 C 134.480 183.170,134.624 184.250,134.800 184.800 C 135.090 185.705,135.120 185.667,135.120 184.400 C 135.120 183.630,134.976 182.550,134.800 182.000 C 134.510 181.095,134.480 181.133,134.480 182.400 M152.468 184.600 C 152.487 186.511,153.117 188.219,153.132 186.400 C 153.138 185.630,152.989 184.640,152.800 184.200 C 152.508 183.521,152.458 183.581,152.468 184.600 M181.279 188.000 C 181.261 189.430,181.395 191.320,181.577 192.200 L 181.908 193.800 181.914 191.800 C 181.918 190.700,181.784 188.810,181.617 187.600 L 181.313 185.400 181.279 188.000 M135.263 186.800 C 135.254 187.350,135.395 188.520,135.577 189.400 L 135.908 191.000 135.914 189.400 C 135.917 188.520,135.776 187.350,135.600 186.800 L 135.280 185.800 135.263 186.800 M153.287 189.000 C 153.291 189.660,153.432 190.740,153.600 191.400 L 153.905 192.600 153.913 191.200 C 153.917 190.430,153.776 189.350,153.600 188.800 C 153.289 187.830,153.280 187.835,153.287 189.000 M199.288 192.400 C 199.272 193.830,199.403 195.810,199.580 196.800 L 199.900 198.600 199.907 196.600 C 199.910 195.500,199.779 193.520,199.615 192.200 L 199.318 189.800 199.288 192.400 M136.070 192.000 C 136.052 193.500,137.515 200.786,137.561 199.424 C 137.601 198.221,136.981 194.349,136.404 192.200 C 136.111 191.108,136.081 191.090,136.070 192.000 M154.051 193.800 C 154.048 194.240,154.195 195.320,154.377 196.200 L 154.708 197.800 154.726 196.200 C 154.736 195.320,154.589 194.240,154.400 193.800 L 154.056 193.000 154.051 193.800 M182.093 196.800 C 182.086 198.230,182.224 199.850,182.400 200.400 C 182.841 201.776,182.853 198.988,182.418 196.200 L 182.107 194.200 182.093 196.800 M154.825 198.633 C 154.839 199.055,155.192 201.200,155.610 203.400 C 156.394 207.527,156.418 205.419,155.641 200.663 C 155.264 198.356,154.777 197.144,154.825 198.633 M199.484 201.558 C 198.005 209.888,186.242 210.723,183.334 202.704 C 182.980 201.729,182.853 201.613,182.830 202.244 C 182.784 203.528,185.408 207.200,186.371 207.200 C 186.607 207.200,186.800 207.344,186.800 207.520 C 186.800 208.671,192.200 209.177,194.451 208.236 C 197.580 206.929,200.164 203.569,199.925 201.119 C 199.801 199.845,199.785 199.860,199.484 201.558 M137.641 201.248 C 137.586 202.114,138.679 208.545,139.263 210.800 C 140.091 213.994,143.303 217.240,145.560 217.166 L 146.600 217.131 145.587 216.824 C 141.464 215.571,139.868 213.026,138.800 206.000 C 138.293 202.668,137.704 200.251,137.641 201.248 M156.064 209.520 C 155.917 213.471,152.544 216.587,147.600 217.339 C 146.764 217.466,146.805 217.500,147.850 217.546 C 152.350 217.742,156.797 213.346,156.296 209.196 C 156.138 207.881,156.124 207.900,156.064 209.520 " stroke="none" fill="#fcd65f" fill-rule="evenodd"></path><path id="path4" d="M182.433 95.347 C 182.525 95.428,183.320 95.614,184.200 95.762 C 185.346 95.954,185.630 95.914,185.200 95.621 C 184.660 95.253,182.032 94.993,182.433 95.347 M232.800 95.600 C 232.005 96.114,233.004 96.114,234.200 95.600 L 235.000 95.256 234.200 95.234 C 233.760 95.222,233.130 95.387,232.800 95.600 M235.600 95.600 C 235.930 95.813,236.470 95.988,236.800 95.988 C 237.333 95.988,237.333 95.945,236.800 95.600 C 236.470 95.387,235.930 95.212,235.600 95.212 C 235.067 95.212,235.067 95.255,235.600 95.600 M284.400 95.612 C 283.981 95.891,284.342 95.933,285.600 95.750 C 287.841 95.425,288.160 95.198,286.367 95.206 C 285.615 95.209,284.730 95.392,284.400 95.612 M126.089 96.665 C 125.368 97.020,124.843 97.377,124.924 97.457 C 125.095 97.628,127.600 96.424,127.600 96.171 C 127.600 95.929,127.547 95.946,126.089 96.665 M176.894 97.212 C 176.175 97.865,175.725 98.393,175.894 98.384 C 176.352 98.359,179.031 95.998,178.585 96.012 C 178.373 96.018,177.612 96.558,176.894 97.212 M229.200 97.236 L 227.800 98.451 229.500 97.372 C 230.435 96.779,231.200 96.228,231.200 96.147 C 231.200 95.740,230.460 96.143,229.200 97.236 M238.400 96.147 C 238.400 96.228,239.165 96.779,240.100 97.372 L 241.800 98.451 240.400 97.236 C 239.140 96.143,238.400 95.740,238.400 96.147 M332.808 97.792 C 331.841 98.777,331.129 99.632,331.225 99.692 C 331.321 99.751,332.258 98.945,333.306 97.900 C 334.355 96.855,335.068 96.000,334.890 96.000 C 334.712 96.000,333.775 96.806,332.808 97.792 M345.051 97.860 C 346.123 98.927,347.078 99.752,347.173 99.694 C 347.426 99.539,344.728 96.804,343.851 96.327 C 343.440 96.103,343.980 96.793,345.051 97.860 M136.581 98.338 C 137.451 99.252,138.224 100.000,138.300 100.000 C 138.636 100.000,136.947 98.084,136.023 97.416 C 135.420 96.980,135.649 97.359,136.581 98.338 M280.200 98.265 C 279.135 99.549,278.117 101.264,279.051 100.200 C 279.244 99.980,280.022 99.125,280.780 98.300 C 281.537 97.475,281.987 96.804,281.778 96.809 C 281.570 96.814,280.860 97.470,280.200 98.265 M189.806 99.312 C 190.192 99.924,190.609 100.324,190.732 100.201 C 190.855 100.078,190.539 99.578,190.030 99.089 L 189.104 98.200 189.806 99.312 M243.440 103.066 C 243.808 104.599,244.000 104.744,244.000 103.490 C 244.000 102.917,243.813 102.332,243.584 102.190 C 243.311 102.021,243.262 102.323,243.440 103.066 M139.280 103.000 C 139.280 103.440,139.424 104.250,139.600 104.800 C 139.854 105.592,139.920 105.633,139.920 105.000 C 139.920 104.560,139.776 103.750,139.600 103.200 C 139.346 102.408,139.280 102.367,139.280 103.000 M173.443 103.433 C 173.121 104.270,173.182 106.410,173.553 107.356 C 173.728 107.803,173.850 107.025,173.850 105.456 C 173.850 102.613,173.818 102.455,173.443 103.433 M295.743 104.883 C 295.760 106.139,295.912 106.949,296.081 106.683 C 296.467 106.075,296.441 104.447,296.028 103.400 C 295.822 102.876,295.724 103.387,295.743 104.883 M277.476 105.210 C 277.330 105.755,277.227 106.650,277.246 107.200 C 277.271 107.918,277.384 107.757,277.649 106.627 C 278.055 104.895,277.900 103.625,277.476 105.210 M329.246 105.667 C 329.221 106.034,329.096 106.664,328.970 107.067 C 328.752 107.762,328.763 107.763,329.197 107.087 C 329.448 106.696,329.573 106.066,329.473 105.687 C 329.311 105.068,329.288 105.066,329.246 105.667 M191.647 106.676 C 191.784 108.768,192.304 109.835,192.353 108.124 C 192.379 107.202,192.220 106.336,192.000 106.200 C 191.780 106.064,191.621 106.278,191.647 106.676 M121.606 108.233 C 121.609 108.875,121.796 109.670,122.021 110.000 C 122.314 110.430,122.354 110.146,122.162 109.000 C 121.830 107.016,121.598 106.696,121.606 108.233 M140.056 108.000 C 140.056 108.330,140.211 108.960,140.400 109.400 C 140.617 109.904,140.744 109.978,140.744 109.600 C 140.744 109.270,140.589 108.640,140.400 108.200 C 140.183 107.696,140.056 107.622,140.056 108.000 M346.846 110.267 C 346.821 110.524,346.684 111.064,346.541 111.467 C 346.340 112.036,346.394 112.097,346.779 111.742 C 347.052 111.491,347.189 110.951,347.084 110.542 C 346.979 110.134,346.872 110.010,346.846 110.267 M295.264 111.250 C 295.229 111.608,295.098 112.508,294.973 113.250 C 294.788 114.355,294.829 114.471,295.198 113.891 C 295.446 113.502,295.577 112.602,295.489 111.891 C 295.400 111.181,295.299 110.892,295.264 111.250 M122.400 113.110 C 122.400 113.793,122.577 114.462,122.794 114.596 C 123.040 114.748,123.094 114.345,122.937 113.520 C 122.600 111.751,122.400 111.599,122.400 113.110 M174.006 113.633 C 174.009 114.605,174.194 115.670,174.416 116.000 C 174.697 116.418,174.739 115.933,174.555 114.400 C 174.225 111.647,173.998 111.329,174.006 113.633 M276.673 112.553 C 276.523 112.945,276.416 113.746,276.436 114.333 C 276.470 115.328,276.498 115.309,276.857 114.063 C 277.273 112.619,277.123 111.382,276.673 112.553 M140.834 112.800 C 140.846 113.130,141.011 113.760,141.200 114.200 L 141.544 115.000 141.566 114.200 C 141.578 113.760,141.413 113.130,141.200 112.800 C 140.855 112.267,140.815 112.267,140.834 112.800 M346.046 113.467 C 346.021 113.724,345.884 114.264,345.741 114.667 C 345.540 115.236,345.594 115.297,345.979 114.942 C 346.252 114.691,346.389 114.151,346.284 113.742 C 346.179 113.334,346.072 113.210,346.046 113.467 M192.635 116.200 C 192.782 117.300,192.969 118.275,193.051 118.367 C 193.410 118.768,193.146 115.339,192.777 114.800 C 192.486 114.374,192.445 114.780,192.635 116.200 M123.200 118.110 C 123.200 118.683,123.387 119.268,123.616 119.410 C 123.889 119.579,123.938 119.277,123.760 118.534 C 123.392 117.001,123.200 116.856,123.200 118.110 M141.840 118.666 C 142.208 120.199,142.400 120.344,142.400 119.090 C 142.400 118.517,142.213 117.932,141.984 117.790 C 141.711 117.621,141.662 117.923,141.840 118.666 M294.462 118.400 C 294.422 118.950,294.277 119.850,294.140 120.400 C 293.949 121.168,294.003 121.296,294.373 120.953 C 294.651 120.694,294.787 119.850,294.695 118.953 C 294.604 118.074,294.503 117.834,294.462 118.400 M275.867 119.467 C 275.720 119.613,275.618 120.378,275.640 121.167 L 275.680 122.600 276.046 121.040 C 276.415 119.468,276.359 118.975,275.867 119.467 M344.446 119.867 C 344.421 120.124,344.284 120.664,344.141 121.067 C 343.940 121.636,343.994 121.697,344.379 121.342 C 344.652 121.091,344.789 120.551,344.684 120.142 C 344.579 119.734,344.472 119.610,344.446 119.867 M174.806 122.633 C 174.809 123.495,174.997 124.470,175.223 124.800 C 175.514 125.226,175.555 124.820,175.365 123.400 C 175.031 120.903,174.798 120.584,174.806 122.633 M124.034 122.600 C 124.022 123.040,124.187 123.670,124.400 124.000 C 124.914 124.795,124.914 123.796,124.400 122.600 L 124.056 121.800 124.034 122.600 M142.428 122.676 C 142.518 123.715,143.144 124.596,143.172 123.724 C 143.187 123.242,143.020 122.736,142.800 122.600 C 142.580 122.464,142.413 122.498,142.428 122.676 M343.646 123.067 C 343.621 123.324,343.484 123.864,343.341 124.267 C 343.140 124.836,343.194 124.897,343.579 124.542 C 343.852 124.291,343.989 123.751,343.884 123.342 C 343.779 122.934,343.672 122.810,343.646 123.067 M193.445 125.200 C 193.590 126.410,193.774 127.475,193.854 127.567 C 194.207 127.970,193.946 124.138,193.584 123.600 C 193.303 123.182,193.261 123.667,193.445 125.200 M293.659 125.600 C 293.620 126.150,293.489 127.050,293.367 127.600 C 293.176 128.462,293.208 128.502,293.597 127.891 C 293.846 127.502,293.977 126.602,293.889 125.891 C 293.764 124.887,293.713 124.822,293.659 125.600 M275.067 126.667 C 274.920 126.813,274.816 127.488,274.836 128.167 L 274.872 129.400 275.259 128.056 C 275.645 126.713,275.569 126.164,275.067 126.667 M124.828 127.676 C 124.813 128.268,124.980 128.864,125.200 129.000 C 125.678 129.295,125.678 128.511,125.200 127.400 C 124.893 126.686,124.853 126.715,124.828 127.676 M143.440 128.266 C 143.808 129.799,144.000 129.944,144.000 128.690 C 144.000 128.117,143.813 127.532,143.584 127.390 C 143.311 127.221,143.262 127.523,143.440 128.266 M175.606 131.033 C 175.609 131.895,175.797 132.870,176.023 133.200 C 176.314 133.626,176.355 133.220,176.165 131.800 C 175.831 129.303,175.598 128.984,175.606 131.033 M125.628 132.276 C 125.613 132.758,125.780 133.264,126.000 133.400 C 126.473 133.692,126.473 133.301,126.000 132.200 C 125.669 131.429,125.655 131.431,125.628 132.276 M144.046 132.000 C 144.065 132.330,144.224 133.050,144.400 133.600 L 144.720 134.600 144.754 133.600 C 144.773 133.050,144.613 132.330,144.400 132.000 C 144.055 131.467,144.016 131.467,144.046 132.000 M194.276 133.800 C 194.405 135.120,194.576 136.275,194.656 136.367 C 194.963 136.721,194.725 132.957,194.392 132.200 C 194.169 131.692,194.126 132.276,194.276 133.800 M292.854 132.800 C 292.819 133.130,292.677 133.850,292.540 134.400 C 292.348 135.172,292.402 135.297,292.777 134.949 C 293.044 134.701,293.185 133.981,293.091 133.349 C 292.997 132.717,292.890 132.470,292.854 132.800 M274.273 133.753 C 274.123 134.145,274.018 135.036,274.040 135.733 C 274.079 136.967,274.090 136.959,274.449 135.427 C 274.845 133.737,274.724 132.579,274.273 133.753 M126.428 137.076 C 126.413 137.558,126.580 138.064,126.800 138.200 C 127.273 138.492,127.273 138.101,126.800 137.000 C 126.469 136.229,126.455 136.231,126.428 137.076 M144.828 136.876 C 144.896 138.144,145.542 139.054,145.572 137.924 C 145.587 137.332,145.420 136.736,145.200 136.600 C 144.980 136.464,144.813 136.588,144.828 136.876 M176.406 139.833 C 176.409 140.695,176.597 141.670,176.823 142.000 C 177.114 142.426,177.155 142.020,176.965 140.600 C 176.631 138.103,176.398 137.784,176.406 139.833 M339.400 140.000 C 339.248 140.691,339.207 141.341,339.309 141.442 C 339.411 141.544,339.609 141.053,339.750 140.350 C 340.083 138.683,339.760 138.360,339.400 140.000 M292.059 139.800 C 292.020 140.240,291.877 141.050,291.740 141.600 C 291.548 142.370,291.602 142.497,291.975 142.151 C 292.244 141.901,292.385 141.103,292.293 140.351 C 292.202 139.608,292.097 139.360,292.059 139.800 M195.045 142.400 C 195.190 143.610,195.374 144.675,195.454 144.767 C 195.807 145.170,195.546 141.338,195.184 140.800 C 194.903 140.382,194.861 140.867,195.045 142.400 M273.449 141.015 C 273.312 141.373,273.220 142.236,273.244 142.933 C 273.282 144.037,273.333 143.971,273.636 142.425 C 273.993 140.605,273.894 139.857,273.449 141.015 M320.249 141.415 C 320.112 141.773,320.015 142.366,320.034 142.733 C 320.053 143.100,320.227 142.869,320.421 142.220 C 320.798 140.958,320.665 140.333,320.249 141.415 M127.234 141.800 C 127.222 142.240,127.387 142.870,127.600 143.200 C 128.114 143.995,128.114 142.996,127.600 141.800 L 127.256 141.000 127.234 141.800 M145.863 142.480 C 146.200 144.249,146.400 144.401,146.400 142.890 C 146.400 142.207,146.223 141.538,146.006 141.404 C 145.760 141.252,145.706 141.655,145.863 142.480 M338.649 143.015 C 338.512 143.373,338.415 143.966,338.434 144.333 C 338.453 144.700,338.627 144.469,338.821 143.820 C 339.198 142.558,339.065 141.933,338.649 143.015 M319.449 144.615 C 319.312 144.973,319.215 145.566,319.234 145.933 C 319.253 146.300,319.427 146.069,319.621 145.420 C 319.998 144.158,319.865 143.533,319.449 144.615 M337.849 146.215 C 337.712 146.573,337.615 147.166,337.634 147.533 C 337.653 147.900,337.827 147.669,338.021 147.020 C 338.398 145.758,338.265 145.133,337.849 146.215 M128.028 146.676 C 128.013 147.158,128.180 147.664,128.400 147.800 C 128.873 148.092,128.873 147.701,128.400 146.600 C 128.069 145.829,128.055 145.831,128.028 146.676 M146.663 147.280 C 147.000 149.049,147.200 149.201,147.200 147.690 C 147.200 147.007,147.023 146.338,146.806 146.204 C 146.560 146.052,146.506 146.455,146.663 147.280 M291.022 148.222 C 290.872 149.025,290.838 149.772,290.948 149.882 C 291.058 149.992,291.272 149.425,291.422 148.622 C 291.573 147.819,291.606 147.073,291.496 146.963 C 291.386 146.853,291.173 147.419,291.022 148.222 M272.656 148.084 C 272.521 148.588,272.430 149.630,272.452 150.400 C 272.486 151.534,272.562 151.389,272.852 149.639 C 273.220 147.425,273.096 146.443,272.656 148.084 M318.649 147.815 C 318.512 148.173,318.418 148.856,318.441 149.333 C 318.467 149.881,318.603 149.686,318.810 148.803 C 319.160 147.316,319.065 146.733,318.649 147.815 M177.287 148.600 C 177.283 149.260,177.424 150.250,177.600 150.800 L 177.920 151.800 177.913 150.800 C 177.909 150.250,177.768 149.260,177.600 148.600 L 177.295 147.400 177.287 148.600 M195.872 151.400 C 196.002 152.940,196.175 154.275,196.255 154.367 C 196.567 154.725,196.323 150.153,195.989 149.400 C 195.765 148.895,195.722 149.634,195.872 151.400 M336.984 149.853 C 336.843 150.484,336.580 151.540,336.400 152.200 C 335.775 154.485,335.536 155.797,335.791 155.542 C 336.136 155.198,337.615 149.082,337.405 148.872 C 337.314 148.780,337.124 149.222,336.984 149.853 M129.072 152.200 C 129.199 153.300,129.369 154.275,129.451 154.367 C 129.732 154.682,129.520 152.199,129.180 151.200 C 128.951 150.526,128.916 150.851,129.072 152.200 M147.438 151.800 C 147.770 153.784,148.002 154.104,147.994 152.567 C 147.991 151.925,147.804 151.130,147.579 150.800 C 147.286 150.370,147.246 150.654,147.438 151.800 M317.849 151.015 C 317.712 151.373,317.618 152.056,317.641 152.533 C 317.667 153.081,317.803 152.886,318.010 152.003 C 318.360 150.516,318.265 149.933,317.849 151.015 M290.254 155.154 C 290.100 156.118,290.058 156.991,290.161 157.094 C 290.430 157.363,290.915 154.545,290.707 153.922 C 290.612 153.636,290.408 154.190,290.254 155.154 M317.067 153.867 C 316.920 154.013,316.818 154.688,316.841 155.367 L 316.882 156.600 317.210 155.203 C 317.553 153.747,317.517 153.416,317.067 153.867 M271.849 155.015 C 271.712 155.373,271.621 156.416,271.647 157.333 C 271.693 158.984,271.697 158.979,272.052 156.839 C 272.412 154.670,272.315 153.801,271.849 155.015 M148.250 156.800 C 148.575 159.041,148.802 159.360,148.794 157.567 C 148.791 156.815,148.608 155.930,148.388 155.600 C 148.109 155.181,148.067 155.542,148.250 156.800 M129.873 157.200 C 130.004 158.190,130.176 159.075,130.256 159.167 C 130.557 159.514,130.328 156.964,129.990 156.200 C 129.753 155.666,129.714 155.998,129.873 157.200 M178.028 157.233 C 178.044 157.985,178.220 158.960,178.420 159.400 C 178.665 159.939,178.705 159.546,178.541 158.200 C 178.251 155.819,177.989 155.324,178.028 157.233 M335.254 156.867 C 335.225 157.234,335.084 157.864,334.941 158.267 C 334.741 158.833,334.795 158.896,335.175 158.546 C 335.446 158.297,335.587 157.667,335.488 157.146 C 335.390 156.626,335.284 156.500,335.254 156.867 M316.249 157.415 C 316.112 157.773,316.018 158.456,316.041 158.933 C 316.067 159.481,316.203 159.286,316.410 158.403 C 316.760 156.916,316.665 156.333,316.249 157.415 M196.682 160.000 C 196.808 161.430,196.977 162.675,197.056 162.767 C 197.361 163.120,197.126 158.958,196.798 158.200 C 196.584 157.705,196.540 158.390,196.682 160.000 M334.454 159.867 C 334.425 160.344,334.296 161.064,334.170 161.467 C 333.952 162.161,333.964 162.162,334.396 161.488 C 334.647 161.097,334.775 160.377,334.681 159.888 C 334.509 159.001,334.509 159.001,334.454 159.867 M130.475 160.600 C 130.486 161.040,130.632 161.940,130.800 162.600 L 131.105 163.800 131.125 162.600 C 131.135 161.940,130.989 161.040,130.800 160.600 L 130.456 159.800 130.475 160.600 M149.050 161.600 C 149.375 163.841,149.602 164.160,149.594 162.367 C 149.591 161.615,149.408 160.730,149.188 160.400 C 148.909 159.981,148.867 160.342,149.050 161.600 M315.464 160.700 C 314.969 162.525,314.808 163.768,315.139 163.200 C 315.534 162.525,316.068 160.000,315.817 160.000 C 315.727 160.000,315.569 160.315,315.464 160.700 M289.472 162.204 C 289.327 163.082,289.230 164.430,289.255 165.200 C 289.284 166.078,289.429 165.630,289.644 164.000 C 290.024 161.115,289.887 159.689,289.472 162.204 M271.049 162.215 C 270.912 162.573,270.822 163.616,270.850 164.533 C 270.898 166.131,270.913 166.110,271.218 164.002 C 271.547 161.734,271.485 161.081,271.049 162.215 M333.654 163.067 C 333.625 163.544,333.496 164.264,333.370 164.667 C 333.152 165.361,333.164 165.362,333.596 164.688 C 333.847 164.297,333.975 163.577,333.881 163.088 C 333.709 162.201,333.709 162.201,333.654 163.067 M314.454 164.667 C 314.425 165.144,314.296 165.864,314.170 166.267 C 313.952 166.961,313.964 166.962,314.396 166.288 C 314.647 165.897,314.775 165.177,314.681 164.688 C 314.509 163.801,314.509 163.801,314.454 164.667 M179.089 167.800 C 179.208 169.780,179.372 171.475,179.453 171.567 C 179.724 171.874,179.544 167.819,179.206 166.000 C 178.970 164.731,178.936 165.263,179.089 167.800 M149.896 166.646 C 150.012 167.721,150.172 168.675,150.253 168.767 C 150.572 169.129,150.365 165.765,150.037 165.246 C 149.822 164.907,149.768 165.451,149.896 166.646 M131.488 167.200 C 131.615 168.410,131.859 169.760,132.030 170.200 C 132.201 170.640,132.238 170.010,132.112 168.800 C 131.985 167.590,131.741 166.240,131.570 165.800 C 131.399 165.360,131.362 165.990,131.488 167.200 M197.472 168.600 C 197.602 170.140,197.775 171.475,197.855 171.567 C 198.167 171.925,197.923 167.353,197.589 166.600 C 197.365 166.095,197.322 166.834,197.472 168.600 M332.854 166.467 C 332.825 166.834,332.684 167.464,332.541 167.867 C 332.341 168.433,332.395 168.496,332.775 168.146 C 333.046 167.897,333.187 167.267,333.088 166.746 C 332.990 166.226,332.884 166.100,332.854 166.467 M313.646 168.067 C 313.621 168.434,313.496 169.064,313.370 169.467 C 313.152 170.162,313.163 170.163,313.597 169.487 C 313.848 169.096,313.973 168.466,313.873 168.087 C 313.711 167.468,313.688 167.466,313.646 168.067 M288.672 169.404 C 288.527 170.282,288.430 171.630,288.455 172.400 C 288.484 173.278,288.629 172.830,288.844 171.200 C 289.224 168.315,289.087 166.889,288.672 169.404 M270.256 169.284 C 270.121 169.788,270.032 171.100,270.058 172.200 C 270.102 174.070,270.126 174.019,270.428 171.409 C 270.760 168.542,270.689 167.667,270.256 169.284 M332.046 169.667 C 332.021 170.034,331.896 170.664,331.770 171.067 C 331.552 171.762,331.563 171.763,331.997 171.087 C 332.248 170.696,332.373 170.066,332.273 169.687 C 332.111 169.068,332.088 169.066,332.046 169.667 M150.659 171.400 C 150.799 172.500,150.977 173.475,151.056 173.567 C 151.399 173.964,151.150 170.541,150.797 170.000 C 150.530 169.590,150.486 170.035,150.659 171.400 M312.644 172.500 C 312.509 173.435,312.549 174.740,312.734 175.400 C 312.996 176.335,313.072 175.959,313.076 173.700 C 313.083 170.368,312.991 170.111,312.644 172.500 M132.501 172.600 C 132.505 173.480,132.587 173.793,132.683 173.295 C 132.779 172.798,132.775 172.078,132.675 171.695 C 132.575 171.313,132.496 171.720,132.501 172.600 M331.246 172.867 C 331.221 173.234,331.096 173.864,330.970 174.267 C 330.752 174.962,330.763 174.963,331.197 174.287 C 331.448 173.896,331.573 173.266,331.473 172.887 C 331.311 172.268,331.288 172.266,331.246 172.867 M179.887 176.600 C 180.008 178.360,180.174 179.875,180.254 179.967 C 180.533 180.285,180.352 176.590,180.010 175.000 C 179.763 173.851,179.729 174.302,179.887 176.600 M151.488 176.000 C 151.611 177.210,151.777 178.275,151.856 178.367 C 152.153 178.711,151.930 175.367,151.604 174.600 C 151.392 174.102,151.349 174.631,151.488 176.000 M198.294 177.800 C 198.414 179.560,198.577 181.075,198.656 181.167 C 198.941 181.496,198.713 176.578,198.398 175.600 C 198.213 175.023,198.169 175.954,198.294 177.800 M287.869 176.356 C 287.721 177.095,287.622 178.353,287.649 179.150 C 287.686 180.249,287.782 180.018,288.048 178.200 C 288.431 175.571,288.299 174.205,287.869 176.356 M269.456 176.484 C 269.321 176.988,269.231 178.210,269.256 179.200 C 269.297 180.824,269.334 180.747,269.635 178.418 C 269.978 175.771,269.893 174.854,269.456 176.484 M133.228 177.433 C 133.244 178.295,133.409 179.360,133.596 179.800 C 133.808 180.298,133.851 179.769,133.712 178.400 C 133.444 175.765,133.189 175.257,133.228 177.433 M313.782 178.300 C 314.782 180.127,317.243 182.400,318.222 182.400 C 318.386 182.400,317.761 181.850,316.834 181.179 C 315.906 180.507,314.782 179.337,314.334 178.579 C 313.370 176.944,312.913 176.714,313.782 178.300 M327.694 180.412 C 326.975 181.065,326.537 181.600,326.719 181.600 C 326.901 181.600,327.568 181.060,328.200 180.400 C 329.670 178.865,329.386 178.872,327.694 180.412 M152.428 181.833 C 152.444 182.695,152.609 183.760,152.796 184.200 C 153.008 184.698,153.051 184.169,152.912 182.800 C 152.644 180.165,152.389 179.657,152.428 181.833 M134.028 182.233 C 134.044 183.095,134.209 184.160,134.396 184.600 C 134.608 185.098,134.651 184.569,134.512 183.200 C 134.244 180.565,133.989 180.057,134.028 182.233 M180.679 185.200 C 180.802 187.070,180.970 188.675,181.051 188.767 C 181.339 189.089,181.150 184.982,180.805 183.400 C 180.556 182.257,180.520 182.772,180.679 185.200 M319.740 182.894 C 320.338 183.276,323.663 183.275,324.264 182.892 C 324.520 182.730,323.503 182.598,322.004 182.598 C 320.506 182.599,319.487 182.732,319.740 182.894 M269.200 184.176 C 269.200 184.933,269.338 185.638,269.507 185.743 C 269.676 185.847,269.748 185.228,269.665 184.366 C 269.481 182.432,269.200 182.318,269.200 184.176 M199.082 186.600 C 199.208 188.360,199.377 189.875,199.456 189.967 C 199.764 190.323,199.524 184.955,199.198 184.200 C 198.989 183.716,198.943 184.662,199.082 186.600 M286.704 185.041 C 286.561 185.723,285.777 187.163,284.961 188.241 C 284.146 189.318,283.885 189.840,284.381 189.400 C 285.662 188.265,287.290 185.352,287.114 184.511 C 287.016 184.044,286.875 184.226,286.704 185.041 M153.301 186.600 C 153.305 187.480,153.387 187.793,153.483 187.295 C 153.579 186.798,153.575 186.078,153.475 185.695 C 153.375 185.313,153.296 185.720,153.301 186.600 M134.806 187.033 C 134.809 187.895,134.988 188.870,135.203 189.200 C 135.470 189.610,135.514 189.165,135.341 187.800 C 135.025 185.305,134.798 184.981,134.806 187.033 M135.606 192.033 C 135.609 192.785,135.777 193.661,135.979 193.979 C 136.216 194.354,136.265 193.930,136.118 192.779 C 135.835 190.570,135.598 190.225,135.606 192.033 M154.075 191.800 C 154.065 192.460,154.211 193.360,154.400 193.800 L 154.744 194.600 154.725 193.800 C 154.714 193.360,154.568 192.460,154.400 191.800 L 154.095 190.600 154.075 191.800 M243.654 191.667 C 243.625 192.034,243.484 192.664,243.341 193.067 C 243.141 193.633,243.195 193.696,243.575 193.346 C 243.846 193.097,243.987 192.467,243.888 191.946 C 243.790 191.426,243.684 191.300,243.654 191.667 M225.628 192.276 C 225.613 192.758,225.780 193.264,226.000 193.400 C 226.473 193.692,226.473 193.301,226.000 192.200 C 225.669 191.429,225.655 191.431,225.628 192.276 M199.795 197.459 C 199.798 200.572,199.935 203.036,200.100 202.936 C 200.458 202.717,200.416 194.713,200.047 193.000 C 199.905 192.340,199.792 194.347,199.795 197.459 M181.734 196.400 C 181.734 198.050,181.805 198.725,181.891 197.900 C 181.978 197.075,181.978 195.725,181.891 194.900 C 181.805 194.075,181.734 194.750,181.734 196.400 M136.406 196.833 C 136.409 197.585,136.592 198.470,136.812 198.800 C 137.091 199.219,137.133 198.858,136.950 197.600 C 136.625 195.359,136.398 195.040,136.406 196.833 M154.875 196.600 C 154.865 197.260,155.011 198.160,155.200 198.600 L 155.544 199.400 155.525 198.600 C 155.514 198.160,155.368 197.260,155.200 196.600 L 154.895 195.400 154.875 196.600 M227.200 196.317 C 227.200 198.001,231.811 200.400,235.048 200.400 C 238.077 200.400,242.374 197.937,242.375 196.200 C 242.375 195.980,242.004 196.297,241.551 196.905 C 238.595 200.866,232.063 201.099,228.545 197.369 C 227.805 196.585,227.200 196.111,227.200 196.317 M182.257 201.200 C 182.548 203.579,185.600 208.737,185.600 206.849 C 185.600 206.602,185.465 206.399,185.300 206.397 C 184.681 206.392,183.103 203.561,182.580 201.518 C 182.038 199.403,182.037 199.402,182.257 201.200 M155.628 201.033 C 155.644 201.675,155.816 202.560,156.010 203.000 C 156.247 203.534,156.286 203.202,156.127 202.000 C 155.846 199.880,155.588 199.380,155.628 201.033 M137.206 201.633 C 137.209 202.385,137.392 203.270,137.612 203.600 C 137.891 204.019,137.933 203.658,137.750 202.400 C 137.425 200.159,137.198 199.840,137.206 201.633 M198.492 205.029 C 197.997 205.783,197.672 206.400,197.769 206.400 C 198.047 206.400,199.704 203.971,199.539 203.806 C 199.457 203.724,198.986 204.274,198.492 205.029 M138.000 206.710 C 138.000 207.393,138.177 208.062,138.394 208.196 C 138.640 208.348,138.694 207.945,138.537 207.120 C 138.200 205.351,138.000 205.199,138.000 206.710 M156.462 208.600 L 156.500 211.000 156.801 209.200 C 156.966 208.210,156.949 207.130,156.763 206.800 C 156.552 206.426,156.439 207.103,156.462 208.600 M153.715 215.210 C 152.789 216.085,152.167 216.800,152.334 216.800 C 152.501 216.800,153.341 216.080,154.200 215.200 C 156.210 213.141,155.900 213.148,153.715 215.210 M144.352 217.312 C 144.545 217.505,145.219 217.598,145.851 217.519 C 146.909 217.387,146.881 217.359,145.500 217.168 C 144.640 217.049,144.150 217.110,144.352 217.312 " stroke="none" fill="#fccc30" fill-rule="evenodd"></path></g></svg>