<svg id="svg" version="1.1" xmlns="http://www.w3.org/2000/svg" xmlns:xlink="http://www.w3.org/1999/xlink" width="400" height="400" viewBox="0, 0, 400,400"><g id="svgg"><path id="path0" d="M264.804 83.020 C 264.807 83.449,265.083 84.700,265.418 85.800 C 265.754 86.900,266.291 89.150,266.613 90.800 C 266.934 92.450,267.372 94.700,267.586 95.800 C 268.205 98.989,268.769 103.837,269.097 108.800 C 269.790 119.292,269.011 366.415,268.277 368.800 C 267.026 372.867,266.212 374.986,264.902 377.581 C 263.585 380.191,263.269 381.600,264.000 381.600 C 264.220 381.600,264.400 381.420,264.400 381.200 C 264.400 380.980,264.760 380.800,265.200 380.800 C 265.640 380.800,266.000 380.620,266.000 380.400 C 266.000 380.180,266.236 380.000,266.525 380.000 C 266.813 380.000,267.436 379.640,267.908 379.200 C 268.380 378.760,269.044 378.400,269.383 378.400 C 269.722 378.400,270.000 378.220,270.000 378.000 C 270.000 377.780,270.360 377.600,270.800 377.600 C 271.240 377.600,271.600 377.420,271.600 377.200 C 271.600 376.980,271.870 376.800,272.200 376.800 C 272.530 376.800,272.800 376.620,272.800 376.400 C 272.800 376.180,273.070 376.000,273.400 376.000 C 273.730 376.000,274.001 375.865,274.001 375.700 C 274.002 375.535,274.812 375.067,275.801 374.660 C 276.791 374.254,277.600 373.759,277.600 373.560 C 277.600 373.362,277.960 373.200,278.400 373.200 C 278.840 373.200,279.200 373.020,279.200 372.800 C 279.200 372.580,279.560 372.400,280.000 372.400 C 280.440 372.400,280.800 372.220,280.800 372.000 C 280.800 371.780,281.036 371.600,281.325 371.600 C 281.613 371.600,282.236 371.240,282.708 370.800 C 283.180 370.360,283.844 370.000,284.183 370.000 C 284.522 370.000,284.800 369.820,284.800 369.600 C 284.800 369.380,285.160 369.200,285.600 369.200 C 286.040 369.200,286.400 369.020,286.400 368.800 C 286.400 368.580,286.670 368.400,287.000 368.400 C 287.330 368.400,287.600 368.220,287.600 368.000 C 287.600 367.780,287.870 367.600,288.200 367.600 C 288.530 367.600,288.800 367.420,288.800 367.200 C 288.800 366.980,289.160 366.800,289.600 366.800 C 290.040 366.800,290.400 366.620,290.400 366.400 C 290.400 366.180,290.670 366.000,291.000 366.000 C 291.330 366.000,291.600 365.820,291.600 365.600 C 291.600 365.380,291.836 365.200,292.125 365.200 C 292.413 365.200,293.036 364.840,293.508 364.400 C 293.980 363.960,294.644 363.600,294.983 363.600 C 295.322 363.600,295.600 363.420,295.600 363.200 C 295.600 362.980,295.920 362.800,296.312 362.800 C 296.703 362.800,297.283 362.440,297.600 362.000 C 297.917 361.560,298.497 361.200,298.888 361.200 C 299.280 361.200,299.600 361.020,299.600 360.800 C 299.600 360.580,299.960 360.400,300.400 360.400 C 300.840 360.400,301.202 360.265,301.205 360.100 C 301.207 359.935,301.972 359.444,302.905 359.010 C 305.138 357.968,308.565 355.914,308.733 355.516 C 308.807 355.342,309.212 355.200,309.633 355.200 C 310.055 355.200,310.400 355.020,310.400 354.800 C 310.400 354.580,310.720 354.400,311.112 354.400 C 311.503 354.400,312.083 354.040,312.400 353.600 C 312.717 353.160,313.297 352.800,313.688 352.800 C 314.080 352.800,314.400 352.620,314.400 352.400 C 314.400 352.180,314.760 352.000,315.200 352.000 C 315.640 352.000,316.000 351.820,316.000 351.600 C 316.000 351.380,316.320 351.200,316.712 351.200 C 317.103 351.200,317.683 350.840,318.000 350.400 C 318.317 349.960,318.897 349.600,319.288 349.600 C 319.680 349.600,320.000 349.420,320.000 349.200 C 320.000 348.980,320.360 348.800,320.800 348.800 C 321.240 348.800,321.600 348.620,321.600 348.400 C 321.600 348.180,321.870 348.000,322.200 348.000 C 322.530 348.000,322.800 347.820,322.800 347.600 C 322.800 347.380,323.070 347.200,323.400 347.200 C 323.730 347.200,324.000 347.020,324.000 346.800 C 324.000 346.580,324.270 346.400,324.600 346.400 C 324.930 346.400,325.200 346.220,325.200 346.000 C 325.200 345.780,325.560 345.600,326.000 345.600 C 326.440 345.600,326.800 345.420,326.800 345.200 C 326.800 344.980,327.036 344.800,327.325 344.800 C 327.613 344.800,328.236 344.440,328.708 344.000 C 329.180 343.560,329.844 343.200,330.183 343.200 C 330.522 343.200,330.800 343.020,330.800 342.800 C 330.800 342.580,331.083 342.400,331.429 342.400 C 331.774 342.400,332.327 342.130,332.657 341.800 C 332.987 341.470,333.604 341.200,334.029 341.200 C 334.453 341.200,334.803 341.065,334.806 340.900 C 334.810 340.735,335.710 340.160,336.806 339.621 C 337.903 339.083,338.800 338.532,338.800 338.396 C 338.800 338.260,339.430 337.902,340.200 337.600 C 340.970 337.298,341.600 336.904,341.600 336.725 C 341.600 336.546,341.836 336.400,342.125 336.400 C 342.413 336.400,343.036 336.040,343.508 335.600 C 343.980 335.160,344.644 334.800,344.983 334.800 C 345.322 334.800,345.600 334.620,345.600 334.400 C 345.600 334.180,345.878 334.000,346.217 334.000 C 346.556 334.000,347.220 333.640,347.692 333.200 C 348.164 332.760,348.787 332.400,349.075 332.400 C 349.364 332.400,349.600 332.220,349.600 332.000 C 349.600 331.780,349.960 331.600,350.400 331.600 C 350.840 331.600,351.200 331.420,351.200 331.200 C 351.200 330.980,351.436 330.800,351.725 330.800 C 352.013 330.800,352.636 330.440,353.108 330.000 C 353.580 329.560,354.244 329.200,354.583 329.200 C 354.922 329.200,355.200 329.064,355.200 328.898 C 355.200 328.731,355.785 328.340,356.500 328.028 C 357.215 327.716,358.091 327.132,358.447 326.730 C 358.803 326.329,359.388 326.000,359.747 326.000 C 360.106 326.000,360.400 325.838,360.400 325.639 C 360.400 325.441,360.906 325.102,361.524 324.886 C 362.143 324.671,362.908 324.242,363.224 323.934 C 363.541 323.626,364.430 322.936,365.200 322.401 C 366.850 321.255,370.800 317.253,370.800 316.728 C 370.800 316.528,371.250 315.914,371.800 315.364 C 372.350 314.814,372.800 314.205,372.800 314.010 C 372.800 313.816,373.047 313.410,373.348 313.109 C 374.105 312.353,375.200 310.170,375.200 309.420 C 375.200 309.079,375.380 308.800,375.600 308.800 C 375.820 308.800,376.000 308.440,376.000 308.000 C 376.000 307.560,376.180 307.200,376.400 307.200 C 376.620 307.200,376.800 306.750,376.800 306.200 C 376.800 305.650,376.980 305.200,377.200 305.200 C 377.420 305.200,377.600 304.660,377.600 304.000 C 377.600 303.340,377.780 302.800,378.000 302.800 C 378.220 302.800,378.400 302.080,378.400 301.200 C 378.400 300.320,378.580 299.600,378.800 299.600 C 379.022 299.600,379.200 298.533,379.200 297.200 C 379.200 295.867,379.378 294.800,379.600 294.800 C 379.841 294.800,380.000 293.141,380.000 290.624 C 380.000 288.271,379.825 286.339,379.600 286.200 C 379.380 286.064,379.200 284.793,379.200 283.376 C 379.200 281.925,379.025 280.800,378.800 280.800 C 378.580 280.800,378.400 280.170,378.400 279.400 C 378.400 278.630,378.220 278.000,378.000 278.000 C 377.780 278.000,377.600 277.460,377.600 276.800 C 377.600 276.140,377.420 275.600,377.200 275.600 C 376.980 275.600,376.800 275.240,376.800 274.800 C 376.800 274.360,376.620 274.000,376.400 274.000 C 376.180 274.000,376.000 273.640,376.000 273.200 C 376.000 272.760,375.820 272.400,375.600 272.400 C 375.380 272.400,375.200 272.061,375.200 271.647 C 375.200 271.232,374.868 270.806,374.462 270.700 C 374.013 270.583,372.115 267.708,369.614 263.354 C 367.354 259.419,365.166 255.615,364.752 254.900 C 364.339 254.185,363.621 252.925,363.157 252.100 C 362.694 251.275,362.180 250.420,362.015 250.200 C 361.850 249.980,361.173 248.810,360.511 247.600 C 359.848 246.390,357.009 241.440,354.201 236.600 C 349.093 227.797,348.297 226.420,346.800 223.800 C 345.440 221.420,344.622 220.002,341.052 213.838 C 339.154 210.558,337.600 207.826,337.600 207.767 C 337.600 207.707,336.700 206.192,335.600 204.400 C 334.500 202.608,333.600 201.072,333.600 200.988 C 333.600 200.904,333.035 199.882,332.344 198.718 C 331.162 196.724,330.780 196.065,328.800 192.600 C 328.360 191.830,327.661 190.615,327.246 189.900 C 324.763 185.621,316.173 170.789,315.547 169.700 C 315.136 168.985,314.440 167.770,314.000 167.000 C 313.560 166.230,312.862 165.015,312.449 164.300 C 312.036 163.585,308.322 157.150,304.197 150.000 C 300.072 142.850,296.383 136.460,296.000 135.800 C 293.579 131.628,281.760 111.152,281.107 110.000 C 280.671 109.230,280.180 108.420,280.015 108.200 C 279.850 107.980,279.174 106.810,278.513 105.600 C 271.741 93.209,264.797 81.772,264.804 83.020 " stroke="none" fill="#43436a" fill-rule="evenodd"></path><path id="path1" d="M190.800 0.262 C 190.800 0.470,191.475 0.881,192.300 1.177 C 198.166 3.279,211.019 10.542,217.400 15.360 C 218.500 16.190,219.929 17.259,220.576 17.735 C 225.856 21.617,235.080 30.546,240.272 36.800 C 243.297 40.445,249.556 49.010,249.916 50.000 C 250.036 50.330,250.640 51.346,251.257 52.257 C 254.145 56.522,262.400 74.137,262.400 76.037 C 262.400 76.655,264.052 80.000,266.135 83.600 C 268.439 87.582,269.307 89.088,270.400 91.000 C 271.882 93.594,272.681 94.978,276.283 101.200 C 278.257 104.610,280.327 108.210,280.884 109.200 C 281.441 110.190,282.843 112.620,284.000 114.600 C 287.067 119.851,287.590 120.766,288.917 123.200 C 289.576 124.410,290.252 125.580,290.419 125.800 C 290.804 126.307,300.501 143.060,302.111 146.000 C 302.773 147.210,303.450 148.380,303.615 148.600 C 303.780 148.820,304.294 149.675,304.757 150.500 C 305.798 152.353,306.528 153.621,309.190 158.200 C 310.341 160.180,311.692 162.520,312.193 163.400 C 313.405 165.531,321.907 180.277,322.801 181.800 C 323.189 182.460,326.521 188.220,330.205 194.600 C 333.890 200.980,337.221 206.740,337.608 207.400 C 337.994 208.060,339.653 210.940,341.293 213.800 C 342.934 216.660,346.307 222.510,348.790 226.800 C 351.273 231.090,353.641 235.185,354.052 235.900 C 354.464 236.615,355.136 237.785,355.548 238.500 C 355.959 239.215,358.952 244.390,362.199 250.000 C 365.446 255.610,368.645 261.190,369.309 262.400 C 369.972 263.610,370.650 264.780,370.815 265.000 C 370.980 265.220,371.477 266.050,371.920 266.845 C 372.363 267.640,372.967 268.720,373.262 269.245 C 374.134 270.794,375.200 271.319,375.200 270.200 C 375.200 269.870,375.380 269.600,375.600 269.600 C 375.820 269.600,376.000 269.150,376.000 268.600 C 376.000 268.050,376.180 267.600,376.400 267.600 C 376.620 267.600,376.800 267.240,376.800 266.800 C 376.800 266.360,376.980 266.000,377.200 266.000 C 377.420 266.000,377.600 265.651,377.600 265.224 C 377.600 264.797,377.780 264.336,378.000 264.200 C 378.220 264.064,378.400 263.513,378.400 262.976 C 378.400 262.439,378.580 262.000,378.800 262.000 C 379.020 262.000,379.200 261.638,379.200 261.195 C 379.200 260.752,379.359 260.077,379.553 259.695 C 379.748 259.313,380.129 258.460,380.400 257.800 C 380.671 257.140,381.052 256.287,381.247 255.905 C 381.441 255.523,381.600 254.848,381.600 254.405 C 381.600 253.962,381.780 253.600,382.000 253.600 C 382.220 253.600,382.400 253.060,382.400 252.400 C 382.400 251.740,382.580 251.200,382.800 251.200 C 383.020 251.200,383.200 250.748,383.200 250.195 C 383.200 249.642,383.358 248.877,383.551 248.495 C 384.140 247.328,384.800 244.992,384.800 244.072 C 384.800 243.592,384.980 243.200,385.200 243.200 C 385.420 243.200,385.600 242.671,385.600 242.024 C 385.600 241.377,385.761 240.748,385.958 240.626 C 386.295 240.418,386.417 239.858,387.032 235.700 C 387.171 234.765,387.445 234.000,387.642 234.000 C 387.839 234.000,388.000 233.201,388.000 232.224 C 388.000 231.247,388.180 230.336,388.400 230.200 C 388.620 230.064,388.800 229.189,388.800 228.256 C 388.800 227.323,388.963 226.389,389.163 226.180 C 389.363 225.971,389.628 224.900,389.752 223.800 C 390.224 219.625,390.727 216.150,391.055 214.800 C 391.499 212.973,391.499 169.827,391.055 168.000 C 390.868 167.230,390.562 165.430,390.375 164.000 C 390.189 162.570,389.848 160.320,389.618 159.000 C 389.388 157.680,389.086 155.741,388.948 154.692 C 388.810 153.642,388.540 152.686,388.348 152.568 C 388.157 152.450,388.000 151.553,388.000 150.576 C 388.000 149.599,387.820 148.800,387.600 148.800 C 387.380 148.800,387.200 148.091,387.200 147.224 C 387.200 146.357,387.020 145.536,386.800 145.400 C 386.580 145.264,386.400 144.544,386.400 143.800 C 386.400 143.056,386.220 142.336,386.000 142.200 C 385.780 142.064,385.600 141.423,385.600 140.776 C 385.600 140.129,385.420 139.600,385.200 139.600 C 384.980 139.600,384.800 138.981,384.800 138.224 C 384.800 137.467,384.620 136.736,384.400 136.600 C 384.180 136.464,384.000 135.823,384.000 135.176 C 384.000 134.529,383.820 134.000,383.600 134.000 C 383.380 134.000,383.200 133.460,383.200 132.800 C 383.200 132.140,383.020 131.600,382.800 131.600 C 382.580 131.600,382.400 131.060,382.400 130.400 C 382.400 129.740,382.220 129.200,382.000 129.200 C 381.780 129.200,381.600 128.761,381.600 128.224 C 381.600 127.687,381.420 127.136,381.200 127.000 C 380.980 126.864,380.800 126.313,380.800 125.776 C 380.800 125.239,380.620 124.800,380.400 124.800 C 380.180 124.800,380.000 124.451,380.000 124.024 C 380.000 123.597,379.820 123.136,379.600 123.000 C 379.380 122.864,379.200 122.313,379.200 121.776 C 379.200 121.239,379.020 120.800,378.800 120.800 C 378.580 120.800,378.400 120.361,378.400 119.824 C 378.400 119.287,378.220 118.736,378.000 118.600 C 377.780 118.464,377.600 118.003,377.600 117.576 C 377.600 117.149,377.420 116.800,377.200 116.800 C 376.980 116.800,376.800 116.440,376.800 116.000 C 376.800 115.560,376.620 115.200,376.400 115.200 C 376.180 115.200,376.000 114.750,376.000 114.200 C 376.000 113.650,375.820 113.200,375.600 113.200 C 375.380 113.200,375.199 112.885,375.198 112.500 C 375.196 112.115,374.926 111.284,374.598 110.654 C 374.269 110.024,374.000 109.259,374.000 108.954 C 374.000 108.649,373.820 108.400,373.600 108.400 C 373.380 108.400,373.200 108.055,373.200 107.633 C 373.200 107.212,373.065 106.807,372.900 106.733 C 372.468 106.541,370.800 103.228,370.800 102.562 C 370.800 102.253,370.620 102.000,370.400 102.000 C 370.180 102.000,370.000 101.640,370.000 101.200 C 370.000 100.760,369.820 100.400,369.600 100.400 C 369.380 100.400,369.200 100.040,369.200 99.600 C 369.200 99.160,369.020 98.800,368.800 98.800 C 368.580 98.800,368.400 98.530,368.400 98.200 C 368.400 97.870,368.220 97.600,368.000 97.600 C 367.780 97.600,367.600 97.330,367.600 97.000 C 367.600 96.670,367.420 96.400,367.200 96.400 C 366.980 96.400,366.800 96.055,366.800 95.633 C 366.800 95.212,366.665 94.807,366.500 94.733 C 366.045 94.531,364.400 92.090,364.400 91.616 C 364.400 91.387,364.220 91.200,364.000 91.200 C 363.780 91.200,363.600 90.880,363.600 90.488 C 363.600 90.097,363.240 89.517,362.800 89.200 C 362.360 88.883,362.000 88.303,362.000 87.912 C 362.000 87.520,361.850 87.200,361.668 87.200 C 361.485 87.200,361.080 86.705,360.768 86.100 C 360.455 85.495,360.063 84.820,359.896 84.600 C 359.729 84.380,358.579 82.670,357.341 80.800 C 356.102 78.930,354.630 76.905,354.070 76.300 C 353.509 75.695,353.174 75.200,353.325 75.200 C 353.476 75.200,352.879 74.458,352.000 73.552 C 351.120 72.645,350.400 71.741,350.400 71.541 C 350.400 71.342,349.590 70.369,348.600 69.379 C 347.610 68.389,346.800 67.432,346.800 67.252 C 346.800 67.072,345.810 65.902,344.600 64.653 C 343.390 63.404,342.400 62.301,342.400 62.204 C 342.400 62.106,341.522 61.120,340.450 60.013 C 339.377 58.906,338.545 58.000,338.600 58.000 C 338.656 58.000,337.542 56.830,336.126 55.400 C 334.710 53.970,333.353 52.800,333.109 52.800 C 332.866 52.800,332.778 52.689,332.914 52.552 C 333.227 52.240,332.514 51.562,331.114 50.840 C 330.516 50.532,330.122 50.127,330.237 49.940 C 330.353 49.753,330.272 49.600,330.059 49.600 C 329.845 49.600,328.573 48.520,327.232 47.200 C 325.892 45.880,324.701 44.800,324.587 44.800 C 324.402 44.800,322.379 43.065,320.972 41.700 C 320.689 41.425,320.264 41.200,320.029 41.200 C 319.793 41.200,319.600 41.020,319.600 40.800 C 319.600 40.580,319.418 40.400,319.196 40.400 C 318.974 40.400,318.228 39.860,317.537 39.200 C 316.846 38.540,316.078 38.000,315.829 38.000 C 315.580 38.000,315.117 37.640,314.800 37.200 C 314.483 36.760,313.983 36.400,313.688 36.400 C 313.385 36.400,313.277 36.199,313.438 35.938 C 313.609 35.662,313.549 35.585,313.288 35.746 C 313.048 35.894,312.398 35.562,311.844 35.008 C 311.290 34.453,310.624 34.000,310.365 34.000 C 310.106 34.000,309.603 33.685,309.247 33.299 C 308.402 32.384,303.782 29.200,303.298 29.200 C 303.092 29.200,302.598 28.840,302.200 28.400 C 301.802 27.960,301.234 27.600,300.938 27.600 C 300.642 27.600,300.400 27.420,300.400 27.200 C 300.400 26.980,300.040 26.800,299.600 26.800 C 299.160 26.800,298.800 26.632,298.800 26.427 C 298.800 26.047,297.246 25.377,296.700 25.521 C 296.535 25.564,296.400 25.420,296.400 25.200 C 296.400 24.980,296.080 24.800,295.688 24.800 C 295.297 24.800,294.717 24.440,294.400 24.000 C 294.083 23.560,293.503 23.200,293.112 23.200 C 292.720 23.200,292.400 23.054,292.400 22.875 C 292.400 22.696,291.770 22.302,291.000 22.000 C 290.230 21.698,289.600 21.304,289.600 21.125 C 289.600 20.946,289.366 20.800,289.080 20.800 C 288.344 20.800,286.407 19.859,286.403 19.500 C 286.401 19.335,286.040 19.200,285.600 19.200 C 285.160 19.200,284.800 19.020,284.800 18.800 C 284.800 18.580,284.440 18.400,284.000 18.400 C 283.560 18.400,283.200 18.220,283.200 18.000 C 283.200 17.780,282.840 17.600,282.400 17.600 C 281.960 17.600,281.600 17.420,281.600 17.200 C 281.600 16.980,281.251 16.800,280.824 16.800 C 280.397 16.800,279.936 16.620,279.800 16.400 C 279.664 16.180,279.103 16.000,278.553 16.000 C 277.988 16.000,277.660 15.826,277.800 15.600 C 277.940 15.373,277.604 15.200,277.024 15.200 C 276.461 15.200,276.000 15.020,276.000 14.800 C 276.000 14.580,275.818 14.400,275.596 14.400 C 275.373 14.400,274.428 14.055,273.496 13.634 C 272.563 13.212,271.080 12.631,270.200 12.342 C 269.320 12.053,268.010 11.498,267.288 11.108 C 266.566 10.719,265.632 10.400,265.211 10.400 C 264.791 10.400,264.336 10.220,264.200 10.000 C 264.064 9.780,263.524 9.600,263.000 9.600 C 262.476 9.600,261.946 9.437,261.823 9.237 C 261.700 9.038,260.700 8.751,259.600 8.600 C 258.500 8.449,257.500 8.162,257.377 7.963 C 257.254 7.763,256.623 7.600,255.976 7.600 C 255.329 7.600,254.800 7.420,254.800 7.200 C 254.800 6.980,254.170 6.800,253.400 6.800 C 252.630 6.800,252.000 6.620,252.000 6.400 C 252.000 6.180,251.370 6.000,250.600 6.000 C 249.830 6.000,249.200 5.820,249.200 5.600 C 249.200 5.380,248.581 5.200,247.824 5.200 C 247.067 5.200,246.336 5.020,246.200 4.800 C 246.064 4.580,245.254 4.400,244.400 4.400 C 243.546 4.400,242.736 4.220,242.600 4.000 C 242.464 3.780,241.643 3.600,240.776 3.600 C 239.909 3.600,239.200 3.420,239.200 3.200 C 239.200 2.980,238.311 2.800,237.224 2.800 C 236.137 2.800,235.136 2.620,235.000 2.400 C 234.864 2.180,233.673 2.000,232.353 2.000 C 230.855 2.000,230.046 1.850,230.200 1.600 C 230.356 1.348,229.415 1.200,227.657 1.200 C 225.929 1.200,224.809 1.027,224.715 0.745 C 224.522 0.166,190.800 -0.315,190.800 0.262 M175.600 0.800 C 175.600 1.025,174.475 1.200,173.024 1.200 C 171.607 1.200,170.336 1.380,170.200 1.600 C 170.064 1.820,169.333 2.000,168.576 2.000 C 167.679 2.000,167.200 2.190,167.200 2.547 C 167.200 2.847,166.869 3.972,166.464 5.047 C 166.060 6.121,165.324 8.170,164.830 9.600 C 163.493 13.472,161.744 18.164,161.077 19.669 C 160.753 20.401,159.551 23.430,158.407 26.400 C 157.262 29.370,156.179 32.160,156.000 32.600 C 155.821 33.040,154.921 35.380,154.000 37.800 C 153.079 40.220,152.179 42.560,152.001 43.000 C 151.822 43.440,151.092 45.330,150.379 47.200 C 148.726 51.532,148.455 51.837,146.775 51.251 C 145.173 50.693,142.000 50.669,139.946 51.200 C 139.096 51.420,137.635 51.800,136.700 52.046 C 134.704 52.569,131.458 54.024,131.267 54.481 C 131.193 54.657,130.904 54.800,130.623 54.800 C 129.828 54.800,123.600 61.046,123.600 61.843 C 123.600 61.971,123.262 62.554,122.848 63.138 C 122.079 64.223,120.816 67.893,120.036 71.306 C 118.224 79.232,122.730 89.254,130.400 94.358 C 134.903 97.354,137.055 98.024,143.000 98.285 C 146.771 98.450,147.742 98.314,151.400 97.113 C 158.450 94.799,164.920 87.781,166.625 80.600 C 167.161 78.341,167.265 71.465,166.791 69.616 C 165.699 65.354,163.701 61.622,160.700 58.238 C 159.704 57.115,159.683 57.224,162.005 51.400 C 162.180 50.960,162.898 49.070,163.600 47.200 C 164.860 43.844,165.241 42.865,165.974 41.100 C 166.461 39.926,173.052 22.452,174.083 19.600 C 174.520 18.390,175.040 16.995,175.239 16.500 C 176.207 14.087,176.521 13.346,176.847 12.705 C 177.041 12.323,177.200 11.753,177.200 11.439 C 177.200 11.124,177.350 10.807,177.533 10.733 C 177.940 10.571,181.200 1.961,181.200 1.051 C 181.200 0.512,180.719 0.400,178.400 0.400 C 176.800 0.400,175.600 0.571,175.600 0.800 M16.600 133.715 C 16.380 133.982,16.139 134.650,16.065 135.200 C 15.991 135.750,15.766 136.371,15.565 136.580 C 15.364 136.789,15.200 137.554,15.200 138.280 C 15.200 139.006,15.020 139.600,14.800 139.600 C 14.580 139.600,14.400 140.219,14.400 140.976 C 14.400 141.733,14.220 142.464,14.000 142.600 C 13.780 142.736,13.600 143.366,13.600 144.000 C 13.600 144.634,13.420 145.264,13.200 145.400 C 12.980 145.536,12.800 146.346,12.800 147.200 C 12.800 148.054,12.639 148.852,12.442 148.974 C 12.095 149.189,11.874 150.346,11.353 154.700 C 11.214 155.855,10.977 156.800,10.825 156.800 C 10.674 156.800,10.506 157.640,10.453 158.667 C 10.400 159.694,10.213 160.819,10.039 161.167 C 9.864 161.515,9.679 162.875,9.628 164.188 C 9.576 165.502,9.391 166.852,9.217 167.188 C 8.566 168.447,8.288 208.909,8.899 213.400 C 9.516 217.925,10.036 221.905,10.233 223.600 C 10.348 224.590,10.602 225.760,10.798 226.200 C 10.994 226.640,11.261 227.810,11.390 228.800 C 11.519 229.790,11.728 231.365,11.853 232.300 C 11.978 233.235,12.242 234.000,12.440 234.000 C 12.638 234.000,12.800 234.709,12.800 235.576 C 12.800 236.443,12.980 237.264,13.200 237.400 C 13.420 237.536,13.600 238.256,13.600 239.000 C 13.600 239.744,13.780 240.464,14.000 240.600 C 14.220 240.736,14.400 241.276,14.400 241.800 C 14.400 242.324,14.580 242.864,14.800 243.000 C 15.020 243.136,15.200 243.856,15.200 244.600 C 15.200 245.344,15.380 246.064,15.600 246.200 C 15.820 246.336,16.000 246.876,16.000 247.400 C 16.000 248.606,16.612 249.014,17.048 248.098 C 17.391 247.376,18.013 136.254,17.685 134.300 C 17.484 133.106,17.220 132.964,16.600 133.715 M102.363 200.961 C 85.068 206.958,76.621 227.080,83.589 245.683 C 86.011 252.147,95.602 262.400,99.227 262.400 C 99.438 262.400,99.923 262.559,100.305 262.753 C 107.446 266.386,117.465 265.239,125.381 259.883 C 145.604 246.201,143.041 212.239,121.025 202.160 C 115.717 199.730,107.447 199.199,102.363 200.961 M164.086 205.556 C 160.646 206.745,159.675 207.969,157.175 214.265 C 156.490 215.989,155.496 218.350,154.965 219.512 C 154.434 220.673,154.000 221.710,154.000 221.816 C 154.000 221.922,153.619 222.862,153.153 223.904 C 151.722 227.111,151.294 228.120,150.400 230.400 C 149.926 231.610,149.294 233.140,148.996 233.800 C 148.698 234.460,146.802 238.960,144.782 243.800 C 141.350 252.024,140.729 253.497,139.385 256.600 C 139.100 257.260,138.561 258.610,138.189 259.600 C 137.817 260.590,137.284 261.940,137.005 262.600 C 135.982 265.016,133.599 270.724,131.578 275.600 C 130.437 278.350,129.175 281.335,128.773 282.232 C 128.371 283.130,127.658 284.837,127.190 286.025 C 126.722 287.214,125.902 289.140,125.369 290.305 C 124.836 291.470,124.400 292.510,124.400 292.616 C 124.400 292.722,124.022 293.662,123.560 294.704 C 123.098 295.747,122.576 296.960,122.400 297.400 C 122.224 297.840,121.702 299.053,121.240 300.096 C 120.778 301.138,120.400 302.085,120.400 302.200 C 120.400 302.315,120.040 303.217,119.600 304.204 C 119.160 305.192,118.440 306.808,118.000 307.796 C 117.560 308.783,117.200 309.665,117.200 309.754 C 117.200 309.844,115.850 313.099,114.200 316.987 C 111.621 323.065,111.200 324.383,111.200 326.383 C 111.200 331.810,116.772 335.742,121.762 333.836 C 124.987 332.604,126.214 330.884,129.201 323.400 C 129.377 322.960,129.898 321.747,130.360 320.704 C 130.822 319.662,131.200 318.715,131.200 318.600 C 131.200 318.485,131.548 317.628,131.972 316.696 C 132.397 315.763,134.397 311.040,136.417 306.200 C 138.437 301.360,140.358 296.770,140.686 296.000 C 141.013 295.230,141.425 294.240,141.600 293.800 C 142.235 292.205,143.968 288.158,145.153 285.504 C 145.619 284.462,146.000 283.515,146.000 283.400 C 146.000 283.197,146.648 281.703,148.689 277.200 C 149.237 275.990,150.196 273.740,150.820 272.200 C 151.443 270.660,152.873 267.240,153.997 264.600 C 155.121 261.960,157.041 257.370,158.263 254.400 C 159.485 251.430,160.916 248.050,161.443 246.888 C 161.969 245.727,162.400 244.690,162.400 244.584 C 162.400 244.478,162.778 243.538,163.240 242.496 C 163.702 241.453,164.224 240.240,164.400 239.800 C 164.576 239.360,165.098 238.147,165.560 237.104 C 166.022 236.062,166.400 235.122,166.400 235.016 C 166.400 234.910,166.833 233.873,167.362 232.712 C 167.890 231.550,168.952 229.070,169.721 227.200 C 170.489 225.330,171.943 221.820,172.951 219.400 C 176.117 211.801,174.720 207.195,168.708 205.410 C 166.245 204.678,166.667 204.665,164.086 205.556 M114.304 217.285 C 122.021 220.890,125.021 231.713,120.769 240.600 C 114.150 254.430,97.600 248.573,97.600 232.400 C 97.600 221.290,106.206 213.503,114.304 217.285 M170.869 277.230 C 140.517 281.168,135.765 330.162,164.756 340.248 C 195.233 350.851,217.211 308.030,193.138 284.950 C 188.159 280.176,177.741 275.855,173.610 276.851 C 173.495 276.879,172.261 277.049,170.869 277.230 M178.304 294.487 C 189.969 299.947,189.299 320.750,177.321 325.022 C 169.463 327.825,161.600 320.111,161.600 309.600 C 161.600 298.465,170.193 290.691,178.304 294.487 " stroke="none" fill="#f4dd79" fill-rule="evenodd"></path><path id="path2" d="M151.427 5.556 C 151.187 5.945,152.067 6.136,157.200 6.809 C 159.070 7.054,161.251 7.423,162.046 7.627 C 164.178 8.177,165.262 8.128,164.230 7.529 C 163.466 7.085,160.671 6.644,155.500 6.150 C 154.015 6.008,152.800 5.737,152.800 5.546 C 152.800 5.091,151.710 5.099,151.427 5.556 M148.400 6.400 C 148.400 6.620,148.771 6.800,149.224 6.800 C 149.677 6.800,149.936 6.620,149.800 6.400 C 149.664 6.180,149.293 6.000,148.976 6.000 C 148.659 6.000,148.400 6.180,148.400 6.400 M145.600 7.200 C 145.132 7.502,145.243 7.589,146.100 7.594 C 146.705 7.597,147.200 7.420,147.200 7.200 C 147.200 6.694,146.383 6.694,145.600 7.200 M143.000 8.000 C 142.864 8.220,143.123 8.400,143.576 8.400 C 144.029 8.400,144.400 8.220,144.400 8.000 C 144.400 7.780,144.141 7.600,143.824 7.600 C 143.507 7.600,143.136 7.780,143.000 8.000 M140.400 8.800 C 140.400 9.020,140.760 9.200,141.200 9.200 C 141.640 9.200,142.000 9.020,142.000 8.800 C 142.000 8.580,141.640 8.400,141.200 8.400 C 140.760 8.400,140.400 8.580,140.400 8.800 M138.576 9.387 C 137.819 9.960,137.823 9.975,138.700 9.987 C 139.239 9.995,139.600 9.759,139.600 9.400 C 139.600 8.659,139.541 8.658,138.576 9.387 M136.038 9.976 C 135.640 10.222,135.629 10.371,135.992 10.595 C 136.255 10.757,136.650 10.710,136.870 10.490 C 137.391 9.969,136.721 9.555,136.038 9.976 M133.400 11.200 C 133.264 11.420,133.513 11.600,133.953 11.600 C 134.393 11.600,134.864 11.420,135.000 11.200 C 135.136 10.980,134.887 10.800,134.447 10.800 C 134.007 10.800,133.536 10.980,133.400 11.200 M178.049 11.170 C 177.680 11.398,177.862 11.576,178.662 11.768 C 182.407 12.670,193.589 17.638,198.293 20.489 C 199.664 21.320,200.886 22.000,201.008 22.000 C 201.131 22.000,202.799 23.057,204.715 24.348 C 223.181 36.790,238.092 54.939,246.492 75.200 C 246.720 75.750,247.058 76.560,247.243 77.000 C 247.535 77.696,250.170 85.968,251.194 89.400 C 251.544 90.575,252.861 97.035,253.559 101.000 C 253.897 102.922,253.912 102.940,253.955 101.477 C 253.980 100.640,253.835 99.200,253.633 98.277 C 253.431 97.355,253.054 95.520,252.794 94.200 C 252.535 92.880,251.680 89.460,250.895 86.600 C 249.640 82.029,249.089 80.360,247.557 76.500 C 240.140 57.805,227.812 41.403,211.600 28.660 C 211.270 28.401,210.370 27.746,209.600 27.205 C 208.830 26.664,207.880 25.929,207.489 25.571 C 205.118 23.400,191.537 16.049,185.300 13.559 C 184.805 13.362,183.995 13.032,183.500 12.826 C 183.005 12.621,181.880 12.223,181.000 11.943 C 180.120 11.663,179.214 11.301,178.987 11.139 C 178.759 10.978,178.337 10.992,178.049 11.170 M127.666 13.150 C 127.241 13.420,127.268 13.540,127.799 13.744 C 128.730 14.101,128.800 14.077,128.800 13.400 C 128.800 12.727,128.455 12.651,127.666 13.150 M124.077 14.830 C 124.156 15.066,124.391 15.260,124.600 15.260 C 124.809 15.260,125.044 15.066,125.123 14.830 C 125.202 14.594,124.967 14.400,124.600 14.400 C 124.233 14.400,123.998 14.594,124.077 14.830 M121.400 15.738 C 120.740 15.985,119.909 16.505,119.553 16.893 C 119.197 17.282,118.432 17.600,117.853 17.600 C 116.778 17.600,116.452 18.138,117.235 18.622 C 117.474 18.769,117.870 18.690,118.115 18.445 C 118.360 18.200,118.865 18.000,119.237 18.000 C 119.610 18.000,120.025 17.711,120.161 17.358 C 120.296 17.006,120.664 16.816,120.978 16.936 C 121.291 17.056,121.620 16.941,121.707 16.679 C 121.794 16.418,122.121 16.203,122.433 16.202 C 123.044 16.200,123.476 15.463,122.930 15.355 C 122.748 15.319,122.060 15.492,121.400 15.738 M115.200 18.733 C 115.200 19.296,115.650 19.556,116.237 19.331 C 116.544 19.213,116.696 18.955,116.574 18.758 C 116.295 18.306,115.200 18.287,115.200 18.733 M136.600 18.819 C 133.740 18.993,130.320 19.321,129.000 19.547 C 123.592 20.477,120.306 21.170,117.600 21.951 C 116.830 22.173,115.570 22.527,114.800 22.737 C 112.979 23.234,107.407 25.294,104.992 26.362 C 102.916 27.281,102.000 27.415,102.000 26.800 C 102.000 26.580,102.180 26.400,102.400 26.400 C 102.620 26.400,102.800 26.220,102.800 26.000 C 102.800 25.445,102.340 25.520,101.402 26.229 C 100.728 26.738,100.695 26.888,101.190 27.194 C 101.513 27.393,101.634 27.700,101.458 27.875 C 101.283 28.050,100.959 27.870,100.738 27.474 C 100.406 26.881,100.229 26.844,99.725 27.262 C 99.023 27.845,97.762 28.599,96.584 29.141 C 96.135 29.348,95.527 29.805,95.235 30.158 C 94.942 30.511,94.456 30.800,94.154 30.800 C 93.853 30.800,93.382 31.160,93.107 31.600 C 92.832 32.040,92.331 32.400,91.992 32.400 C 91.654 32.400,91.117 32.760,90.800 33.200 C 90.483 33.640,89.943 34.000,89.600 34.000 C 89.257 34.000,88.717 34.360,88.400 34.800 C 88.083 35.240,87.620 35.600,87.371 35.600 C 87.122 35.600,86.354 36.140,85.663 36.800 C 84.972 37.460,84.247 38.000,84.052 38.000 C 83.856 38.000,82.955 38.720,82.048 39.600 C 81.141 40.480,80.254 41.200,80.078 41.200 C 79.901 41.200,79.112 41.785,78.324 42.500 C 77.537 43.215,76.377 44.205,75.746 44.700 C 71.772 47.819,58.154 61.087,58.536 61.469 C 58.754 61.687,65.427 55.044,66.388 53.652 C 66.712 53.183,67.192 52.800,67.455 52.800 C 67.718 52.800,68.005 52.584,68.093 52.320 C 68.188 52.036,68.351 51.998,68.493 52.227 C 68.625 52.440,67.568 54.141,66.144 56.007 C 55.835 69.521,48.994 84.673,46.462 99.600 C 46.219 101.030,45.809 103.460,45.551 105.000 C 45.236 106.877,45.024 116.905,44.908 135.419 L 44.735 163.039 46.206 167.419 C 53.369 188.750,68.010 201.018,90.393 204.445 L 93.386 204.904 91.826 206.252 C 90.969 206.993,90.441 207.600,90.655 207.600 C 90.868 207.600,91.663 206.952,92.422 206.160 C 100.111 198.129,114.835 197.028,125.000 203.725 C 130.337 207.242,137.600 216.698,137.600 220.132 C 137.600 220.411,137.747 220.811,137.927 221.020 C 138.846 222.088,140.177 231.024,139.846 233.896 C 138.743 243.440,136.425 249.545,132.001 254.560 C 131.011 255.682,130.540 256.333,130.953 256.008 C 131.634 255.471,131.765 255.504,132.352 256.351 C 133.530 258.053,134.848 259.147,136.032 259.407 C 136.736 259.562,137.211 259.929,137.227 260.332 C 137.241 260.699,137.480 260.280,137.758 259.400 C 138.035 258.520,138.581 257.080,138.972 256.200 C 139.362 255.320,139.820 254.240,139.990 253.800 C 140.160 253.360,140.704 252.100,141.200 251.000 C 141.696 249.900,142.234 248.640,142.397 248.200 C 142.912 246.807,144.100 243.991,146.616 238.200 C 146.903 237.540,147.526 236.010,148.000 234.800 C 148.474 233.590,149.110 232.060,149.413 231.400 C 149.716 230.740,150.346 229.213,150.813 228.007 C 151.280 226.801,152.098 224.860,152.631 223.695 C 153.164 222.530,153.600 221.490,153.600 221.384 C 153.600 221.278,153.981 220.338,154.447 219.296 C 155.842 216.171,156.300 215.088,157.027 213.200 C 157.408 212.210,157.873 211.229,158.060 211.020 C 158.247 210.811,158.400 210.316,158.400 209.920 C 158.400 209.524,158.580 209.200,158.800 209.200 C 159.020 209.200,159.200 208.944,159.200 208.631 C 159.200 207.874,162.355 205.200,163.248 205.200 C 163.636 205.200,164.064 205.020,164.200 204.800 C 165.050 203.425,170.807 205.066,172.866 207.271 C 174.951 209.503,175.962 214.113,174.847 216.305 C 174.497 216.992,173.927 218.351,173.254 220.100 C 173.063 220.595,172.708 221.450,172.465 222.000 C 172.222 222.550,171.203 224.980,170.200 227.400 C 168.134 232.384,167.013 235.041,165.941 237.496 C 165.533 238.428,165.200 239.279,165.200 239.386 C 165.200 239.493,164.660 240.759,164.000 242.200 C 163.340 243.641,162.800 244.907,162.800 245.014 C 162.800 245.121,162.422 246.062,161.960 247.104 C 161.498 248.147,160.981 249.360,160.811 249.800 C 160.641 250.240,160.096 251.500,159.600 252.600 C 159.104 253.700,158.560 254.960,158.390 255.400 C 158.220 255.840,157.807 256.830,157.472 257.600 C 157.137 258.370,156.479 259.975,156.010 261.168 C 155.542 262.360,154.826 264.070,154.421 264.968 C 154.015 265.865,152.837 268.670,151.803 271.200 C 150.768 273.730,149.579 276.361,149.161 277.047 C 148.742 277.733,148.405 278.453,148.412 278.647 C 148.419 278.841,148.608 278.685,148.832 278.300 C 149.423 277.286,149.868 277.438,150.129 278.744 C 150.409 280.147,152.087 282.202,153.529 282.909 C 154.163 283.220,154.574 283.731,154.537 284.162 C 154.488 284.724,154.808 284.573,155.937 283.502 C 158.513 281.059,161.433 279.366,165.800 277.783 C 168.779 276.703,177.359 275.999,178.131 276.771 C 178.367 277.007,179.233 277.200,180.056 277.200 C 180.879 277.200,181.664 277.380,181.800 277.600 C 181.936 277.820,182.396 278.000,182.822 278.000 C 184.156 278.000,189.688 281.196,192.281 283.464 C 206.765 296.134,207.745 319.954,194.343 333.600 C 193.154 334.810,192.869 335.171,193.707 334.403 C 195.557 332.709,195.981 333.079,196.001 336.400 C 196.097 352.140,203.377 363.948,217.231 370.835 L 221.302 372.859 226.751 372.729 C 234.363 372.549,237.965 370.666,240.732 365.423 L 241.800 363.400 241.800 234.600 C 241.800 91.434,242.038 104.427,239.207 93.200 C 231.108 61.078,208.386 35.991,176.697 24.186 L 173.195 22.881 172.966 23.940 C 172.753 24.931,172.589 25.390,171.624 27.700 C 171.417 28.195,170.237 31.300,169.001 34.600 C 165.515 43.904,163.976 47.948,163.254 49.700 C 163.004 50.305,162.596 51.295,162.346 51.900 C 161.873 53.048,161.609 53.726,160.788 55.908 C 160.353 57.066,160.386 57.296,161.076 57.908 C 167.898 63.959,169.688 76.480,165.056 85.751 C 162.723 90.420,155.374 97.200,152.645 97.200 C 152.364 97.200,152.005 97.329,151.847 97.486 C 150.117 99.216,139.610 99.261,135.300 97.556 C 109.308 87.276,117.079 49.421,144.967 50.466 L 148.534 50.600 149.233 48.800 C 149.617 47.810,150.951 44.300,152.196 41.000 C 154.597 34.637,155.082 33.415,155.647 32.305 C 155.841 31.923,156.000 31.420,156.000 31.186 C 156.000 30.952,156.360 30.016,156.800 29.106 C 157.240 28.195,157.600 27.211,157.600 26.919 C 157.600 26.628,157.759 26.077,157.953 25.695 C 158.148 25.313,158.482 24.550,158.697 24.000 C 158.911 23.450,159.472 22.218,159.943 21.262 C 160.992 19.135,161.004 19.272,159.793 19.503 C 159.240 19.609,157.395 19.500,155.693 19.261 C 151.326 18.648,142.708 18.448,136.600 18.819 M113.600 19.533 C 113.600 20.097,114.051 20.355,114.639 20.130 C 115.474 19.809,115.317 19.200,114.400 19.200 C 113.960 19.200,113.600 19.350,113.600 19.533 M106.700 23.333 C 105.267 24.104,104.746 24.800,105.600 24.800 C 105.820 24.800,106.000 24.620,106.000 24.400 C 106.000 24.180,106.283 24.000,106.629 24.000 C 107.235 24.000,108.648 22.885,108.348 22.643 C 108.266 22.578,107.525 22.888,106.700 23.333 M54.836 65.400 C 53.660 66.610,52.818 67.600,52.966 67.600 C 53.300 67.600,54.247 66.834,55.128 65.850 C 55.498 65.437,56.213 64.672,56.718 64.150 C 57.223 63.627,57.487 63.200,57.305 63.200 C 57.123 63.200,56.012 64.190,54.836 65.400 M51.004 69.996 C 50.374 70.654,49.935 71.257,50.029 71.338 C 50.123 71.418,50.790 70.880,51.511 70.142 C 52.233 69.404,52.671 68.800,52.486 68.800 C 52.301 68.800,51.634 69.338,51.004 69.996 M47.500 74.087 C 47.115 74.568,46.800 75.128,46.800 75.330 C 46.800 75.997,48.780 74.180,48.794 73.500 C 48.805 72.936,48.200 73.210,47.500 74.087 M46.032 76.356 C 46.014 76.662,45.685 77.151,45.300 77.443 C 44.915 77.735,44.803 77.980,45.051 77.987 C 45.711 78.006,46.509 76.910,46.269 76.313 C 46.112 75.922,46.056 75.932,46.032 76.356 M42.962 80.500 C 42.600 81.215,42.027 82.115,41.690 82.500 C 41.352 82.885,41.207 83.200,41.367 83.200 C 41.720 83.200,42.800 82.154,42.800 81.812 C 42.800 81.677,43.160 81.180,43.600 80.708 C 44.469 79.776,44.625 79.200,44.010 79.200 C 43.796 79.200,43.324 79.785,42.962 80.500 M40.053 84.648 C 39.651 85.104,39.624 85.384,39.953 85.713 C 40.282 86.042,40.400 85.981,40.400 85.480 C 40.400 85.106,40.580 84.800,40.800 84.800 C 41.020 84.800,41.200 84.620,41.200 84.400 C 41.200 83.823,40.685 83.934,40.053 84.648 M38.460 87.042 C 37.731 87.866,38.200 88.257,38.981 87.476 C 39.321 87.136,39.600 86.754,39.600 86.629 C 39.600 86.209,39.006 86.424,38.460 87.042 M33.286 95.600 C 33.062 96.172,33.040 96.879,33.236 97.252 C 33.425 97.614,33.418 98.947,33.219 100.252 C 32.147 107.281,32.000 111.274,32.000 133.304 L 32.000 156.718 27.877 156.609 C 25.128 156.536,23.362 156.295,22.577 155.884 C 21.233 155.181,18.800 152.891,18.800 152.329 C 18.800 152.122,18.620 152.064,18.400 152.200 C 18.137 152.363,18.000 169.128,18.000 201.195 C 18.000 243.993,17.927 250.016,17.400 250.543 C 16.667 251.276,16.469 363.348,17.200 363.800 C 17.420 363.936,17.600 365.016,17.600 366.200 C 17.600 367.384,17.780 368.464,18.000 368.600 C 18.220 368.736,18.400 369.366,18.400 370.000 C 18.400 370.634,18.580 371.264,18.800 371.400 C 19.020 371.536,19.200 372.076,19.200 372.600 C 19.200 373.124,19.380 373.664,19.600 373.800 C 19.820 373.936,20.000 374.487,20.000 375.024 C 20.000 375.561,20.180 376.000,20.400 376.000 C 20.620 376.000,20.800 376.360,20.800 376.800 C 20.800 377.240,20.980 377.600,21.200 377.600 C 21.420 377.600,21.600 377.960,21.600 378.400 C 21.600 378.840,21.780 379.200,22.000 379.200 C 22.220 379.200,22.400 379.436,22.400 379.725 C 22.400 380.013,22.760 380.636,23.200 381.108 C 23.640 381.580,24.000 382.204,24.000 382.495 C 24.000 382.786,24.360 383.283,24.800 383.600 C 25.240 383.917,25.600 384.407,25.600 384.688 C 25.600 384.970,25.780 385.200,26.000 385.200 C 26.220 385.200,26.400 385.409,26.400 385.664 C 26.400 386.313,31.681 391.585,32.340 391.593 C 32.636 391.597,33.383 392.140,34.000 392.800 C 34.617 393.460,35.409 394.000,35.760 394.000 C 36.112 394.000,36.400 394.180,36.400 394.400 C 36.400 394.620,36.760 394.800,37.200 394.800 C 37.640 394.800,38.000 394.952,38.000 395.137 C 38.000 395.323,38.855 395.882,39.900 396.381 C 40.945 396.880,42.113 397.448,42.495 397.644 C 42.877 397.840,43.462 398.000,43.795 398.000 C 44.128 398.000,44.400 398.180,44.400 398.400 C 44.400 398.620,44.904 398.800,45.520 398.800 C 46.136 398.800,46.865 399.025,47.140 399.300 C 47.926 400.086,231.380 400.243,230.924 399.456 C 230.746 399.150,230.037 398.429,229.348 397.854 C 226.992 395.889,226.361 393.088,227.130 388.016 L 227.400 386.233 231.200 385.754 C 244.093 384.127,253.258 375.075,254.845 362.400 C 255.423 357.788,255.101 105.736,254.515 104.200 C 254.156 103.258,254.116 104.247,254.329 108.800 C 255.029 123.772,254.630 362.889,253.901 365.600 C 250.945 376.593,241.449 384.540,230.600 385.099 C 228.620 385.201,226.829 385.446,226.620 385.642 C 225.909 386.311,58.298 386.080,54.800 385.406 C 49.948 384.470,49.542 384.341,46.400 382.742 C 41.428 380.213,37.587 376.334,34.858 371.087 C 33.829 369.109,33.437 367.988,32.432 364.154 C 31.906 362.148,31.886 182.051,32.406 136.400 C 32.736 107.518,32.974 102.302,34.182 97.591 C 34.325 97.035,34.270 96.135,34.060 95.591 L 33.678 94.600 33.286 95.600 M157.641 120.508 C 161.788 123.278,161.112 129.482,156.451 131.435 C 154.395 132.296,131.382 132.254,129.302 131.385 C 124.458 129.361,123.854 122.608,128.306 120.262 C 130.428 119.143,155.918 119.357,157.641 120.508 M173.543 142.372 C 179.630 143.548,180.707 151.082,175.192 153.900 L 173.430 154.800 142.778 154.800 L 112.126 154.800 110.368 153.870 C 105.052 151.059,106.275 143.380,112.200 142.372 C 114.536 141.975,171.486 141.974,173.543 142.372 M174.698 165.415 C 179.536 167.437,180.280 173.460,176.041 176.292 L 174.682 177.200 142.903 177.200 C 113.356 177.200,111.040 177.151,109.934 176.500 C 105.867 174.106,106.138 167.922,110.406 165.740 L 112.200 164.823 142.713 164.811 C 169.284 164.801,173.416 164.879,174.698 165.415 M86.824 211.718 C 86.523 212.203,86.015 213.005,85.693 213.500 C 85.371 213.995,85.195 214.400,85.301 214.400 C 85.583 214.400,87.686 211.153,87.515 210.981 C 87.435 210.902,87.124 211.233,86.824 211.718 M84.014 216.373 C 83.384 217.551,82.713 219.420,83.037 219.096 C 83.420 218.714,84.807 215.600,84.595 215.600 C 84.503 215.600,84.242 215.948,84.014 216.373 M107.079 217.356 C 97.382 220.953,94.779 236.941,102.665 244.464 C 108.202 249.745,115.298 248.630,119.624 241.800 C 121.256 239.225,122.610 233.922,122.255 231.500 C 121.590 226.960,121.631 227.111,120.258 223.976 C 118.015 218.853,111.655 215.659,107.079 217.356 M81.429 223.429 C 81.281 224.015,81.238 224.572,81.332 224.666 C 81.427 224.760,81.624 224.358,81.771 223.771 C 81.919 223.185,81.962 222.628,81.868 222.534 C 81.773 222.440,81.576 222.842,81.429 223.429 M80.653 227.636 C 80.514 228.331,80.422 229.463,80.449 230.150 C 80.478 230.894,80.638 230.440,80.843 229.028 C 81.211 226.504,81.076 225.518,80.653 227.636 M80.428 234.833 C 80.444 235.805,80.606 236.960,80.790 237.400 C 80.992 237.883,81.038 237.249,80.907 235.800 C 80.645 232.910,80.389 232.393,80.428 234.833 M81.256 240.400 C 81.256 240.730,81.411 241.360,81.600 241.800 C 81.817 242.304,81.944 242.378,81.944 242.000 C 81.944 241.670,81.789 241.040,81.600 240.600 C 81.383 240.096,81.256 240.022,81.256 240.400 M83.604 247.400 C 83.605 247.620,83.963 248.340,84.400 249.000 C 85.436 250.564,85.437 250.008,84.401 248.310 C 83.962 247.589,83.604 247.180,83.604 247.400 M85.877 251.631 C 86.275 252.308,86.856 253.073,87.168 253.331 C 87.480 253.589,87.232 253.035,86.615 252.100 C 85.320 250.137,84.809 249.812,85.877 251.631 M90.000 256.600 C 91.195 257.810,92.263 258.800,92.373 258.800 C 92.483 258.800,91.595 257.810,90.400 256.600 C 89.205 255.390,88.137 254.400,88.027 254.400 C 87.917 254.400,88.805 255.390,90.000 256.600 M126.600 259.412 C 125.940 259.953,125.554 260.397,125.742 260.398 C 125.930 260.399,126.619 259.950,127.273 259.400 C 127.927 258.850,128.313 258.406,128.131 258.414 C 127.949 258.422,127.260 258.871,126.600 259.412 M123.776 261.387 C 123.349 261.710,123.180 261.975,123.400 261.975 C 123.620 261.975,124.149 261.710,124.576 261.387 C 125.004 261.064,125.173 260.800,124.953 260.800 C 124.733 260.800,124.204 261.064,123.776 261.387 M114.200 264.800 L 112.600 265.086 114.000 265.115 C 114.770 265.131,115.760 264.989,116.200 264.800 C 117.143 264.395,116.462 264.395,114.200 264.800 M105.505 265.083 C 106.002 265.179,106.722 265.175,107.105 265.075 C 107.487 264.975,107.080 264.896,106.200 264.901 C 105.320 264.905,105.007 264.987,105.505 265.083 M134.867 265.980 C 134.633 266.651,134.527 267.200,134.631 267.200 C 134.901 267.200,135.656 265.122,135.457 264.924 C 135.367 264.833,135.101 265.308,134.867 265.980 M146.800 282.084 C 146.800 282.204,146.528 282.954,146.195 283.751 C 145.862 284.548,145.679 285.200,145.789 285.200 C 146.106 285.200,147.233 282.300,147.005 282.072 C 146.892 281.959,146.800 281.965,146.800 282.084 M151.729 287.773 C 151.108 288.527,150.277 289.742,149.883 290.473 C 149.193 291.749,149.193 291.762,149.883 290.810 C 150.277 290.266,151.184 289.051,151.897 288.110 C 153.447 286.067,153.328 285.828,151.729 287.773 M171.000 294.549 C 157.560 299.633,160.047 324.800,173.989 324.800 C 187.241 324.800,190.883 301.025,178.519 295.231 C 177.903 294.943,177.087 294.548,176.705 294.353 C 175.768 293.877,172.480 293.990,171.000 294.549 M120.790 299.400 C 120.576 299.950,120.209 300.895,119.975 301.500 C 119.741 302.105,119.714 302.420,119.915 302.200 C 120.386 301.683,121.658 298.400,121.387 298.400 C 121.273 298.400,121.005 298.850,120.790 299.400 M144.656 304.484 C 144.521 304.988,144.430 306.120,144.454 307.000 C 144.492 308.378,144.546 308.271,144.843 306.228 C 145.198 303.799,145.095 302.846,144.656 304.484 M117.050 308.391 C 116.147 310.647,116.287 310.983,117.237 308.842 C 117.666 307.875,117.945 307.012,117.858 306.925 C 117.771 306.838,117.408 307.498,117.050 308.391 M134.200 312.261 C 133.864 313.065,133.682 313.815,133.795 313.928 C 133.908 314.041,134.000 314.035,134.000 313.916 C 134.000 313.796,134.272 313.046,134.605 312.249 C 134.938 311.452,135.121 310.800,135.011 310.800 C 134.901 310.800,134.536 311.458,134.200 312.261 M144.406 312.433 C 144.409 313.405,144.585 314.470,144.796 314.800 C 145.052 315.201,145.098 314.670,144.934 313.200 C 144.627 310.452,144.398 310.120,144.406 312.433 M131.179 319.455 C 130.958 320.036,130.852 320.585,130.943 320.676 C 131.033 320.767,131.299 320.292,131.533 319.620 C 132.053 318.128,131.739 317.982,131.179 319.455 M112.999 332.355 C 113.439 332.865,114.339 333.536,114.999 333.847 C 115.708 334.180,115.891 334.204,115.446 333.906 C 115.032 333.628,114.132 332.956,113.446 332.414 C 112.243 331.462,112.227 331.460,112.999 332.355 M154.000 333.800 C 155.195 335.010,156.263 336.000,156.373 336.000 C 156.483 336.000,155.595 335.010,154.400 333.800 C 153.205 332.590,152.137 331.600,152.027 331.600 C 151.917 331.600,152.805 332.590,154.000 333.800 M189.400 337.461 C 186.930 339.204,186.654 339.483,188.200 338.672 C 189.366 338.060,192.002 336.019,191.600 336.039 C 191.490 336.044,190.500 336.684,189.400 337.461 M168.190 341.984 C 168.332 342.213,168.917 342.400,169.490 342.400 C 170.744 342.400,170.599 342.208,169.066 341.840 C 168.323 341.662,168.021 341.711,168.190 341.984 M178.600 342.000 C 177.493 342.282,177.477 342.309,178.400 342.347 C 178.950 342.369,179.670 342.213,180.000 342.000 C 180.681 341.560,180.329 341.560,178.600 342.000 " stroke="none" fill="#fb4454" fill-rule="evenodd"></path><path id="path3" d="M150.306 5.752 C 149.925 6.042,149.730 6.396,149.873 6.540 C 150.016 6.683,149.743 6.800,149.267 6.800 C 148.790 6.800,148.400 6.592,148.400 6.339 C 148.400 6.085,148.064 6.265,147.653 6.739 C 147.242 7.212,146.477 7.597,145.953 7.594 C 145.191 7.589,145.120 7.510,145.600 7.200 C 146.118 6.865,146.108 6.811,145.527 6.806 C 145.157 6.803,144.740 7.160,144.600 7.600 C 144.458 8.047,143.995 8.400,143.549 8.400 C 143.043 8.400,142.845 8.218,143.007 7.900 C 143.147 7.625,142.888 7.825,142.431 8.344 C 141.809 9.051,141.351 9.224,140.601 9.036 C 139.862 8.851,139.600 8.944,139.600 9.392 C 139.600 9.760,139.244 9.995,138.700 9.987 C 137.823 9.975,137.819 9.960,138.576 9.387 C 139.004 9.064,139.249 8.800,139.122 8.800 C 138.652 8.800,136.958 9.813,136.782 10.200 C 136.682 10.420,136.077 10.540,135.437 10.466 C 134.385 10.345,133.604 10.579,131.505 11.647 C 131.123 11.841,130.452 12.000,130.013 12.000 C 129.505 12.000,129.128 12.348,128.975 12.958 C 128.760 13.813,128.556 13.898,127.067 13.751 C 125.807 13.627,125.595 13.680,126.200 13.966 C 126.981 14.335,126.980 14.344,126.143 14.372 C 125.671 14.387,125.187 14.656,125.067 14.969 C 124.932 15.322,124.529 15.454,124.007 15.318 C 123.426 15.166,123.202 15.268,123.283 15.649 C 123.350 15.966,123.074 16.201,122.633 16.202 C 122.211 16.203,121.794 16.418,121.707 16.679 C 121.620 16.941,121.291 17.056,120.978 16.936 C 120.664 16.816,120.296 17.006,120.161 17.358 C 120.025 17.711,119.584 18.000,119.181 18.000 C 118.777 18.000,118.331 18.187,118.190 18.416 C 118.048 18.645,117.565 18.716,117.116 18.573 C 116.572 18.401,116.391 18.462,116.574 18.757 C 116.724 19.001,116.657 19.200,116.424 19.200 C 115.708 19.200,115.420 19.323,114.888 19.854 C 114.607 20.136,114.112 20.264,113.788 20.140 C 113.465 20.016,113.200 20.114,113.200 20.357 C 113.200 20.601,112.855 20.800,112.433 20.800 C 112.012 20.800,111.575 21.025,111.464 21.300 C 111.307 21.686,111.173 21.674,110.874 21.247 C 110.564 20.804,110.434 20.864,110.217 21.547 C 109.924 22.469,109.208 22.715,109.188 21.900 C 109.181 21.625,108.968 21.760,108.714 22.200 C 108.028 23.388,107.330 24.000,106.662 24.000 C 106.335 24.000,105.962 24.225,105.833 24.500 C 105.647 24.900,105.553 24.900,105.367 24.500 C 105.003 23.720,104.400 23.912,104.400 24.808 C 104.400 25.470,104.220 25.570,103.395 25.363 C 102.582 25.159,102.438 25.234,102.638 25.756 C 102.774 26.110,102.686 26.400,102.443 26.400 C 102.199 26.400,102.000 26.580,102.000 26.800 C 102.000 27.415,102.916 27.281,104.992 26.362 C 107.407 25.294,112.979 23.234,114.800 22.737 C 115.570 22.527,116.830 22.173,117.600 21.951 C 120.287 21.175,123.822 20.428,128.800 19.583 C 135.392 18.464,148.327 18.405,158.059 19.450 L 160.319 19.692 160.993 18.146 C 161.364 17.296,161.832 16.287,162.034 15.905 C 162.235 15.523,162.400 14.936,162.400 14.600 C 162.400 14.264,162.559 13.677,162.753 13.295 C 162.948 12.913,163.285 12.150,163.504 11.600 C 163.722 11.050,164.110 10.082,164.365 9.448 C 164.621 8.815,164.778 8.261,164.715 8.217 C 164.440 8.028,159.937 7.197,157.000 6.793 C 151.918 6.096,151.193 5.935,151.427 5.556 C 151.751 5.033,151.105 5.146,150.306 5.752 M135.000 11.200 C 134.864 11.420,134.393 11.600,133.953 11.600 C 133.513 11.600,133.264 11.420,133.400 11.200 C 133.536 10.980,134.007 10.800,134.447 10.800 C 134.887 10.800,135.136 10.980,135.000 11.200 M177.262 13.079 C 176.979 13.915,176.555 15.050,176.320 15.600 C 176.085 16.150,175.737 17.005,175.546 17.500 C 175.356 17.995,175.038 18.805,174.840 19.300 C 173.856 21.763,173.506 22.839,173.646 22.973 C 173.731 23.054,175.600 23.782,177.800 24.592 C 208.039 35.726,231.256 61.665,239.207 93.200 C 242.038 104.427,241.800 91.434,241.800 234.600 L 241.800 363.400 240.732 365.423 C 237.965 370.666,234.363 372.549,226.751 372.729 L 221.302 372.859 217.231 370.835 C 203.377 363.948,196.097 352.140,196.001 336.400 C 195.981 333.073,195.553 332.704,193.716 334.434 C 190.356 337.598,186.332 340.050,182.600 341.207 C 181.720 341.479,180.587 341.859,180.081 342.051 C 178.793 342.540,168.507 342.496,168.200 342.000 C 168.064 341.780,167.511 341.600,166.971 341.600 C 166.431 341.600,165.677 341.440,165.295 341.244 C 164.913 341.048,163.700 340.470,162.600 339.959 C 156.849 337.290,150.665 331.151,148.137 325.600 C 146.204 321.356,145.932 320.544,145.123 316.600 C 142.990 306.204,146.038 294.212,152.721 286.706 C 155.006 284.138,155.101 283.673,153.499 282.892 C 152.085 282.202,150.408 280.138,150.129 278.744 C 150.003 278.115,149.740 277.600,149.544 277.600 C 149.207 277.600,148.971 278.058,147.433 281.700 C 147.085 282.525,146.530 283.830,146.200 284.600 C 145.870 285.370,145.330 286.630,145.000 287.400 C 143.537 290.815,143.098 291.851,142.800 292.600 C 142.625 293.040,142.193 294.075,141.841 294.900 C 141.488 295.725,140.912 297.075,140.559 297.900 C 140.207 298.725,139.775 299.760,139.600 300.200 C 139.425 300.640,139.005 301.633,138.667 302.406 C 138.328 303.179,137.847 304.349,137.598 305.006 C 136.991 306.604,133.316 315.368,132.361 317.496 C 131.942 318.428,131.600 319.285,131.600 319.400 C 131.600 319.515,131.219 320.462,130.753 321.504 C 130.288 322.547,129.658 323.985,129.353 324.700 C 126.777 330.751,126.729 330.847,125.640 332.091 C 119.389 339.226,107.101 331.202,111.125 322.614 C 111.386 322.056,111.762 321.195,111.959 320.700 C 112.157 320.205,112.585 319.170,112.911 318.400 C 113.237 317.630,114.143 315.470,114.926 313.600 C 115.708 311.730,117.170 308.257,118.174 305.882 C 119.178 303.507,120.000 301.480,120.000 301.378 C 120.000 301.275,120.381 300.338,120.847 299.296 C 121.312 298.253,121.942 296.815,122.247 296.100 C 122.551 295.385,123.088 294.125,123.441 293.300 C 123.793 292.475,124.220 291.440,124.390 291.000 C 124.560 290.560,125.104 289.300,125.600 288.200 C 126.473 286.262,126.975 285.066,127.614 283.400 C 127.782 282.960,128.298 281.747,128.760 280.704 C 129.222 279.662,129.600 278.722,129.600 278.616 C 129.600 278.510,130.032 277.473,130.559 276.312 C 131.086 275.150,132.364 272.130,133.397 269.600 C 135.732 263.887,136.368 262.387,136.834 261.505 C 137.332 260.561,137.295 259.600,136.760 259.600 C 135.649 259.600,133.560 258.198,132.831 256.963 C 131.786 255.191,131.782 255.192,128.772 257.998 C 127.357 259.317,125.975 260.397,125.700 260.398 C 125.425 260.399,125.200 260.553,125.200 260.740 C 125.200 261.042,121.115 263.193,119.000 264.005 C 113.371 266.165,104.625 265.702,98.867 262.939 C 77.735 252.797,73.997 223.023,91.764 206.361 L 93.329 204.894 90.364 204.441 C 68.017 201.022,53.366 188.738,46.206 167.419 L 44.735 163.039 44.908 135.419 C 45.024 116.905,45.236 106.877,45.551 105.000 C 45.809 103.460,46.219 101.030,46.462 99.600 C 48.994 84.673,55.835 69.521,66.144 56.007 C 67.568 54.141,68.625 52.440,68.493 52.227 C 68.351 51.998,68.188 52.036,68.093 52.320 C 68.005 52.584,67.718 52.800,67.455 52.800 C 67.192 52.800,66.712 53.180,66.388 53.644 C 64.827 55.884,63.548 56.961,63.144 56.375 C 62.850 55.949,62.813 56.033,63.001 56.700 C 63.233 57.527,62.687 57.994,62.299 57.300 C 62.207 57.135,62.184 57.219,62.248 57.487 C 62.411 58.164,61.720 58.518,61.438 57.902 C 61.311 57.626,61.308 57.805,61.431 58.300 C 61.637 59.131,61.082 59.586,60.699 58.900 C 60.607 58.735,60.591 58.838,60.664 59.130 C 60.831 59.794,59.736 60.931,59.231 60.619 C 59.024 60.491,58.725 60.598,58.566 60.855 C 58.385 61.148,58.450 61.216,58.738 61.038 C 58.992 60.881,59.200 60.943,59.200 61.176 C 59.200 61.409,58.840 61.600,58.400 61.600 C 57.960 61.600,57.600 61.855,57.600 62.167 C 57.600 62.478,57.375 62.824,57.100 62.935 C 56.712 63.092,56.716 63.144,57.118 63.168 C 57.443 63.188,57.293 63.555,56.718 64.150 C 56.213 64.672,55.500 65.437,55.134 65.850 C 54.767 66.262,53.930 67.050,53.272 67.600 C 52.615 68.150,52.210 68.690,52.372 68.800 C 52.534 68.910,52.066 69.590,51.333 70.311 C 50.600 71.033,50.000 71.425,50.000 71.183 C 50.000 70.934,49.739 71.004,49.400 71.343 C 49.070 71.673,48.800 72.399,48.800 72.956 C 48.800 74.206,47.209 75.855,46.730 75.101 C 46.533 74.790,46.410 75.062,46.406 75.820 C 46.400 77.002,45.801 78.000,45.096 78.000 C 44.907 78.000,44.867 77.775,45.006 77.500 C 45.145 77.225,44.972 77.355,44.621 77.789 C 44.270 78.222,44.073 78.814,44.185 79.104 C 44.410 79.692,43.601 81.200,43.061 81.200 C 42.870 81.200,42.822 80.921,42.953 80.579 C 43.094 80.210,43.024 80.062,42.779 80.213 C 42.553 80.353,42.477 80.813,42.611 81.235 C 42.874 82.065,42.265 82.868,41.011 83.344 C 40.343 83.597,40.312 83.705,40.811 84.052 C 41.257 84.361,41.278 84.510,40.900 84.664 C 40.625 84.775,40.400 85.132,40.400 85.457 C 40.400 85.782,40.220 85.936,40.000 85.800 C 39.780 85.664,39.401 85.676,39.157 85.826 C 38.848 86.017,38.878 86.201,39.254 86.434 C 39.666 86.688,39.487 87.022,38.497 87.842 C 37.784 88.433,37.200 89.250,37.200 89.658 C 37.200 90.066,37.020 90.400,36.800 90.400 C 36.580 90.400,36.400 90.760,36.400 91.200 C 36.400 91.733,36.133 92.000,35.600 92.000 C 35.160 92.000,34.800 92.180,34.800 92.400 C 34.800 92.620,34.980 92.800,35.200 92.800 C 35.420 92.800,35.600 92.988,35.600 93.218 C 35.600 93.447,35.285 93.582,34.900 93.518 C 34.307 93.418,34.195 93.737,34.165 95.600 C 34.146 96.810,33.811 99.870,33.421 102.400 C 32.150 110.642,31.210 359.493,32.432 364.154 C 33.437 367.988,33.829 369.109,34.858 371.087 C 37.587 376.334,41.428 380.213,46.400 382.742 C 49.542 384.341,49.948 384.470,54.800 385.406 C 58.298 386.080,225.909 386.311,226.620 385.642 C 226.829 385.446,228.620 385.201,230.600 385.099 C 241.356 384.545,250.683 376.819,253.898 365.800 C 254.752 362.875,255.234 126.487,254.417 111.665 C 253.720 99.029,251.156 86.660,247.232 77.000 C 238.417 55.302,223.811 37.214,204.715 24.348 C 202.799 23.057,201.131 22.000,201.008 22.000 C 200.886 22.000,199.664 21.320,198.293 20.489 C 194.883 18.422,188.928 15.584,183.949 13.652 C 177.790 11.263,177.873 11.270,177.262 13.079 M100.406 26.671 C 100.418 27.284,101.155 28.178,101.426 27.907 C 101.574 27.759,101.404 27.347,101.048 26.990 C 100.691 26.634,100.403 26.491,100.406 26.671 " stroke="none" fill="#e60454" fill-rule="evenodd"></path><path id="path4" d="M182.100 0.282 C 181.605 0.378,181.200 0.736,181.200 1.078 C 181.200 1.969,177.932 10.574,177.533 10.733 C 177.350 10.807,177.200 11.135,177.200 11.462 C 177.200 11.969,177.295 11.962,177.842 11.415 C 178.221 11.036,178.673 10.908,178.942 11.103 C 179.194 11.284,180.120 11.663,181.000 11.943 C 181.880 12.223,183.005 12.621,183.500 12.826 C 183.995 13.032,184.805 13.362,185.300 13.559 C 191.537 16.049,205.118 23.400,207.489 25.571 C 207.880 25.929,208.830 26.664,209.600 27.205 C 210.370 27.746,211.270 28.401,211.600 28.660 C 227.217 40.935,239.672 57.212,246.832 74.700 C 248.851 79.633,249.525 81.609,250.889 86.600 C 252.462 92.358,252.936 94.462,253.590 98.600 C 253.833 100.140,254.245 102.390,254.506 103.600 C 255.105 106.385,255.435 357.687,254.845 362.400 C 253.259 375.074,244.093 384.127,231.200 385.754 L 227.400 386.233 227.130 388.016 C 226.317 393.380,226.775 395.237,229.619 398.095 L 231.629 400.116 235.514 399.844 C 237.652 399.695,239.460 399.399,239.533 399.186 C 239.607 398.974,240.181 398.800,240.810 398.800 C 241.438 398.800,242.064 398.620,242.200 398.400 C 242.336 398.180,242.876 398.000,243.400 398.000 C 243.924 398.000,244.464 397.820,244.600 397.600 C 244.736 397.380,245.197 397.200,245.624 397.200 C 246.051 397.200,246.400 397.064,246.400 396.898 C 246.400 396.731,246.985 396.342,247.700 396.032 C 249.221 395.374,252.540 393.192,252.733 392.723 C 252.807 392.545,253.122 392.400,253.433 392.400 C 253.745 392.400,254.000 392.220,254.000 392.000 C 254.000 391.780,254.196 391.600,254.436 391.600 C 254.977 391.600,259.906 386.626,261.204 384.769 C 261.731 384.016,262.486 383.109,262.881 382.753 C 263.276 382.397,263.600 381.656,263.600 381.107 C 263.600 380.557,264.213 378.868,264.963 377.354 C 267.429 372.372,268.735 367.732,268.985 363.061 C 269.251 358.087,269.270 110.229,269.004 106.800 C 268.736 103.336,268.133 98.680,267.581 95.800 C 266.329 89.272,265.968 87.602,265.418 85.800 C 264.715 83.492,264.628 82.247,265.195 82.597 C 265.422 82.737,265.489 82.577,265.354 82.223 C 265.223 81.883,264.927 81.721,264.696 81.864 C 264.465 82.007,264.388 81.943,264.524 81.723 C 264.660 81.502,264.244 80.260,263.598 78.961 C 262.953 77.662,262.419 76.390,262.413 76.132 C 262.357 74.054,254.209 56.615,251.257 52.257 C 250.640 51.346,250.036 50.330,249.916 50.000 C 249.556 49.010,243.297 40.445,240.272 36.800 C 235.080 30.546,225.856 21.617,220.576 17.735 C 219.929 17.259,218.500 16.190,217.400 15.360 C 211.019 10.542,198.166 3.279,192.300 1.177 C 191.475 0.881,190.800 0.495,190.800 0.320 C 190.800 -0.005,183.748 -0.035,182.100 0.282 M165.400 2.400 C 165.264 2.620,164.353 2.800,163.376 2.800 C 162.399 2.800,161.600 2.980,161.600 3.200 C 161.600 3.420,160.801 3.600,159.824 3.600 C 158.847 3.600,157.936 3.780,157.800 4.000 C 157.664 4.220,156.944 4.400,156.200 4.400 C 155.456 4.400,154.736 4.580,154.600 4.800 C 154.464 5.020,154.003 5.200,153.576 5.200 C 151.626 5.200,153.082 5.919,155.500 6.150 C 165.362 7.092,165.613 7.236,163.987 11.029 C 163.541 12.072,163.227 13.081,163.291 13.273 C 163.428 13.685,166.656 4.883,167.094 2.900 C 167.304 1.950,165.929 1.544,165.400 2.400 M176.573 13.043 C 176.438 13.459,176.140 14.250,175.910 14.800 C 174.241 18.801,171.959 25.615,173.165 23.000 C 174.354 20.419,177.204 12.670,177.028 12.495 C 176.913 12.380,176.708 12.626,176.573 13.043 M162.550 14.700 C 161.959 16.539,161.378 18.010,160.297 20.400 C 159.651 21.830,158.938 23.450,158.714 24.000 C 158.490 24.550,158.148 25.313,157.953 25.695 C 157.759 26.077,157.600 26.628,157.600 26.919 C 157.600 27.211,157.240 28.195,156.800 29.106 C 156.360 30.016,156.000 30.952,156.000 31.186 C 156.000 31.420,155.841 31.923,155.647 32.305 C 155.082 33.415,154.597 34.637,152.196 41.000 C 150.951 44.300,149.617 47.810,149.233 48.800 L 148.534 50.600 144.967 50.466 C 120.287 49.541,109.645 81.022,130.000 94.739 C 132.074 96.137,132.777 96.510,135.200 97.502 C 139.486 99.257,150.086 99.247,151.847 97.486 C 152.005 97.329,152.364 97.200,152.645 97.200 C 155.374 97.200,162.723 90.420,165.056 85.751 C 169.688 76.480,167.898 63.959,161.076 57.908 C 160.256 57.180,160.278 57.028,161.694 53.600 C 161.921 53.050,162.263 52.195,162.454 51.700 C 162.784 50.842,163.162 49.890,163.962 47.900 C 164.473 46.630,166.378 41.601,169.001 34.600 C 171.324 28.397,171.691 27.464,172.446 25.839 C 172.692 25.311,172.818 24.655,172.727 24.382 C 172.636 24.108,171.165 27.556,169.457 32.042 C 166.369 40.157,166.085 40.891,165.292 42.800 C 165.063 43.350,164.302 45.330,163.600 47.200 C 162.898 49.070,162.180 50.960,162.005 51.400 C 159.683 57.224,159.704 57.115,160.700 58.238 C 163.701 61.622,165.699 65.354,166.791 69.616 C 167.265 71.465,167.161 78.341,166.625 80.600 C 166.116 82.743,164.979 85.253,163.456 87.600 C 160.648 91.924,155.975 95.611,151.400 97.113 C 147.742 98.314,146.771 98.450,143.000 98.285 C 137.022 98.023,134.928 97.370,130.400 94.358 C 122.730 89.254,118.224 79.232,120.036 71.306 C 120.816 67.893,122.079 64.223,122.848 63.138 C 123.262 62.554,123.600 61.971,123.600 61.843 C 123.600 61.046,129.828 54.800,130.623 54.800 C 130.904 54.800,131.193 54.657,131.267 54.481 C 131.458 54.024,134.704 52.569,136.700 52.046 C 137.635 51.800,139.096 51.420,139.946 51.200 C 142.000 50.669,145.173 50.693,146.775 51.251 C 148.455 51.837,148.726 51.532,150.379 47.200 C 151.092 45.330,151.822 43.440,152.001 43.000 C 152.179 42.560,153.079 40.220,154.000 37.800 C 154.921 35.380,155.821 33.040,156.000 32.600 C 156.179 32.160,157.262 29.370,158.407 26.400 C 159.551 23.430,160.726 20.457,161.018 19.794 C 162.335 16.799,163.273 14.000,162.960 14.000 C 162.858 14.000,162.674 14.315,162.550 14.700 M32.400 97.367 C 32.400 97.678,32.265 97.993,32.100 98.067 C 31.830 98.187,30.622 100.289,29.440 102.697 C 29.198 103.190,28.865 103.595,28.700 103.597 C 28.535 103.599,28.400 103.848,28.400 104.152 C 28.400 104.455,27.773 105.940,27.007 107.452 C 26.242 108.963,25.612 110.504,25.607 110.876 C 25.603 111.248,25.420 111.664,25.200 111.800 C 24.980 111.936,24.800 112.397,24.800 112.824 C 24.800 113.251,24.620 113.600,24.400 113.600 C 24.180 113.600,24.000 113.865,24.000 114.188 C 24.000 114.511,23.640 115.417,23.200 116.200 C 22.760 116.983,22.400 117.979,22.400 118.412 C 22.400 118.845,22.220 119.200,22.000 119.200 C 21.780 119.200,21.600 119.639,21.600 120.176 C 21.600 120.713,21.420 121.264,21.200 121.400 C 20.980 121.536,20.800 121.997,20.800 122.424 C 20.800 122.851,20.653 123.200,20.472 123.200 C 20.292 123.200,19.896 124.111,19.593 125.225 C 19.290 126.339,18.897 127.340,18.721 127.449 C 18.544 127.558,18.400 127.999,18.400 128.429 C 18.400 128.859,18.241 129.523,18.047 129.905 C 16.695 132.563,16.624 132.844,17.215 133.209 C 17.974 133.678,17.871 242.689,17.107 247.490 C 16.657 250.320,16.875 251.560,17.616 250.388 C 17.840 250.034,17.990 230.444,17.994 201.124 C 17.998 169.111,18.137 152.363,18.400 152.200 C 18.620 152.064,18.800 152.122,18.800 152.329 C 18.800 152.891,21.233 155.181,22.577 155.884 C 23.362 156.295,25.128 156.536,27.877 156.609 L 32.000 156.718 32.000 133.304 C 32.000 111.304,32.147 107.291,33.213 100.287 C 33.567 97.956,33.416 96.800,32.757 96.800 C 32.561 96.800,32.400 97.055,32.400 97.367 M279.400 107.200 C 279.741 107.860,280.111 108.400,280.221 108.400 C 280.331 108.400,280.141 107.860,279.800 107.200 C 279.459 106.540,279.089 106.000,278.979 106.000 C 278.869 106.000,279.059 106.540,279.400 107.200 M128.306 120.262 C 123.854 122.608,124.458 129.361,129.302 131.385 C 131.382 132.254,154.395 132.296,156.451 131.435 C 161.112 129.482,161.788 123.278,157.641 120.508 C 155.918 119.357,130.428 119.143,128.306 120.262 M112.200 142.372 C 106.275 143.380,105.052 151.059,110.368 153.870 L 112.126 154.800 142.778 154.800 L 173.430 154.800 175.192 153.900 C 180.707 151.082,179.630 143.548,173.543 142.372 C 171.486 141.974,114.536 141.975,112.200 142.372 M110.406 165.740 C 106.138 167.922,105.867 174.106,109.934 176.500 C 111.040 177.151,113.356 177.200,142.903 177.200 L 174.682 177.200 176.041 176.292 C 179.273 174.132,179.706 169.230,176.888 166.680 C 174.785 164.777,175.199 164.799,142.713 164.811 L 112.200 164.823 110.406 165.740 M106.000 199.600 C 105.367 199.803,106.717 199.935,109.680 199.960 C 126.642 200.105,139.066 213.858,139.240 232.683 C 139.281 237.113,139.881 237.183,139.960 232.767 C 140.012 229.854,138.624 221.799,137.936 221.020 C 137.751 220.811,137.600 220.411,137.600 220.132 C 137.600 216.698,130.337 207.242,125.000 203.725 C 119.625 200.184,110.418 198.185,106.000 199.600 M100.413 201.075 C 96.433 202.695,86.867 210.200,87.710 211.043 C 87.777 211.111,89.457 209.599,91.444 207.683 C 95.186 204.073,97.506 202.645,102.363 200.961 C 103.974 200.403,104.611 200.042,104.000 200.035 C 103.450 200.028,101.836 200.496,100.413 201.075 M164.200 204.800 C 164.064 205.020,163.636 205.200,163.248 205.200 C 162.355 205.200,159.200 207.874,159.200 208.631 C 159.200 208.944,159.020 209.200,158.800 209.200 C 158.580 209.200,158.400 209.524,158.400 209.920 C 158.400 210.316,158.247 210.811,158.060 211.020 C 157.873 211.229,157.408 212.210,157.027 213.200 C 156.300 215.088,155.842 216.171,154.447 219.296 C 153.981 220.338,153.600 221.278,153.600 221.384 C 153.600 221.490,153.164 222.530,152.631 223.695 C 152.098 224.860,151.280 226.801,150.813 228.007 C 150.346 229.213,149.716 230.740,149.413 231.400 C 149.110 232.060,148.474 233.590,148.000 234.800 C 147.526 236.010,146.882 237.585,146.569 238.300 C 146.011 239.576,145.437 240.909,144.159 243.900 C 143.807 244.725,143.381 245.760,143.213 246.200 C 142.586 247.840,142.077 249.054,141.200 251.000 C 140.704 252.100,140.159 253.360,139.989 253.800 C 139.819 254.240,139.310 255.435,138.859 256.456 C 138.407 257.477,137.935 258.827,137.810 259.456 L 137.583 260.600 138.067 259.600 C 138.509 258.688,139.229 257.040,140.602 253.800 C 140.881 253.140,142.762 248.640,144.782 243.800 C 146.802 238.960,148.698 234.460,148.996 233.800 C 149.294 233.140,149.926 231.610,150.400 230.400 C 151.294 228.120,151.722 227.111,153.153 223.904 C 153.619 222.862,154.000 221.922,154.000 221.816 C 154.000 221.710,154.434 220.673,154.965 219.512 C 155.496 218.350,156.490 215.989,157.175 214.265 C 160.315 206.356,163.541 203.875,168.696 205.406 C 174.721 207.195,176.120 211.795,172.951 219.400 C 171.943 221.820,170.489 225.330,169.721 227.200 C 168.952 229.070,167.890 231.550,167.362 232.712 C 166.833 233.873,166.400 234.910,166.400 235.016 C 166.400 235.122,166.022 236.062,165.560 237.104 C 165.098 238.147,164.576 239.360,164.400 239.800 C 164.224 240.240,163.702 241.453,163.240 242.496 C 162.778 243.538,162.400 244.485,162.400 244.600 C 162.400 244.715,162.046 245.572,161.612 246.504 C 161.179 247.437,159.631 251.080,158.171 254.600 C 155.190 261.790,153.353 266.170,150.622 272.600 C 148.208 278.283,148.180 278.363,148.974 277.299 C 149.344 276.804,150.555 274.194,151.666 271.499 C 152.778 268.805,154.018 265.865,154.422 264.968 C 154.827 264.070,155.542 262.360,156.010 261.168 C 156.479 259.975,157.137 258.370,157.472 257.600 C 157.807 256.830,158.220 255.840,158.390 255.400 C 158.560 254.960,159.104 253.700,159.600 252.600 C 160.096 251.500,160.641 250.240,160.811 249.800 C 160.981 249.360,161.498 248.147,161.960 247.104 C 162.422 246.062,162.800 245.121,162.800 245.014 C 162.800 244.907,163.340 243.641,164.000 242.200 C 164.660 240.759,165.200 239.493,165.200 239.386 C 165.200 239.279,165.533 238.428,165.941 237.496 C 167.013 235.041,168.134 232.384,170.200 227.400 C 171.203 224.980,172.198 222.595,172.412 222.100 C 172.625 221.605,172.980 220.750,173.200 220.200 C 174.179 217.753,174.516 216.955,174.847 216.305 C 175.962 214.113,174.951 209.503,172.866 207.271 C 170.807 205.066,165.050 203.425,164.200 204.800 M84.580 216.040 C 84.011 217.162,83.613 218.147,83.695 218.229 C 83.777 218.311,84.327 217.393,84.918 216.189 C 85.508 214.985,85.906 214.000,85.802 214.000 C 85.698 214.000,85.148 214.918,84.580 216.040 M106.000 217.231 C 96.124 221.692,94.519 238.276,103.241 245.742 C 112.775 253.903,125.805 241.576,122.215 227.794 C 119.941 219.062,112.572 214.262,106.000 217.231 M114.557 218.021 C 116.721 219.102,119.307 221.803,120.258 223.976 C 121.631 227.111,121.590 226.960,122.255 231.500 C 122.610 233.922,121.256 239.225,119.624 241.800 C 112.407 253.195,98.000 246.932,98.000 232.400 C 98.000 221.500,106.589 214.042,114.557 218.021 M82.977 219.443 C 82.844 219.859,82.570 220.613,82.367 221.119 C 82.165 221.624,82.013 222.344,82.029 222.719 C 82.045 223.093,82.405 222.424,82.828 221.232 C 83.251 220.040,83.512 218.979,83.408 218.875 C 83.304 218.771,83.110 219.026,82.977 219.443 M81.456 224.484 C 81.321 224.988,81.228 225.850,81.249 226.400 C 81.272 226.989,81.431 226.671,81.636 225.625 C 82.003 223.752,81.873 222.927,81.456 224.484 M80.705 230.300 C 80.590 231.565,80.629 233.590,80.792 234.800 C 81.042 236.663,81.096 236.312,81.144 232.500 C 81.205 227.581,81.031 226.708,80.705 230.300 M138.664 238.916 C 137.638 245.103,134.410 251.458,130.009 255.952 C 128.869 257.117,128.014 258.147,128.109 258.243 C 128.519 258.653,133.928 252.335,135.280 249.869 C 137.428 245.947,139.357 240.089,139.126 238.188 C 139.003 237.181,138.933 237.291,138.664 238.916 M81.275 238.600 C 81.265 239.260,81.411 240.160,81.600 240.600 L 81.944 241.400 81.925 240.600 C 81.914 240.160,81.768 239.260,81.600 238.600 L 81.295 237.400 81.275 238.600 M82.058 242.200 C 82.059 242.640,82.406 243.720,82.829 244.600 C 83.621 246.247,83.482 245.278,82.571 242.800 C 82.258 241.948,82.057 241.713,82.058 242.200 M83.600 246.553 C 83.600 246.982,84.790 249.200,85.021 249.200 C 85.131 249.200,84.923 248.615,84.559 247.900 C 83.817 246.440,83.600 246.136,83.600 246.553 M85.200 249.822 C 85.200 251.524,92.890 259.487,96.308 261.325 C 99.128 262.841,98.983 262.405,96.133 260.797 C 93.368 259.237,89.025 255.010,86.991 251.900 C 85.573 249.732,85.200 249.299,85.200 249.822 M125.400 259.861 C 124.300 260.640,122.620 261.635,121.667 262.072 C 120.713 262.509,120.029 262.963,120.146 263.079 C 120.418 263.352,125.028 260.747,126.600 259.432 C 128.313 258.000,127.736 258.206,125.400 259.861 M100.336 263.264 C 101.291 263.703,102.171 263.962,102.293 263.840 C 102.415 263.718,102.174 263.511,101.757 263.380 C 101.341 263.249,100.687 262.975,100.305 262.771 C 99.923 262.567,99.383 262.415,99.105 262.434 C 98.827 262.452,99.381 262.826,100.336 263.264 M135.850 264.391 C 134.947 266.647,135.087 266.983,136.037 264.842 C 136.466 263.875,136.745 263.012,136.658 262.925 C 136.571 262.838,136.208 263.498,135.850 264.391 M118.000 263.600 C 117.467 263.945,117.467 263.988,118.000 263.988 C 118.330 263.988,118.870 263.813,119.200 263.600 C 119.733 263.255,119.733 263.212,119.200 263.212 C 118.870 263.212,118.330 263.387,118.000 263.600 M103.600 264.400 C 104.150 264.576,105.050 264.720,105.600 264.720 L 106.600 264.720 105.600 264.400 C 105.050 264.224,104.150 264.080,103.600 264.080 L 102.600 264.080 103.600 264.400 M114.600 264.400 L 113.800 264.744 114.600 264.732 C 115.040 264.726,115.850 264.576,116.400 264.400 L 117.400 264.080 116.400 264.068 C 115.850 264.062,115.040 264.211,114.600 264.400 M108.691 265.089 C 109.401 265.177,110.661 265.179,111.491 265.092 C 112.321 265.005,111.740 264.933,110.200 264.931 C 108.660 264.929,107.981 265.000,108.691 265.089 M134.223 268.206 C 133.360 270.272,133.474 270.506,134.447 268.662 C 134.893 267.816,135.165 267.032,135.052 266.919 C 134.939 266.806,134.566 267.385,134.223 268.206 M132.633 272.033 C 132.240 272.924,132.005 273.738,132.109 273.843 C 132.214 273.948,132.600 273.283,132.967 272.367 C 133.834 270.200,133.562 269.928,132.633 272.033 M130.205 277.849 C 129.872 278.646,129.600 279.360,129.600 279.437 C 129.600 279.514,129.172 280.527,128.650 281.688 C 125.746 288.139,122.575 295.984,123.107 295.400 C 123.308 295.180,123.713 294.370,124.007 293.600 C 124.301 292.830,124.946 291.297,125.440 290.193 C 125.934 289.089,126.722 287.214,127.190 286.025 C 127.658 284.837,128.383 283.115,128.800 282.200 C 130.020 279.522,131.204 276.400,131.000 276.400 C 130.896 276.400,130.538 277.052,130.205 277.849 M170.000 276.800 C 169.670 277.013,168.913 277.191,168.319 277.194 C 167.724 277.197,166.734 277.402,166.119 277.650 C 163.512 278.698,162.949 278.929,162.000 279.343 C 158.491 280.872,153.832 285.099,151.138 289.200 C 149.963 290.988,149.963 290.991,151.076 289.600 C 158.166 280.745,165.021 277.088,174.496 277.103 C 176.663 277.107,178.294 276.952,178.172 276.755 C 177.875 276.274,170.753 276.313,170.000 276.800 M180.629 277.800 C 203.966 284.095,211.085 316.469,193.024 334.167 C 191.471 335.689,190.631 336.644,191.157 336.290 C 205.181 326.842,207.975 303.070,196.795 288.317 C 193.287 283.688,185.584 278.000,182.822 278.000 C 182.396 278.000,181.936 277.820,181.800 277.600 C 181.664 277.380,180.888 277.212,180.076 277.226 C 178.623 277.252,178.631 277.261,180.629 277.800 M146.623 281.806 C 145.760 283.872,145.874 284.106,146.847 282.262 C 147.293 281.416,147.565 280.632,147.452 280.519 C 147.339 280.406,146.966 280.985,146.623 281.806 M145.033 285.633 C 144.640 286.524,144.405 287.338,144.509 287.443 C 144.614 287.548,145.000 286.883,145.367 285.967 C 146.234 283.800,145.962 283.528,145.033 285.633 M143.564 289.094 C 143.335 289.696,142.872 290.821,142.533 291.594 C 142.195 292.367,141.757 293.405,141.559 293.900 C 141.362 294.395,141.024 295.205,140.808 295.700 C 138.996 299.865,137.644 303.377,137.795 303.528 C 137.895 303.629,138.144 303.281,138.348 302.755 C 139.353 300.162,140.520 297.268,141.031 296.100 C 141.344 295.385,141.856 294.215,142.169 293.500 C 143.371 290.752,144.380 288.000,144.184 288.000 C 144.072 288.000,143.793 288.492,143.564 289.094 M148.242 294.100 C 146.375 298.150,145.997 299.138,146.019 299.919 C 146.030 300.293,146.318 299.790,146.661 298.800 C 147.003 297.810,147.883 295.695,148.616 294.100 C 149.348 292.505,149.865 291.200,149.764 291.200 C 149.662 291.200,148.978 292.505,148.242 294.100 M169.809 294.425 C 158.349 300.142,159.149 321.503,170.955 325.009 C 184.201 328.943,192.578 307.841,182.000 297.187 C 178.530 293.693,173.543 292.563,169.809 294.425 M176.705 294.353 C 177.087 294.548,177.903 294.943,178.519 295.231 C 190.883 301.025,187.241 324.800,173.989 324.800 C 160.047 324.800,157.560 299.633,171.000 294.549 C 172.480 293.990,175.768 293.877,176.705 294.353 M145.431 302.059 C 141.829 323.929,155.299 342.654,174.400 342.330 L 177.800 342.272 173.600 341.970 C 155.351 340.656,143.054 324.611,145.419 305.200 C 145.902 301.234,145.910 299.149,145.431 302.059 M119.418 303.418 C 119.072 304.246,118.871 305.005,118.971 305.105 C 119.071 305.205,119.436 304.609,119.782 303.782 C 120.128 302.954,120.329 302.195,120.229 302.095 C 120.129 301.995,119.764 302.591,119.418 303.418 M136.032 307.041 C 134.310 311.134,134.186 311.497,134.679 311.000 C 134.897 310.780,135.493 309.520,136.003 308.200 C 136.513 306.880,137.098 305.581,137.303 305.313 C 137.508 305.046,137.605 304.614,137.518 304.354 C 137.431 304.094,136.763 305.303,136.032 307.041 M115.423 313.006 C 115.081 313.826,114.800 314.560,114.800 314.637 C 114.800 314.714,114.368 315.727,113.839 316.888 C 109.663 326.065,109.892 330.991,114.600 333.259 C 115.040 333.471,114.903 333.258,114.295 332.785 C 110.350 329.718,110.235 326.301,113.796 317.949 C 115.224 314.599,116.314 311.781,116.219 311.686 C 116.125 311.591,115.766 312.185,115.423 313.006 M133.450 313.191 C 132.547 315.447,132.687 315.783,133.637 313.642 C 134.066 312.675,134.345 311.812,134.258 311.725 C 134.171 311.638,133.808 312.298,133.450 313.191 M131.818 317.018 C 131.472 317.846,131.271 318.605,131.371 318.705 C 131.471 318.805,131.836 318.209,132.182 317.382 C 132.528 316.554,132.729 315.795,132.629 315.695 C 132.529 315.595,132.164 316.191,131.818 317.018 M130.233 320.833 C 129.840 321.724,129.605 322.538,129.709 322.643 C 129.814 322.748,130.200 322.083,130.567 321.167 C 131.434 319.000,131.162 318.728,130.233 320.833 M128.000 326.201 C 126.310 330.644,124.940 332.411,122.232 333.641 C 121.334 334.049,120.919 334.386,121.308 334.391 C 122.471 334.406,125.123 332.500,126.172 330.898 C 127.188 329.344,128.943 325.200,128.584 325.200 C 128.472 325.200,128.209 325.651,128.000 326.201 M115.800 334.000 C 115.936 334.220,116.442 334.387,116.924 334.372 C 117.769 334.345,117.771 334.331,117.000 334.000 C 115.899 333.527,115.508 333.527,115.800 334.000 M189.380 337.171 C 189.171 337.374,187.830 338.149,186.400 338.893 C 183.997 340.141,183.081 340.485,179.200 341.592 L 177.800 341.991 179.400 341.771 C 182.643 341.326,192.263 336.800,189.966 336.800 C 189.853 336.800,189.589 336.967,189.380 337.171 " stroke="none" fill="#fb7483" fill-rule="evenodd"></path></g></svg>