<svg id="svg" version="1.1" xmlns="http://www.w3.org/2000/svg" xmlns:xlink="http://www.w3.org/1999/xlink" width="400" height="400" viewBox="0, 0, 400,400"><g id="svgg"><path id="path0" d="M129.800 100.000 C 129.664 100.220,129.113 100.400,128.576 100.400 C 128.039 100.400,127.600 100.580,127.600 100.800 C 127.600 101.020,127.412 101.200,127.182 101.200 C 126.540 101.200,124.800 103.086,124.800 103.782 C 124.800 104.122,124.620 104.400,124.400 104.400 C 124.180 104.400,124.000 105.120,124.000 106.000 C 124.000 106.880,123.820 107.600,123.600 107.600 C 123.352 107.600,123.200 109.800,123.200 113.400 C 123.200 117.000,123.048 119.200,122.800 119.200 C 122.551 119.200,122.400 121.459,122.400 125.176 C 122.400 128.729,122.238 131.253,122.000 131.400 C 121.762 131.547,121.600 134.071,121.600 137.624 C 121.600 141.341,121.449 143.600,121.200 143.600 C 120.952 143.600,120.800 145.792,120.800 149.376 C 120.800 152.796,120.637 155.254,120.400 155.400 C 120.162 155.547,120.000 158.071,120.000 161.624 C 120.000 165.341,119.849 167.600,119.600 167.600 C 119.154 167.600,119.026 177.292,119.466 177.733 C 119.612 177.879,120.467 177.573,121.366 177.052 C 126.810 173.897,133.522 170.920,139.600 168.965 C 144.407 167.419,145.492 167.126,150.500 166.027 C 164.986 162.846,182.839 163.468,197.000 167.646 C 227.199 176.556,251.462 198.348,261.970 226.000 C 262.681 227.870,263.428 229.713,263.631 230.095 C 263.834 230.477,264.000 231.064,264.000 231.400 C 264.000 231.736,264.162 232.323,264.361 232.705 C 264.560 233.087,264.940 234.210,265.207 235.200 C 265.474 236.190,265.833 237.450,266.004 238.000 C 266.293 238.933,266.796 241.290,267.622 245.600 C 268.916 252.346,269.155 270.176,268.041 276.800 C 266.902 283.571,266.005 287.686,265.207 289.800 C 265.041 290.240,264.512 291.860,264.032 293.400 C 263.552 294.940,263.012 296.560,262.833 297.000 C 259.132 306.085,256.659 310.877,252.334 317.348 C 246.000 326.823,238.895 334.360,229.600 341.461 C 226.818 343.587,222.161 346.800,221.863 346.800 C 221.763 346.800,220.538 347.485,219.141 348.322 C 212.272 352.438,201.216 356.843,193.800 358.421 C 192.700 358.655,190.990 359.018,190.000 359.227 C 183.201 360.665,174.225 361.334,166.000 361.017 C 159.846 360.780,158.131 360.592,152.400 359.531 C 138.029 356.868,124.421 351.069,112.534 342.540 C 108.119 339.373,108.400 339.276,108.400 343.957 C 108.400 346.386,108.240 348.000,108.000 348.000 C 107.751 348.000,107.600 350.259,107.600 353.976 C 107.600 357.529,107.438 360.053,107.200 360.200 C 106.962 360.347,106.800 362.863,106.800 366.400 C 106.800 369.937,106.638 372.453,106.400 372.600 C 106.164 372.746,106.000 375.130,106.000 378.400 C 106.000 381.670,105.836 384.054,105.600 384.200 C 105.380 384.336,105.200 386.057,105.200 388.024 C 105.200 390.141,105.363 391.600,105.600 391.600 C 105.820 391.600,106.000 392.055,106.000 392.611 C 106.000 393.740,109.158 397.200,110.189 397.200 C 110.525 397.200,110.800 397.380,110.800 397.600 C 110.800 397.866,158.400 398.000,252.800 398.000 C 347.200 398.000,394.800 397.866,394.800 397.600 C 394.800 397.380,395.215 397.200,395.722 397.200 C 396.229 397.200,397.354 396.548,398.222 395.751 L 399.800 394.302 399.702 379.673 C 399.640 370.548,399.452 364.892,399.202 364.642 C 398.970 364.410,398.800 361.816,398.800 358.520 C 398.800 354.973,398.648 352.800,398.400 352.800 C 398.151 352.800,398.000 350.467,398.000 346.600 C 398.000 342.733,397.849 340.400,397.600 340.400 C 397.351 340.400,397.200 338.133,397.200 334.400 C 397.200 330.667,397.049 328.400,396.800 328.400 C 396.551 328.400,396.400 326.133,396.400 322.400 C 396.400 318.667,396.249 316.400,396.000 316.400 C 395.751 316.400,395.600 314.133,395.600 310.400 C 395.600 306.667,395.449 304.400,395.200 304.400 C 394.952 304.400,394.800 302.208,394.800 298.624 C 394.800 295.204,394.637 292.746,394.400 292.600 C 394.162 292.453,394.000 289.937,394.000 286.400 C 394.000 282.863,393.838 280.347,393.600 280.200 C 393.363 280.054,393.200 277.596,393.200 274.176 C 393.200 270.592,393.048 268.400,392.800 268.400 C 392.551 268.400,392.400 266.067,392.400 262.200 C 392.400 258.790,392.245 256.000,392.056 256.000 C 391.867 256.000,391.504 250.645,391.249 244.100 C 390.994 237.555,390.604 229.500,390.382 226.200 C 390.161 222.900,389.885 217.545,389.770 214.300 C 389.652 210.988,389.393 208.400,389.180 208.400 C 388.957 208.400,388.800 205.931,388.800 202.424 C 388.800 198.871,388.638 196.347,388.400 196.200 C 388.164 196.054,388.000 193.623,388.000 190.256 C 388.000 187.123,387.830 184.389,387.621 184.180 C 387.413 183.971,387.142 181.100,387.019 177.800 C 386.897 174.500,386.698 169.145,386.578 165.900 C 386.456 162.594,386.193 160.000,385.980 160.000 C 385.757 160.000,385.600 157.522,385.600 154.000 C 385.600 150.267,385.449 148.000,385.200 148.000 C 384.951 148.000,384.800 145.741,384.800 142.024 C 384.800 138.471,384.638 135.947,384.400 135.800 C 384.163 135.654,384.000 133.196,384.000 129.776 C 384.000 126.192,383.848 124.000,383.600 124.000 C 383.351 124.000,383.200 121.667,383.200 117.800 C 383.200 113.933,383.049 111.600,382.800 111.600 C 382.567 111.600,382.400 110.267,382.400 108.400 C 382.400 106.533,382.233 105.200,382.000 105.200 C 381.780 105.200,381.600 104.925,381.600 104.589 C 381.600 103.558,378.140 100.400,377.011 100.400 C 376.455 100.400,376.000 100.220,376.000 100.000 C 376.000 99.184,326.379 99.480,325.757 100.300 C 325.341 100.847,325.223 103.774,325.213 113.700 L 325.200 126.400 313.000 126.400 L 300.800 126.400 300.800 113.633 C 300.800 106.611,300.691 100.581,300.557 100.233 C 300.185 99.263,205.815 99.263,205.443 100.233 C 205.309 100.581,205.200 106.611,205.200 113.633 L 205.200 126.400 192.859 126.400 L 180.519 126.400 180.714 113.876 C 180.857 104.732,180.783 101.116,180.441 100.476 L 179.972 99.600 155.010 99.600 C 138.799 99.600,129.961 99.740,129.800 100.000 " stroke="none" fill="#fb5d65" fill-rule="evenodd"></path><path id="path1" d="M245.000 2.400 C 244.864 2.620,243.593 2.800,242.176 2.800 C 240.725 2.800,239.600 2.975,239.600 3.200 C 239.600 3.420,238.700 3.600,237.600 3.600 C 236.500 3.600,235.600 3.780,235.600 4.000 C 235.600 4.220,234.981 4.400,234.224 4.400 C 233.467 4.400,232.736 4.580,232.600 4.800 C 232.464 5.020,231.823 5.200,231.176 5.200 C 230.529 5.200,230.000 5.380,230.000 5.600 C 230.000 5.820,229.460 6.000,228.800 6.000 C 228.140 6.000,227.600 6.180,227.600 6.400 C 227.600 6.620,227.251 6.800,226.824 6.800 C 226.397 6.800,225.936 6.980,225.800 7.200 C 225.664 7.420,225.203 7.600,224.776 7.600 C 224.349 7.600,224.000 7.780,224.000 8.000 C 224.000 8.220,223.685 8.401,223.300 8.402 C 222.915 8.404,222.084 8.674,221.454 9.002 C 220.824 9.331,220.059 9.600,219.754 9.600 C 219.449 9.600,219.200 9.780,219.200 10.000 C 219.200 10.220,218.840 10.400,218.400 10.400 C 217.960 10.400,217.597 10.535,217.594 10.700 C 217.590 10.865,216.690 11.440,215.594 11.979 C 214.497 12.517,213.600 13.102,213.600 13.279 C 213.600 13.455,213.375 13.603,213.100 13.607 C 212.590 13.615,210.597 15.084,208.906 16.700 C 208.388 17.195,207.809 17.600,207.620 17.600 C 207.194 17.600,196.608 28.085,195.099 30.002 C 193.396 32.165,192.000 34.385,192.000 34.929 C 192.000 35.201,191.640 35.683,191.200 36.000 C 190.760 36.317,190.400 36.897,190.400 37.288 C 190.400 37.680,190.220 38.000,190.000 38.000 C 189.780 38.000,189.600 38.360,189.600 38.800 C 189.600 39.240,189.420 39.600,189.200 39.600 C 188.980 39.600,188.800 39.960,188.800 40.400 C 188.800 40.840,188.620 41.200,188.400 41.200 C 188.180 41.200,188.000 41.470,188.000 41.800 C 188.000 42.130,187.820 42.400,187.600 42.400 C 187.380 42.400,187.200 42.634,187.200 42.920 C 187.200 43.656,186.259 45.593,185.900 45.597 C 185.735 45.599,185.600 45.949,185.600 46.376 C 185.600 46.803,185.420 47.264,185.200 47.400 C 184.980 47.536,184.800 48.087,184.800 48.624 C 184.800 49.161,184.620 49.600,184.400 49.600 C 184.180 49.600,184.000 50.140,184.000 50.800 C 184.000 51.460,183.820 52.000,183.600 52.000 C 183.380 52.000,183.200 52.540,183.200 53.200 C 183.200 53.860,183.020 54.400,182.800 54.400 C 182.580 54.400,182.400 55.120,182.400 56.000 C 182.400 56.880,182.220 57.600,182.000 57.600 C 181.780 57.600,181.600 58.399,181.600 59.376 C 181.600 60.353,181.420 61.264,181.200 61.400 C 180.980 61.536,180.800 62.807,180.800 64.224 C 180.800 65.641,180.628 66.800,180.417 66.800 C 179.653 66.800,179.879 99.044,180.651 100.222 C 181.252 101.138,181.297 102.516,181.103 113.821 L 180.887 126.400 192.843 126.400 L 204.800 126.400 204.800 113.689 C 204.800 103.126,204.900 100.835,205.391 100.135 C 205.881 99.435,206.007 96.637,206.129 83.746 C 206.218 74.315,206.451 67.413,206.723 66.200 C 206.969 65.100,207.289 63.570,207.435 62.800 C 207.581 62.030,207.838 61.220,208.005 61.000 C 208.173 60.780,208.436 59.836,208.590 58.902 C 208.744 57.968,209.034 57.103,209.235 56.978 C 209.436 56.854,209.600 56.403,209.600 55.976 C 209.600 55.549,209.780 55.200,210.000 55.200 C 210.220 55.200,210.400 54.840,210.400 54.400 C 210.400 53.960,210.580 53.600,210.800 53.600 C 211.020 53.600,211.200 53.280,211.200 52.888 C 211.200 52.497,211.560 51.917,212.000 51.600 C 212.440 51.283,212.800 50.703,212.800 50.312 C 212.800 49.920,212.950 49.600,213.132 49.600 C 213.315 49.600,213.719 49.105,214.030 48.500 C 214.340 47.895,214.911 47.109,215.297 46.753 C 215.684 46.397,216.000 45.892,216.000 45.629 C 216.000 45.367,216.180 45.264,216.400 45.400 C 216.620 45.536,216.800 45.352,216.800 44.992 C 216.800 44.336,218.292 42.790,221.814 39.800 C 222.850 38.920,224.134 37.795,224.667 37.300 C 225.200 36.805,225.909 36.400,226.242 36.400 C 226.575 36.400,226.736 36.220,226.600 36.000 C 226.464 35.780,226.633 35.600,226.976 35.600 C 227.319 35.600,227.600 35.420,227.600 35.200 C 227.600 34.980,227.878 34.800,228.217 34.800 C 228.556 34.800,229.220 34.440,229.692 34.000 C 230.164 33.560,230.787 33.200,231.075 33.200 C 231.364 33.200,231.600 33.020,231.600 32.800 C 231.600 32.580,231.872 32.400,232.205 32.400 C 232.538 32.400,233.168 32.220,233.605 32.000 C 234.042 31.780,234.758 31.420,235.195 31.200 C 235.632 30.980,236.262 30.800,236.595 30.800 C 236.928 30.800,237.200 30.620,237.200 30.400 C 237.200 30.180,237.740 30.000,238.400 30.000 C 239.060 30.000,239.600 29.820,239.600 29.600 C 239.600 29.380,240.230 29.200,241.000 29.200 C 241.770 29.200,242.400 29.020,242.400 28.800 C 242.400 28.580,243.300 28.400,244.400 28.400 C 245.500 28.400,246.400 28.220,246.400 28.000 C 246.400 27.750,248.859 27.600,252.976 27.600 C 256.929 27.600,259.651 27.760,259.800 28.000 C 259.936 28.220,260.847 28.400,261.824 28.400 C 262.801 28.400,263.600 28.580,263.600 28.800 C 263.600 29.020,264.219 29.200,264.976 29.200 C 265.733 29.200,266.464 29.380,266.600 29.600 C 266.736 29.820,267.197 30.000,267.624 30.000 C 268.051 30.000,268.400 30.180,268.400 30.400 C 268.400 30.620,268.940 30.800,269.600 30.800 C 270.260 30.800,270.800 30.980,270.800 31.200 C 270.800 31.420,271.160 31.600,271.600 31.600 C 272.040 31.600,272.400 31.780,272.400 32.000 C 272.400 32.220,272.760 32.400,273.200 32.400 C 273.640 32.400,274.000 32.580,274.000 32.800 C 274.000 33.020,274.360 33.200,274.800 33.200 C 275.240 33.200,275.600 33.380,275.600 33.600 C 275.600 33.820,275.870 34.000,276.200 34.000 C 276.530 34.000,276.800 34.180,276.800 34.400 C 276.800 34.620,277.036 34.800,277.325 34.800 C 277.613 34.800,278.236 35.160,278.708 35.600 C 279.180 36.040,279.727 36.400,279.924 36.400 C 280.121 36.400,280.811 36.906,281.459 37.525 C 282.106 38.144,283.663 39.426,284.918 40.373 C 286.173 41.321,287.200 42.266,287.200 42.474 C 287.200 42.682,288.100 43.729,289.200 44.800 C 290.300 45.871,291.200 47.030,291.200 47.374 C 291.200 47.718,291.358 48.000,291.551 48.000 C 291.745 48.000,292.133 48.555,292.414 49.234 C 292.695 49.913,293.125 50.678,293.368 50.934 C 294.107 51.710,297.207 58.150,297.203 58.900 C 297.201 59.285,297.380 59.600,297.600 59.600 C 297.820 59.600,298.000 60.140,298.000 60.800 C 298.000 61.460,298.180 62.000,298.400 62.000 C 298.620 62.000,298.800 62.720,298.800 63.600 C 298.800 64.480,298.980 65.200,299.200 65.200 C 299.422 65.200,299.600 66.267,299.600 67.600 C 299.600 68.933,299.778 70.000,300.000 70.000 C 300.259 70.000,300.400 75.205,300.400 84.814 C 300.400 97.582,300.486 99.760,301.026 100.584 C 301.666 101.560,301.637 116.607,300.981 123.700 L 300.732 126.400 312.966 126.400 L 325.200 126.400 325.200 113.424 C 325.200 105.204,325.347 100.357,325.600 100.200 C 326.095 99.894,326.156 70.000,325.662 70.000 C 325.476 70.000,325.211 67.639,325.073 64.754 C 324.935 61.869,324.659 59.304,324.461 59.054 C 324.100 58.599,323.745 57.102,323.335 54.300 C 323.215 53.475,322.955 52.800,322.758 52.800 C 322.561 52.800,322.400 52.361,322.400 51.824 C 322.400 51.287,322.220 50.736,322.000 50.600 C 321.780 50.464,321.600 49.924,321.600 49.400 C 321.600 48.876,321.420 48.336,321.200 48.200 C 320.980 48.064,320.800 47.603,320.800 47.176 C 320.800 46.749,320.620 46.400,320.400 46.400 C 320.180 46.400,320.000 46.051,320.000 45.624 C 320.000 45.197,319.820 44.736,319.600 44.600 C 319.380 44.464,319.200 44.003,319.200 43.576 C 319.200 43.149,319.065 42.799,318.900 42.797 C 318.563 42.793,317.600 40.875,317.600 40.209 C 317.600 39.971,317.240 39.517,316.800 39.200 C 316.360 38.883,316.000 38.303,316.000 37.912 C 316.000 37.520,315.820 37.200,315.600 37.200 C 315.380 37.200,315.200 36.880,315.200 36.488 C 315.200 36.097,314.840 35.517,314.400 35.200 C 313.960 34.883,313.600 34.343,313.600 34.000 C 313.600 33.657,313.240 33.117,312.800 32.800 C 312.360 32.483,312.000 32.037,312.000 31.810 C 312.000 31.582,311.280 30.631,310.400 29.697 C 309.520 28.763,308.800 27.840,308.800 27.647 C 308.800 27.117,300.924 19.200,300.396 19.200 C 300.144 19.200,299.246 18.480,298.400 17.600 C 297.554 16.720,296.618 16.000,296.320 16.000 C 296.021 16.000,295.517 15.640,295.200 15.200 C 294.883 14.760,294.343 14.400,294.000 14.400 C 293.657 14.400,293.117 14.040,292.800 13.600 C 292.483 13.160,292.066 12.800,291.873 12.800 C 291.681 12.800,291.046 12.467,290.462 12.061 C 288.764 10.880,284.800 8.802,284.800 9.094 C 284.800 9.240,284.584 9.144,284.320 8.880 C 284.056 8.616,283.516 8.400,283.120 8.400 C 282.724 8.400,282.400 8.220,282.400 8.000 C 282.400 7.780,281.860 7.600,281.200 7.600 C 280.540 7.600,280.000 7.420,280.000 7.200 C 280.000 6.980,279.640 6.800,279.200 6.800 C 278.760 6.800,278.400 6.620,278.400 6.400 C 278.400 6.180,277.871 6.000,277.224 6.000 C 276.577 6.000,275.936 5.820,275.800 5.600 C 275.664 5.380,275.023 5.200,274.376 5.200 C 273.729 5.200,273.200 5.020,273.200 4.800 C 273.200 4.580,272.480 4.400,271.600 4.400 C 270.720 4.400,270.000 4.220,270.000 4.000 C 270.000 3.780,269.291 3.600,268.424 3.600 C 267.557 3.600,266.736 3.420,266.600 3.200 C 266.464 2.980,265.013 2.800,263.376 2.800 C 261.659 2.800,260.400 2.631,260.400 2.400 C 260.400 2.147,257.608 2.000,252.824 2.000 C 248.204 2.000,245.151 2.156,245.000 2.400 M169.300 187.887 C 169.905 187.978,170.895 187.978,171.500 187.887 C 172.105 187.795,171.610 187.720,170.400 187.720 C 169.190 187.720,168.695 187.795,169.300 187.887 M161.000 188.661 C 126.206 194.278,100.194 220.265,96.598 253.000 C 96.453 254.320,96.247 255.715,96.140 256.100 C 95.963 256.738,96.364 256.800,100.679 256.800 C 107.281 256.800,109.600 258.285,109.600 262.514 C 109.600 266.793,107.604 268.168,101.152 268.332 C 96.538 268.450,95.987 268.538,96.150 269.132 C 96.252 269.499,96.453 270.880,96.598 272.200 C 98.853 292.726,111.487 312.851,129.604 324.776 C 134.616 328.075,142.471 331.880,147.150 333.276 C 152.847 334.975,154.370 335.334,159.600 336.214 C 164.786 337.087,164.297 337.521,164.459 331.900 C 164.618 326.378,165.147 325.086,167.753 323.849 C 170.404 322.591,173.914 323.619,175.409 326.092 C 176.746 328.303,176.588 336.450,175.200 336.840 C 174.650 336.994,174.348 337.138,174.529 337.160 C 175.122 337.232,187.375 335.172,188.400 334.828 C 188.950 334.644,190.210 334.271,191.200 334.000 C 193.752 333.301,195.154 332.815,197.096 331.953 C 198.028 331.539,198.948 331.200,199.140 331.200 C 200.016 331.200,207.353 327.127,211.547 324.312 C 229.196 312.466,241.062 293.706,244.002 273.000 C 244.252 271.240,244.527 269.440,244.612 269.000 C 244.760 268.236,244.585 268.206,240.698 268.328 C 233.425 268.558,231.198 267.197,231.201 262.526 C 231.205 258.111,233.461 256.693,240.194 256.876 C 244.584 256.995,244.761 256.968,244.612 256.200 C 244.527 255.760,244.252 253.960,244.002 252.200 C 239.575 221.020,215.742 195.676,185.200 189.669 C 175.712 187.803,176.400 187.597,176.400 192.303 C 176.400 196.897,176.006 198.533,174.527 200.076 C 171.474 203.262,165.488 201.738,164.653 197.563 C 164.180 195.201,164.359 188.483,164.900 188.265 C 165.674 187.953,164.897 188.032,161.000 188.661 M172.451 211.365 C 176.361 213.003,176.400 213.248,176.400 235.868 L 176.400 255.142 177.454 255.971 C 178.470 256.771,178.965 256.800,191.354 256.801 C 203.381 256.803,204.281 256.853,205.478 257.582 C 209.097 259.789,209.291 264.854,205.851 267.308 C 204.631 268.178,204.265 268.205,191.071 268.400 C 178.691 268.583,177.509 268.660,177.149 269.305 C 175.907 271.527,169.878 272.744,166.697 271.415 C 160.774 268.940,158.916 261.279,163.064 256.433 L 164.400 254.873 164.400 235.462 C 164.400 222.685,164.546 215.667,164.827 214.926 C 166.061 211.669,169.426 210.098,172.451 211.365 M95.750 262.600 C 95.751 265.020,95.816 265.958,95.896 264.685 C 95.976 263.412,95.975 261.432,95.894 260.285 C 95.814 259.138,95.749 260.180,95.750 262.600 M244.950 262.600 C 244.951 265.020,245.016 265.958,245.096 264.685 C 245.176 263.412,245.175 261.432,245.094 260.285 C 245.014 259.138,244.949 260.180,244.950 262.600 M169.100 337.489 C 169.815 337.578,170.985 337.578,171.700 337.489 C 172.415 337.401,171.830 337.328,170.400 337.328 C 168.970 337.328,168.385 337.401,169.100 337.489 " stroke="none" fill="#d9eff3" fill-rule="evenodd"></path><path id="path2" d="M180.270 100.000 C 180.452 100.330,180.696 105.100,180.814 110.600 L 181.027 120.600 181.114 110.776 C 181.188 102.347,181.111 100.843,180.570 100.176 C 180.224 99.749,180.089 99.670,180.270 100.000 M300.747 110.892 C 300.922 123.933,301.503 123.708,301.560 110.576 C 301.590 103.776,301.469 101.173,301.100 100.668 C 300.697 100.116,300.628 102.095,300.747 110.892 M204.979 113.600 C 204.979 120.750,205.033 123.675,205.099 120.100 C 205.166 116.525,205.166 110.675,205.099 107.100 C 205.033 103.525,204.979 106.450,204.979 113.600 M180.531 123.800 C 180.533 125.340,180.605 125.921,180.692 125.091 C 180.779 124.261,180.777 123.001,180.689 122.291 C 180.600 121.581,180.529 122.260,180.531 123.800 M160.000 164.833 C 152.446 165.805,145.569 167.319,138.400 169.589 C 134.597 170.794,125.764 174.830,121.330 177.390 C 119.881 178.226,119.595 178.276,119.173 177.767 C 118.767 177.278,118.578 177.268,118.043 177.707 C 117.689 177.997,116.905 178.482,116.300 178.785 C 115.695 179.088,115.200 179.485,115.200 179.668 C 115.200 179.850,115.004 180.000,114.764 180.000 C 114.524 180.000,113.598 180.625,112.706 181.388 C 111.814 182.151,110.963 182.701,110.815 182.609 C 110.667 182.518,110.293 182.793,109.985 183.221 C 109.676 183.650,109.292 184.000,109.131 184.000 C 108.970 184.000,107.975 184.864,106.919 185.919 C 105.864 186.974,104.685 187.959,104.300 188.106 C 103.915 188.254,103.600 188.571,103.600 188.811 C 103.600 189.051,103.446 189.152,103.258 189.036 C 103.071 188.920,102.704 189.293,102.444 189.864 C 102.183 190.436,101.865 190.798,101.736 190.670 C 101.457 190.391,98.400 193.494,98.400 194.056 C 98.400 194.271,98.244 194.351,98.053 194.233 C 97.863 194.115,97.368 194.417,96.953 194.903 C 96.210 195.775,96.210 195.779,97.000 195.214 C 97.440 194.899,96.948 195.461,95.908 196.462 C 94.867 197.463,94.132 198.399,94.274 198.541 C 94.417 198.683,94.233 198.800,93.867 198.800 C 93.500 198.800,93.200 199.076,93.200 199.413 C 93.200 199.749,92.930 200.129,92.600 200.255 C 92.270 200.382,92.000 200.787,92.000 201.154 C 92.000 201.522,91.640 202.083,91.200 202.400 C 90.760 202.717,90.400 203.217,90.400 203.512 C 90.400 203.815,90.199 203.923,89.938 203.762 C 89.664 203.593,89.585 203.651,89.742 203.906 C 89.888 204.142,89.736 204.607,89.404 204.939 C 89.072 205.271,88.800 205.746,88.800 205.995 C 88.800 206.244,88.620 206.336,88.400 206.200 C 88.180 206.064,88.000 206.231,88.000 206.572 C 88.000 207.140,87.382 208.066,86.100 209.416 C 85.825 209.706,85.600 210.226,85.600 210.571 C 85.600 210.917,85.420 211.200,85.200 211.200 C 84.980 211.200,84.800 211.481,84.800 211.824 C 84.800 212.193,84.612 212.331,84.338 212.162 C 84.064 211.993,83.985 212.051,84.142 212.306 C 84.288 212.542,84.178 212.975,83.897 213.268 C 83.360 213.829,81.317 217.909,79.226 222.600 C 78.539 224.140,77.712 225.910,77.389 226.532 C 77.065 227.155,76.800 228.100,76.800 228.632 C 76.800 229.165,76.605 229.600,76.367 229.600 C 76.128 229.600,76.014 229.825,76.112 230.100 C 76.210 230.375,76.062 231.052,75.784 231.605 C 75.505 232.158,75.150 233.463,74.993 234.505 C 74.837 235.547,74.550 236.400,74.355 236.400 C 74.160 236.400,74.000 237.199,74.000 238.176 C 74.000 239.153,73.820 240.064,73.600 240.200 C 73.380 240.336,73.200 241.157,73.200 242.024 C 73.200 242.891,73.035 243.600,72.834 243.600 C 72.445 243.600,72.106 246.539,71.759 252.900 C 71.642 255.045,71.389 256.800,71.197 256.800 C 71.005 256.800,70.847 259.410,70.847 262.600 C 70.847 265.958,71.006 268.400,71.224 268.400 C 71.435 268.400,71.600 270.229,71.600 272.567 C 71.600 274.858,71.770 276.793,71.978 276.867 C 72.185 276.940,72.396 278.027,72.445 279.282 C 72.495 280.537,72.685 281.471,72.868 281.358 C 73.050 281.245,73.200 282.053,73.200 283.153 C 73.200 284.253,73.360 285.252,73.556 285.373 C 73.751 285.494,74.013 286.179,74.137 286.896 C 74.643 289.826,74.906 290.800,75.190 290.800 C 75.354 290.800,75.407 291.229,75.307 291.753 C 75.207 292.277,75.322 292.828,75.562 292.977 C 75.803 293.125,76.000 293.777,76.000 294.424 C 76.000 295.071,76.180 295.600,76.400 295.600 C 76.620 295.600,76.800 296.140,76.800 296.800 C 76.800 297.460,76.935 298.001,77.100 298.003 C 77.512 298.007,78.400 299.992,78.400 300.908 C 78.400 301.320,78.672 301.929,79.004 302.261 C 79.336 302.593,79.505 303.030,79.380 303.232 C 79.255 303.435,79.343 303.600,79.576 303.600 C 79.809 303.600,80.000 303.834,80.000 304.120 C 80.000 304.856,80.941 306.793,81.300 306.797 C 81.465 306.799,81.600 307.065,81.600 307.388 C 81.600 307.967,83.052 310.810,83.546 311.200 C 83.990 311.550,84.800 313.170,84.800 313.706 C 84.800 313.991,85.160 314.483,85.600 314.800 C 86.040 315.117,86.400 315.697,86.400 316.088 C 86.400 316.480,86.550 316.800,86.732 316.800 C 86.915 316.800,87.320 317.295,87.632 317.900 C 87.945 318.505,88.605 319.413,89.100 319.918 C 89.595 320.423,90.000 320.974,90.000 321.142 C 90.000 321.741,92.495 323.989,92.889 323.745 C 93.109 323.609,93.404 323.656,93.545 323.850 C 94.253 324.827,103.676 330.585,108.627 333.064 C 134.081 345.813,163.120 346.920,190.200 336.172 C 194.146 334.606,208.933 327.135,209.600 326.371 C 209.710 326.245,210.070 326.042,210.400 325.921 C 212.977 324.972,223.223 316.033,227.557 310.952 C 237.217 299.629,246.831 278.704,249.590 263.000 C 249.861 261.460,250.252 259.300,250.459 258.200 C 251.507 252.641,251.255 236.736,249.998 229.000 C 249.627 226.718,249.396 225.552,248.425 221.045 C 245.942 209.525,235.774 189.162,230.274 184.694 C 212.390 170.167,183.032 161.870,160.000 164.833 M174.410 188.000 C 180.953 188.771,185.771 189.650,190.200 190.879 C 218.777 198.815,239.800 222.774,244.005 252.200 C 244.257 253.960,244.629 256.264,244.831 257.320 C 245.305 259.787,245.305 265.413,244.831 267.880 C 244.629 268.936,244.257 271.240,244.005 273.000 C 241.041 293.740,229.196 312.466,211.547 324.312 C 207.353 327.127,200.016 331.200,199.140 331.200 C 198.948 331.200,198.028 331.539,197.096 331.953 C 195.154 332.815,193.752 333.301,191.200 334.000 C 190.210 334.271,188.950 334.644,188.400 334.828 C 187.149 335.248,175.893 337.077,172.394 337.429 C 168.912 337.779,157.430 336.166,151.200 334.451 C 144.843 332.701,143.680 332.255,137.204 329.076 C 104.539 313.043,88.103 274.398,99.405 240.200 C 108.811 211.736,131.313 193.077,161.600 188.627 C 169.034 187.535,170.047 187.485,174.410 188.000 " stroke="none" fill="#fbe35c" fill-rule="evenodd"></path><path id="path3" d="M166.900 164.298 C 168.825 164.371,171.975 164.371,173.900 164.298 C 175.825 164.225,174.250 164.165,170.400 164.165 C 166.550 164.165,164.975 164.225,166.900 164.298 M160.305 164.683 C 160.802 164.779,161.522 164.775,161.905 164.675 C 162.287 164.575,161.880 164.496,161.000 164.501 C 160.120 164.505,159.807 164.587,160.305 164.683 M180.600 164.813 C 182.140 165.017,184.570 165.380,186.000 165.619 C 190.600 166.388,191.166 166.448,190.000 166.043 C 188.430 165.498,184.084 164.829,180.800 164.626 L 177.800 164.441 180.600 164.813 M154.400 165.217 C 153.630 165.401,152.307 165.664,151.459 165.802 C 150.612 165.939,149.993 166.126,150.084 166.217 C 150.175 166.308,151.318 166.193,152.625 165.962 C 153.931 165.730,155.990 165.398,157.200 165.223 L 159.400 164.905 157.600 164.894 C 156.610 164.888,155.170 165.033,154.400 165.217 M147.000 166.819 C 146.442 167.071,146.685 167.107,147.800 166.938 C 148.680 166.804,149.475 166.628,149.567 166.547 C 149.910 166.244,147.768 166.471,147.000 166.819 M191.233 166.547 C 191.325 166.628,192.120 166.804,193.000 166.938 C 194.115 167.107,194.358 167.071,193.800 166.819 C 193.032 166.471,190.890 166.244,191.233 166.547 M194.833 167.344 C 194.925 167.423,195.540 167.608,196.200 167.756 C 197.076 167.952,197.238 167.915,196.800 167.618 C 196.260 167.253,194.432 166.998,194.833 167.344 M141.200 168.418 C 140.762 168.715,140.924 168.752,141.800 168.556 C 143.271 168.227,143.590 167.998,142.567 168.006 C 142.145 168.009,141.530 168.195,141.200 168.418 M197.633 168.144 C 197.725 168.223,198.340 168.408,199.000 168.556 C 199.876 168.752,200.038 168.715,199.600 168.418 C 199.060 168.053,197.232 167.798,197.633 168.144 M121.800 176.800 C 121.140 177.237,120.780 177.592,121.000 177.588 C 121.401 177.582,123.576 176.023,123.200 176.012 C 123.090 176.008,122.460 176.363,121.800 176.800 M218.400 176.764 C 218.950 177.214,219.580 177.583,219.800 177.585 C 220.228 177.588,219.505 177.034,218.200 176.360 C 217.669 176.085,217.736 176.221,218.400 176.764 M220.600 177.888 C 220.820 178.111,222.710 179.428,224.800 180.814 C 230.570 184.641,231.729 185.726,234.534 189.927 C 240.715 199.183,246.512 212.170,248.425 221.045 C 249.396 225.552,249.627 226.718,249.998 229.000 C 251.255 236.736,251.507 252.641,250.459 258.200 C 250.252 259.300,249.861 261.460,249.590 263.000 C 247.316 275.945,239.930 293.626,232.013 305.079 C 226.718 312.739,214.684 324.343,210.400 325.921 C 210.070 326.042,209.710 326.245,209.600 326.371 C 208.933 327.135,194.146 334.606,190.200 336.172 C 163.120 346.920,134.081 345.813,108.627 333.064 C 104.071 330.782,94.400 324.924,93.600 323.962 C 93.299 323.599,92.000 323.685,92.000 324.067 C 92.000 324.250,92.168 324.400,92.373 324.400 C 92.578 324.400,92.861 324.763,93.002 325.206 C 93.143 325.649,93.425 325.908,93.629 325.782 C 93.833 325.656,94.000 325.698,94.000 325.876 C 94.001 326.054,94.471 326.740,95.046 327.400 C 95.621 328.060,96.360 329.003,96.689 329.497 C 97.018 329.990,97.476 330.277,97.706 330.135 C 97.935 329.993,98.012 330.057,97.876 330.277 C 97.573 330.767,99.880 333.200,100.647 333.200 C 100.951 333.200,101.200 333.491,101.200 333.847 C 101.200 334.444,103.465 336.779,104.058 336.794 C 104.200 336.797,105.161 337.598,106.194 338.574 C 107.227 339.549,108.280 340.270,108.536 340.175 C 108.791 340.080,110.505 341.082,112.345 342.401 C 124.598 351.186,137.861 356.829,152.800 359.612 C 157.944 360.571,159.944 360.784,166.000 361.017 C 174.225 361.334,183.201 360.665,190.000 359.227 C 190.990 359.018,192.700 358.655,193.800 358.421 C 201.216 356.843,212.272 352.438,219.141 348.322 C 220.538 347.485,221.763 346.800,221.863 346.800 C 222.161 346.800,226.818 343.587,229.600 341.461 C 238.895 334.360,246.000 326.823,252.334 317.348 C 256.659 310.877,259.132 306.085,262.833 297.000 C 263.012 296.560,263.552 294.940,264.032 293.400 C 264.512 291.860,265.041 290.240,265.207 289.800 C 266.005 287.686,266.902 283.571,268.041 276.800 C 268.701 272.876,268.961 254.843,268.416 250.800 C 267.814 246.332,266.637 240.107,265.997 238.000 C 265.830 237.450,265.474 236.190,265.207 235.200 C 264.940 234.210,264.560 233.087,264.361 232.705 C 264.162 232.323,264.000 231.736,264.000 231.400 C 264.000 231.064,263.834 230.477,263.631 230.095 C 263.428 229.713,262.681 227.870,261.970 226.000 C 255.135 208.013,241.665 191.567,224.400 180.129 C 220.958 177.849,220.009 177.289,220.600 177.888 " stroke="none" fill="#fcd305" fill-rule="evenodd"></path><path id="path4" d="M164.900 188.265 C 164.359 188.483,164.180 195.201,164.653 197.563 C 165.767 203.134,174.411 203.142,176.008 197.573 C 176.685 195.210,176.513 188.529,175.767 188.243 C 175.016 187.955,165.622 187.974,164.900 188.265 M34.800 189.153 C 34.800 189.348,34.422 189.606,33.960 189.726 C 33.498 189.847,33.237 190.136,33.381 190.368 C 33.539 190.625,33.398 190.697,33.021 190.553 C 32.584 190.385,32.400 190.558,32.400 191.134 C 32.400 191.584,32.220 192.064,32.000 192.200 C 30.689 193.010,31.791 199.600,33.238 199.600 C 33.510 199.600,33.622 199.711,33.486 199.848 C 33.080 200.253,34.276 201.200,35.195 201.200 C 35.664 201.200,35.943 201.368,35.816 201.574 C 35.674 201.805,43.422 201.959,55.968 201.975 C 69.169 201.992,76.439 201.860,76.600 201.600 C 76.736 201.380,77.166 201.200,77.556 201.200 C 77.946 201.200,78.502 200.756,78.793 200.214 C 79.083 199.671,79.473 199.322,79.660 199.437 C 79.847 199.553,80.000 199.277,80.000 198.824 C 80.000 198.371,80.148 198.000,80.328 198.000 C 81.956 198.000,80.533 192.109,78.422 190.107 L 77.044 188.800 55.922 188.800 C 43.966 188.800,34.800 188.953,34.800 189.153 M168.200 211.365 C 164.424 213.043,164.400 213.196,164.400 235.462 L 164.400 254.873 163.064 256.433 C 158.916 261.279,160.774 268.940,166.697 271.415 C 169.878 272.744,175.907 271.527,177.149 269.305 C 177.509 268.660,178.691 268.583,191.071 268.400 C 204.265 268.205,204.631 268.178,205.851 267.308 C 209.291 264.854,209.097 259.789,205.478 257.582 C 204.281 256.853,203.381 256.803,191.354 256.801 C 178.965 256.800,178.470 256.771,177.454 255.971 L 176.400 255.142 176.400 235.868 C 176.400 224.530,176.239 216.034,176.010 215.233 C 175.046 211.874,171.266 210.002,168.200 211.365 M10.800 222.727 C 10.800 222.913,10.350 223.306,9.801 223.600 C 9.251 223.894,8.888 224.221,8.993 224.327 C 9.099 224.432,8.821 224.835,8.375 225.221 C 7.418 226.052,7.336 232.291,8.286 232.105 C 8.553 232.052,8.679 232.249,8.567 232.541 C 8.455 232.833,8.642 233.303,8.982 233.585 C 9.322 233.867,9.600 233.952,9.600 233.773 C 9.600 233.594,9.883 233.796,10.230 234.224 C 10.576 234.651,10.728 234.747,10.568 234.438 C 10.376 234.069,10.435 233.974,10.738 234.162 C 10.992 234.319,11.200 234.704,11.200 235.017 C 11.200 235.803,57.126 235.878,58.491 235.094 C 61.152 233.565,61.875 232.312,61.960 229.084 L 62.041 226.020 60.243 224.222 L 58.444 222.423 34.622 222.406 C 21.520 222.397,10.800 222.542,10.800 222.727 M1.661 257.589 L -0.078 259.179 0.061 263.022 C 0.180 266.313,0.315 266.948,1.000 267.440 C 1.440 267.756,2.121 268.285,2.513 268.615 C 4.202 270.035,31.142 269.275,29.714 267.848 C 29.578 267.711,29.685 267.600,29.952 267.600 C 31.459 267.600,32.356 265.732,32.356 262.590 C 32.356 259.708,31.771 257.963,31.048 258.686 C 30.911 258.822,30.800 258.633,30.800 258.267 C 30.800 257.844,30.471 257.598,29.900 257.594 C 29.281 257.590,29.160 257.486,29.514 257.261 C 30.900 256.382,26.547 256.000,15.153 256.000 L 3.400 256.000 1.661 257.589 M42.000 256.400 C 42.000 256.620,41.640 256.800,41.200 256.800 C 40.760 256.800,40.400 256.972,40.400 257.182 C 40.400 257.392,39.964 258.000,39.431 258.533 C 38.678 259.285,38.567 259.615,38.931 260.010 C 39.300 260.409,39.249 260.465,38.692 260.268 C 38.052 260.043,37.989 260.307,38.041 263.009 C 38.095 265.764,38.166 266.002,38.950 266.032 C 39.417 266.049,39.570 266.155,39.290 266.268 C 38.956 266.403,39.298 266.948,40.279 267.847 L 41.778 269.220 47.347 269.175 C 53.951 269.122,55.648 268.529,57.103 265.769 C 57.634 264.763,57.626 260.422,57.091 259.408 C 56.508 258.302,55.741 257.592,55.448 257.886 C 55.311 258.022,55.200 257.833,55.200 257.467 C 55.200 257.067,54.880 256.800,54.400 256.800 C 53.960 256.800,53.600 256.620,53.600 256.400 C 53.600 256.152,51.400 256.000,47.800 256.000 C 44.200 256.000,42.000 256.152,42.000 256.400 M96.000 262.632 L 96.000 268.464 101.169 268.332 C 107.603 268.168,109.600 266.789,109.600 262.514 C 109.600 258.291,107.279 256.800,100.706 256.800 L 96.000 256.800 96.000 262.632 M234.049 257.477 C 229.574 259.703,230.533 267.325,235.400 268.221 C 236.060 268.342,238.400 268.387,240.600 268.321 L 244.600 268.200 244.600 262.600 L 244.600 257.000 240.000 256.903 C 236.350 256.825,235.121 256.944,234.049 257.477 M11.408 290.013 C 11.645 290.397,11.097 290.563,10.060 290.421 C 9.763 290.380,9.638 290.539,9.783 290.773 C 9.929 291.008,9.772 291.200,9.436 291.200 C 9.031 291.200,8.911 291.424,9.081 291.866 C 9.252 292.313,9.183 292.436,8.868 292.242 C 8.569 292.057,8.400 292.249,8.400 292.776 C 8.400 293.229,8.220 293.600,8.000 293.600 C 7.364 293.600,7.500 299.157,8.152 299.810 C 8.456 300.113,8.841 300.235,9.007 300.081 C 9.173 299.926,9.223 300.070,9.117 300.400 C 9.012 300.730,9.384 301.397,9.944 301.883 L 10.963 302.766 34.736 302.781 L 58.508 302.797 60.276 301.029 L 62.044 299.262 61.961 296.157 C 61.875 292.887,61.161 291.640,58.500 290.113 C 57.424 289.495,11.027 289.397,11.408 290.013 M35.800 323.600 C 35.936 323.820,35.789 324.000,35.473 324.000 C 35.157 324.000,34.679 324.264,34.411 324.587 C 34.143 324.910,33.730 325.135,33.494 325.087 C 33.258 325.039,32.855 325.404,32.597 325.898 C 32.339 326.391,32.010 326.676,31.864 326.531 C 31.719 326.386,31.600 327.827,31.600 329.733 C 31.600 331.778,31.764 333.200,32.000 333.200 C 32.220 333.200,32.400 333.442,32.400 333.738 C 32.400 334.562,33.750 335.599,34.831 335.606 C 35.604 335.611,35.678 335.691,35.200 336.000 C 34.808 336.253,41.705 336.390,55.067 336.394 C 71.070 336.399,75.577 336.291,75.735 335.900 C 75.896 335.500,75.943 335.500,75.968 335.900 C 75.986 336.175,76.379 336.400,76.843 336.400 C 77.440 336.400,77.616 336.219,77.447 335.779 C 77.311 335.423,77.378 335.263,77.605 335.403 C 77.822 335.537,78.000 335.457,78.000 335.224 C 78.000 334.991,78.193 334.800,78.429 334.800 C 79.066 334.800,80.000 333.747,80.000 333.029 C 80.000 332.683,80.160 332.400,80.356 332.400 C 80.551 332.400,80.711 331.230,80.711 329.800 C 80.711 327.877,80.570 327.200,80.168 327.200 C 79.857 327.200,79.721 326.951,79.849 326.618 C 80.166 325.790,78.231 324.000,77.018 324.000 C 76.458 324.000,76.000 323.820,76.000 323.600 C 76.000 323.339,68.992 323.200,55.776 323.200 C 42.396 323.200,35.636 323.335,35.800 323.600 M167.687 323.865 C 165.138 325.122,164.617 326.414,164.460 331.866 L 164.320 336.732 166.583 337.015 C 169.536 337.384,175.496 337.064,176.054 336.506 C 176.831 335.729,176.322 327.635,175.399 326.092 C 173.921 323.617,170.307 322.574,167.687 323.865 " stroke="none" fill="#626363" fill-rule="evenodd"></path></g></svg>