<svg id="svg" version="1.1" xmlns="http://www.w3.org/2000/svg" xmlns:xlink="http://www.w3.org/1999/xlink" width="400" height="400" viewBox="0, 0, 400,400"><g id="svgg"><path id="path0" d="M41.200 21.200 C 41.200 21.420,40.885 21.601,40.500 21.603 C 38.929 21.610,38.800 23.040,38.800 40.480 C 38.800 51.360,38.940 57.200,39.200 57.200 C 39.420 57.200,39.600 57.451,39.600 57.757 C 39.600 58.763,40.609 58.800,67.772 58.800 C 97.001 58.800,96.400 58.845,96.400 56.653 C 96.400 56.294,96.580 56.000,96.800 56.000 C 97.060 56.000,97.200 50.400,97.200 40.000 C 97.200 29.600,97.060 24.000,96.800 24.000 C 96.580 24.000,96.400 23.722,96.400 23.382 C 96.400 23.042,95.958 22.322,95.418 21.782 L 94.436 20.800 67.818 20.800 C 50.339 20.800,41.200 20.937,41.200 21.200 M19.200 165.817 L 19.200 207.234 51.300 206.983 L 83.400 206.731 84.800 205.234 C 87.496 202.352,93.415 198.400,95.037 198.400 C 96.050 198.400,96.075 197.399,95.136 194.553 C 91.884 184.702,96.589 172.344,105.620 167.018 C 108.076 165.569,108.033 165.747,107.224 160.400 C 106.143 153.248,108.452 146.140,113.685 140.510 L 116.000 138.020 116.000 131.210 L 116.000 124.400 67.600 124.400 L 19.200 124.400 19.200 165.817 M182.400 131.900 C 182.400 132.069,182.760 132.432,183.200 132.707 C 183.640 132.982,184.000 133.069,184.000 132.900 C 184.000 132.731,183.640 132.368,183.200 132.093 C 182.760 131.818,182.400 131.731,182.400 131.900 " stroke="none" fill="#0b6b9e" fill-rule="evenodd"></path><path id="path1" d="M238.947 133.945 C 232.352 141.188,227.200 153.045,227.200 160.979 C 227.200 162.689,227.192 162.699,225.515 162.967 C 214.073 164.797,204.000 176.108,204.000 187.127 L 204.000 189.200 229.800 189.200 C 255.154 189.200,255.600 189.186,255.600 188.416 C 255.600 174.600,243.986 162.400,230.833 162.400 L 227.519 162.400 227.737 160.700 C 227.856 159.765,228.077 157.962,228.227 156.693 C 228.377 155.424,228.658 154.288,228.850 154.169 C 229.043 154.050,229.200 153.522,229.200 152.995 C 229.200 152.469,229.402 151.534,229.650 150.919 C 229.897 150.303,230.225 149.440,230.378 149.000 C 231.905 144.607,235.730 138.405,239.500 134.210 C 240.435 133.170,241.200 132.157,241.200 131.959 C 241.200 131.462,241.240 131.427,238.947 133.945 M300.000 153.235 C 300.000 153.436,298.751 153.600,297.224 153.600 C 295.697 153.600,294.336 153.780,294.200 154.000 C 294.064 154.220,293.434 154.400,292.800 154.400 C 292.166 154.400,291.536 154.580,291.400 154.800 C 291.264 155.020,290.803 155.200,290.376 155.200 C 289.949 155.200,289.600 155.380,289.600 155.600 C 289.600 155.820,289.396 156.000,289.147 156.000 C 288.898 156.000,288.403 156.317,288.047 156.704 C 287.691 157.092,286.680 157.943,285.800 158.596 C 281.696 161.640,278.033 166.439,276.607 170.640 C 275.850 172.868,275.727 172.703,278.527 173.220 C 284.004 174.233,288.121 176.447,291.485 180.188 C 294.661 183.720,295.920 186.441,296.934 191.958 C 297.452 194.774,297.566 194.882,300.800 195.612 C 302.010 195.885,303.825 196.522,304.833 197.027 L 306.667 197.946 309.425 195.333 C 313.534 191.440,318.826 188.225,324.200 186.356 C 325.080 186.050,326.025 185.588,326.300 185.329 C 326.927 184.737,327.022 173.200,326.400 173.200 C 326.180 173.200,326.000 172.660,326.000 172.000 C 326.000 171.340,325.820 170.800,325.600 170.800 C 325.380 170.800,325.200 170.321,325.200 169.735 C 325.200 167.467,320.797 161.348,317.600 159.174 C 316.830 158.650,315.851 157.902,315.425 157.511 C 314.998 157.120,314.413 156.800,314.125 156.800 C 313.836 156.800,313.600 156.620,313.600 156.400 C 313.600 156.180,313.240 156.000,312.800 156.000 C 312.360 156.000,312.000 155.820,312.000 155.600 C 312.000 155.380,311.460 155.200,310.800 155.200 C 310.140 155.200,309.600 155.020,309.600 154.800 C 309.600 154.580,309.060 154.400,308.400 154.400 C 307.740 154.400,307.200 154.220,307.200 154.000 C 307.200 153.772,306.022 153.600,304.467 153.600 C 302.963 153.600,301.608 153.475,301.455 153.322 C 301.023 152.889,300.000 152.829,300.000 153.235 M94.800 198.881 C 94.250 199.116,93.233 199.554,92.540 199.854 C 87.130 202.196,81.306 209.263,79.617 215.536 C 78.917 218.136,78.340 223.215,78.606 224.429 L 78.864 225.600 98.432 225.600 C 119.276 225.600,119.289 225.599,117.660 223.780 C 116.723 222.734,114.000 214.269,114.000 212.402 C 114.000 211.850,113.334 211.454,111.300 210.798 C 105.651 208.974,100.182 204.779,97.706 200.369 C 96.536 198.287,96.379 198.207,94.800 198.881 M160.206 201.400 C 160.392 204.535,160.801 206.753,161.244 207.027 C 161.440 207.148,161.600 207.856,161.600 208.600 C 161.600 209.344,161.780 210.064,162.000 210.200 C 162.577 210.557,162.486 209.782,161.555 206.400 C 161.100 204.750,160.579 202.410,160.396 201.200 L 160.064 199.000 160.206 201.400 M162.400 211.138 C 162.400 211.397,162.742 212.372,163.161 213.304 C 163.579 214.237,164.379 216.033,164.937 217.296 C 166.002 219.705,168.381 223.571,169.740 225.100 L 170.539 226.000 213.646 226.000 C 237.355 226.000,256.836 225.865,256.938 225.700 C 257.040 225.535,237.734 225.447,214.036 225.504 C 173.365 225.601,170.909 225.568,170.261 224.904 C 168.879 223.486,166.212 218.899,164.517 215.022 C 162.724 210.923,162.400 210.329,162.400 211.138 M281.800 270.366 C 280.480 270.739,277.150 271.905,274.400 272.957 C 271.650 274.009,267.600 275.555,265.400 276.394 C 263.200 277.233,259.420 278.676,257.000 279.600 C 254.580 280.524,251.160 281.819,249.400 282.478 C 245.501 283.938,244.875 284.179,243.600 284.708 C 240.987 285.794,236.167 287.604,235.896 287.602 C 235.728 287.601,234.828 287.939,233.896 288.353 C 232.963 288.767,231.570 289.325,230.800 289.593 C 229.441 290.066,228.571 290.401,226.700 291.170 C 226.205 291.373,224.000 292.199,221.800 293.005 C 219.600 293.812,217.440 294.618,217.000 294.798 C 216.560 294.977,214.670 295.698,212.800 296.400 C 210.930 297.102,209.040 297.822,208.600 297.999 C 208.160 298.177,206.720 298.717,205.400 299.200 C 204.080 299.683,202.550 300.265,202.000 300.493 C 200.727 301.020,200.123 301.252,196.100 302.762 C 194.285 303.443,191.405 304.529,189.700 305.176 C 187.995 305.823,183.900 307.368,180.600 308.610 C 173.749 311.186,165.587 314.307,161.200 316.028 C 157.712 317.396,157.271 317.444,156.898 316.500 C 156.680 315.946,156.578 316.044,156.411 316.970 C 156.237 317.936,155.850 318.276,154.200 318.911 C 153.100 319.335,151.840 319.824,151.400 319.998 C 147.259 321.634,146.201 322.000,145.608 322.000 C 144.407 322.000,135.541 325.368,133.199 326.714 C 132.429 327.157,127.120 329.271,121.400 331.412 C 102.443 338.509,99.014 341.171,96.388 350.827 C 93.145 362.753,103.350 378.304,114.476 378.392 C 115.068 378.396,115.664 378.580,115.800 378.800 C 116.143 379.355,303.600 379.355,303.600 378.800 C 303.600 378.580,304.410 378.400,305.400 378.400 C 306.390 378.400,307.200 378.220,307.200 378.000 C 307.200 377.780,307.543 377.600,307.962 377.600 C 308.869 377.600,312.000 375.992,312.000 375.526 C 312.000 375.347,312.342 375.200,312.759 375.200 C 313.679 375.200,317.031 371.992,318.649 369.564 C 319.988 367.554,320.578 366.315,321.983 362.561 C 323.020 359.790,322.124 349.422,320.434 344.638 C 319.975 343.339,319.600 341.791,319.600 341.198 C 319.600 340.605,319.441 339.598,319.246 338.960 C 319.052 338.322,318.676 336.540,318.411 335.000 C 318.146 333.460,317.679 330.850,317.373 329.200 C 316.720 325.674,314.574 313.963,314.002 310.800 C 310.488 291.376,308.904 284.453,307.236 281.228 C 302.503 272.079,291.842 267.525,281.800 270.366 M123.424 276.187 C 123.851 276.510,124.337 276.780,124.504 276.787 C 128.254 276.944,142.474 288.038,146.462 293.917 C 147.165 294.953,148.170 296.323,148.696 296.962 C 149.222 297.601,150.630 300.120,151.826 302.561 C 153.022 305.001,154.000 306.750,154.000 306.448 C 154.000 305.402,149.937 297.907,147.718 294.860 C 142.294 287.412,134.449 280.937,125.925 276.875 C 123.021 275.491,122.207 275.267,123.424 276.187 M154.012 307.286 C 154.005 307.443,154.268 308.362,154.596 309.327 C 154.924 310.293,155.449 312.144,155.763 313.441 C 156.188 315.197,156.342 315.485,156.367 314.566 C 156.385 313.887,156.022 312.177,155.560 310.766 C 154.752 308.296,154.038 306.689,154.012 307.286 " stroke="none" fill="#f09918" fill-rule="evenodd"></path><path id="path2" d="M221.600 101.600 C 221.600 101.820,221.293 102.000,220.918 102.000 C 220.320 102.000,218.140 104.020,211.200 111.008 C 210.210 112.004,206.430 115.783,202.800 119.403 C 188.923 133.246,186.400 135.892,186.400 136.604 C 186.400 136.943,187.006 138.430,187.748 139.910 C 189.170 142.749,190.400 147.010,190.400 149.097 C 190.400 150.625,191.304 151.599,192.729 151.604 C 199.742 151.633,210.145 160.733,211.775 168.266 L 212.049 169.532 215.613 167.148 C 219.126 164.798,222.212 163.495,225.515 162.967 C 227.192 162.699,227.200 162.689,227.200 160.979 C 227.200 152.957,232.515 140.821,239.048 133.930 C 241.214 131.645,242.086 128.595,240.800 127.800 C 240.580 127.664,240.400 126.944,240.400 126.200 C 240.400 125.456,240.220 124.736,240.000 124.600 C 239.780 124.464,239.600 123.913,239.600 123.376 C 239.600 122.839,239.420 122.400,239.200 122.400 C 238.980 122.400,238.800 122.040,238.800 121.600 C 238.800 121.160,238.620 120.800,238.400 120.800 C 238.180 120.800,238.000 120.260,238.000 119.600 C 238.000 118.940,237.820 118.400,237.600 118.400 C 237.380 118.400,237.200 118.040,237.200 117.600 C 237.200 117.160,237.020 116.800,236.800 116.800 C 236.580 116.800,236.400 116.440,236.400 116.000 C 236.400 115.560,236.220 115.200,236.000 115.200 C 235.780 115.200,235.600 114.964,235.600 114.675 C 235.600 114.387,235.240 113.764,234.800 113.292 C 234.360 112.820,234.000 112.156,234.000 111.817 C 234.000 111.478,233.820 111.200,233.600 111.200 C 233.380 111.200,233.200 110.992,233.200 110.738 C 233.200 110.484,232.480 109.591,231.600 108.754 C 230.720 107.917,230.000 107.041,230.000 106.807 C 230.000 106.148,225.693 102.000,225.009 102.000 C 224.674 102.000,224.400 101.820,224.400 101.600 C 224.400 101.380,223.770 101.200,223.000 101.200 C 222.230 101.200,221.600 101.380,221.600 101.600 M183.200 189.200 C 160.584 189.420,161.199 189.348,160.138 191.887 C 157.875 197.302,164.537 219.033,170.259 224.902 C 170.905 225.564,173.400 225.598,213.966 225.502 L 256.989 225.400 258.732 222.800 C 260.258 220.522,261.343 218.422,263.894 212.806 C 264.242 212.040,264.666 210.870,264.836 210.206 C 265.006 209.543,265.524 207.560,265.987 205.800 C 267.842 198.756,267.758 191.624,265.801 190.000 C 264.947 189.292,219.303 188.849,183.200 189.200 M31.344 277.217 C 28.292 278.626,20.915 283.257,20.340 284.125 C 20.198 284.340,19.778 284.401,19.409 284.259 C 18.949 284.082,18.272 284.477,17.268 285.505 C 16.461 286.333,15.305 287.327,14.700 287.714 C 14.095 288.101,13.600 288.608,13.600 288.841 C 13.600 289.073,12.919 289.924,12.086 290.731 C 10.107 292.650,8.400 294.928,8.400 295.649 C 8.400 295.965,8.040 296.483,7.600 296.800 C 7.160 297.117,6.800 297.697,6.800 298.088 C 6.800 298.480,6.642 298.800,6.449 298.800 C 6.255 298.800,5.873 299.340,5.600 300.000 C 5.327 300.660,4.945 301.200,4.751 301.200 C 4.558 301.200,4.400 301.740,4.400 302.400 C 4.400 303.060,4.220 303.600,4.000 303.600 C 3.780 303.600,3.600 303.960,3.600 304.400 C 3.600 304.840,3.420 305.200,3.200 305.200 C 2.980 305.200,2.800 305.560,2.800 306.000 C 2.800 306.440,2.620 306.800,2.400 306.800 C 2.180 306.800,2.000 307.340,2.000 308.000 C 2.000 308.660,1.839 309.200,1.642 309.200 C 1.445 309.200,1.190 309.875,1.074 310.700 C 0.959 311.525,0.651 313.190,0.391 314.400 C -0.260 317.425,0.017 336.872,0.715 337.105 C 0.982 337.194,1.200 337.882,1.200 338.633 C 1.200 339.385,1.380 340.000,1.600 340.000 C 1.820 340.000,2.000 340.540,2.000 341.200 C 2.000 341.860,2.180 342.400,2.400 342.400 C 2.620 342.400,2.800 342.749,2.800 343.176 C 2.800 343.603,2.980 344.064,3.200 344.200 C 3.420 344.336,3.600 344.887,3.600 345.424 C 3.600 345.961,3.780 346.400,4.000 346.400 C 4.220 346.400,4.400 346.760,4.400 347.200 C 4.400 347.640,4.580 348.000,4.800 348.000 C 5.020 348.000,5.200 348.360,5.200 348.800 C 5.200 349.240,5.380 349.600,5.600 349.600 C 5.820 349.600,6.000 349.920,6.000 350.312 C 6.000 350.703,6.360 351.283,6.800 351.600 C 7.240 351.917,7.600 352.457,7.600 352.800 C 7.600 353.143,7.950 353.676,8.379 353.985 C 8.807 354.293,9.080 354.670,8.986 354.822 C 8.651 355.364,16.795 364.400,17.618 364.400 C 17.863 364.400,18.754 365.120,19.600 366.000 C 20.446 366.880,21.382 367.600,21.680 367.600 C 21.979 367.600,22.483 367.960,22.800 368.400 C 23.117 368.840,23.614 369.200,23.905 369.200 C 24.196 369.200,24.789 369.531,25.223 369.936 C 25.658 370.341,26.505 370.926,27.107 371.235 C 27.708 371.545,28.290 371.889,28.400 372.000 C 28.510 372.111,29.050 372.407,29.600 372.659 C 30.150 372.910,31.608 373.585,32.840 374.158 C 34.072 374.731,35.557 375.200,36.140 375.200 C 36.723 375.200,37.200 375.380,37.200 375.600 C 37.200 375.820,37.740 376.000,38.400 376.000 C 39.060 376.000,39.600 376.180,39.600 376.400 C 39.600 376.620,40.219 376.800,40.976 376.800 C 41.733 376.800,42.464 376.980,42.600 377.200 C 42.736 377.420,43.467 377.600,44.224 377.600 C 44.981 377.600,45.600 377.780,45.600 378.000 C 45.600 378.229,46.800 378.400,48.400 378.400 C 50.000 378.400,51.200 378.571,51.200 378.800 C 51.200 379.063,62.275 379.200,83.624 379.200 C 105.137 379.200,115.964 379.065,115.800 378.800 C 115.664 378.580,115.068 378.396,114.476 378.392 C 103.350 378.304,93.145 362.753,96.388 350.827 C 99.014 341.171,102.443 338.509,121.400 331.412 C 127.120 329.271,132.429 327.157,133.199 326.714 C 135.541 325.368,144.407 322.000,145.608 322.000 C 146.195 322.000,148.013 321.368,151.400 319.988 C 151.840 319.809,153.073 319.347,154.139 318.962 C 155.206 318.577,156.173 318.015,156.288 317.715 C 157.191 315.362,151.824 300.770,148.624 296.876 C 148.138 296.284,147.165 294.953,146.462 293.917 C 142.972 288.772,133.161 280.648,127.100 277.884 C 126.275 277.508,124.975 276.912,124.211 276.560 C 122.826 275.921,122.816 275.924,121.174 277.329 C 118.867 279.304,113.333 281.398,108.314 282.195 C 106.125 282.543,106.076 283.119,108.079 284.955 C 115.829 292.061,114.392 297.965,105.027 297.487 C 101.281 297.297,95.563 295.903,92.600 294.458 C 91.720 294.029,89.958 293.217,88.684 292.654 C 87.411 292.091,84.744 290.543,82.758 289.215 C 78.374 286.283,79.138 286.266,74.429 289.400 C 72.281 290.830,70.424 292.000,70.302 292.000 C 70.179 292.000,68.577 292.692,66.740 293.538 C 49.139 301.641,38.186 297.043,48.438 285.855 C 51.444 282.574,51.375 282.023,47.953 282.005 C 45.098 281.991,38.536 279.305,36.242 277.212 L 34.600 275.714 31.344 277.217 " stroke="none" fill="#e44e4f" fill-rule="evenodd"></path><path id="path3" d="M46.400 70.586 C 46.400 81.829,46.436 82.391,47.174 82.786 C 48.238 83.355,86.962 83.355,88.026 82.786 C 88.764 82.391,88.800 81.829,88.800 70.586 L 88.800 58.800 67.600 58.800 L 46.400 58.800 46.400 70.586 M286.803 122.700 C 286.805 122.865,287.255 123.208,287.803 123.462 C 288.958 123.998,289.116 123.728,288.100 122.957 C 287.309 122.357,286.798 122.256,286.803 122.700 M67.500 124.300 L 116.000 124.403 116.000 131.212 L 116.000 138.020 113.685 140.510 C 108.452 146.140,106.143 153.248,107.224 160.400 C 108.033 165.747,108.076 165.569,105.620 167.018 C 96.589 172.344,91.884 184.702,95.136 194.553 C 96.122 197.541,96.056 198.400,94.836 198.400 C 94.402 198.400,93.918 198.608,93.761 198.863 C 93.562 199.185,93.738 199.246,94.337 199.063 C 94.812 198.918,95.515 198.703,95.900 198.584 C 96.423 198.423,96.879 198.869,97.706 200.353 C 100.438 205.259,109.640 211.600,114.026 211.600 C 114.188 211.600,114.320 208.702,114.320 205.160 C 114.320 201.010,114.476 198.564,114.760 198.280 C 115.002 198.038,115.200 197.257,115.200 196.544 C 115.200 195.831,115.380 195.136,115.600 195.000 C 115.820 194.864,116.000 194.439,116.000 194.056 C 116.000 191.652,117.590 190.671,123.800 189.244 C 126.298 188.670,137.513 188.597,139.285 189.142 C 140.008 189.365,141.749 189.837,143.154 190.190 C 144.558 190.544,146.437 191.186,147.329 191.617 C 148.221 192.047,149.186 192.400,149.475 192.400 C 149.764 192.400,150.000 192.580,150.000 192.800 C 150.000 193.020,150.270 193.200,150.600 193.200 C 150.930 193.200,151.200 193.380,151.200 193.600 C 151.200 193.820,151.436 194.000,151.725 194.000 C 152.013 194.000,152.636 194.360,153.108 194.800 C 153.580 195.240,154.151 195.600,154.376 195.600 C 154.602 195.600,155.644 196.426,156.693 197.435 C 160.071 200.684,160.169 200.659,159.860 196.641 C 159.278 189.071,158.110 189.444,183.200 189.200 L 203.800 189.000 204.053 186.200 C 204.522 181.017,206.930 175.361,210.441 171.197 C 212.269 169.030,212.264 168.561,210.371 164.768 C 208.425 160.869,206.218 158.320,202.382 155.541 C 199.413 153.390,195.056 151.614,192.729 151.604 C 191.304 151.599,190.400 150.625,190.400 149.097 C 190.400 147.010,189.170 142.749,187.748 139.910 C 187.006 138.430,186.400 136.948,186.400 136.615 C 186.400 135.946,185.490 134.694,184.082 133.427 C 180.863 130.529,180.189 130.000,179.722 130.000 C 179.435 130.000,179.200 129.820,179.200 129.600 C 179.200 129.380,178.930 129.200,178.600 129.200 C 178.270 129.200,178.000 129.020,178.000 128.800 C 178.000 128.580,177.730 128.400,177.400 128.400 C 177.070 128.400,176.800 128.209,176.800 127.976 C 176.800 127.743,176.639 127.652,176.443 127.773 C 176.117 127.975,173.055 127.108,171.587 126.399 C 170.675 125.957,161.263 125.975,160.989 126.418 C 160.859 126.628,160.343 126.800,159.843 126.800 C 159.343 126.800,158.808 126.925,158.655 127.078 C 158.502 127.231,158.157 127.392,157.888 127.436 C 156.868 127.603,151.644 130.311,151.883 130.550 C 152.021 130.687,151.923 130.800,151.667 130.800 C 151.410 130.800,151.114 130.804,151.009 130.808 C 150.779 130.818,147.563 134.202,146.490 135.563 C 145.749 136.503,143.200 136.147,143.200 135.102 C 143.200 134.936,142.840 134.800,142.400 134.800 C 141.960 134.800,141.600 134.620,141.600 134.400 C 141.600 134.180,141.150 134.000,140.600 134.000 C 140.050 134.000,139.600 133.840,139.600 133.645 C 139.600 133.020,137.146 132.699,131.064 132.527 C 126.976 132.411,125.208 132.490,125.387 132.780 C 125.547 133.039,125.175 133.200,124.418 133.200 C 123.742 133.200,122.877 133.360,122.495 133.556 C 122.113 133.752,120.900 134.337,119.800 134.856 C 118.700 135.375,117.740 135.935,117.667 136.100 C 117.080 137.420,116.800 135.516,116.800 130.200 L 116.800 124.000 67.900 124.098 L 19.000 124.197 67.500 124.300 M248.200 125.600 C 247.540 126.037,247.214 126.396,247.476 126.397 C 247.738 126.399,248.064 126.220,248.200 126.000 C 248.336 125.780,248.797 125.600,249.224 125.600 C 249.651 125.600,250.000 125.420,250.000 125.200 C 250.000 124.610,249.541 124.712,248.200 125.600 M289.774 129.042 C 289.930 129.899,290.315 130.826,290.628 131.101 C 290.997 131.426,291.057 131.433,290.799 131.121 C 290.579 130.857,290.400 130.057,290.400 129.344 C 290.400 128.631,290.195 127.921,289.945 127.766 C 289.617 127.563,289.569 127.920,289.774 129.042 M290.828 133.633 C 290.844 134.605,291.006 135.760,291.190 136.200 C 291.392 136.683,291.438 136.049,291.307 134.600 C 291.045 131.710,290.789 131.193,290.828 133.633 M291.004 144.900 C 290.664 145.896,290.536 149.237,290.830 149.418 C 290.996 149.521,291.192 148.433,291.266 147.002 C 291.398 144.428,291.336 143.927,291.004 144.900 M144.747 149.693 C 146.206 150.185,147.490 150.680,147.600 150.793 C 147.710 150.907,148.272 151.270,148.850 151.600 C 150.274 152.414,152.800 154.687,152.800 155.154 C 152.800 155.363,152.993 155.598,153.229 155.676 C 154.134 155.978,153.730 160.295,152.692 161.415 C 151.189 163.035,146.645 163.496,145.641 162.129 C 145.080 161.365,142.772 160.000,142.040 160.000 C 141.604 160.000,141.136 159.820,141.000 159.600 C 140.864 159.380,140.144 159.200,139.400 159.200 C 138.656 159.200,137.936 159.380,137.800 159.600 C 137.664 159.820,137.113 160.000,136.576 160.000 C 136.039 160.000,135.600 160.180,135.600 160.400 C 135.600 160.620,135.340 160.800,135.023 160.800 C 134.705 160.800,134.126 161.340,133.736 162.000 C 133.346 162.660,132.886 163.200,132.714 163.200 C 132.541 163.200,132.400 163.729,132.400 164.376 C 132.400 165.023,132.220 165.664,132.000 165.800 C 131.780 165.936,131.600 166.498,131.600 167.050 C 131.600 168.616,130.219 170.800,129.229 170.800 C 128.993 170.800,128.800 170.980,128.800 171.200 C 128.800 171.844,125.262 171.659,124.193 170.959 C 119.530 167.904,122.013 157.188,128.400 152.800 C 129.170 152.271,129.890 151.740,130.000 151.619 C 130.547 151.020,133.791 149.600,134.614 149.600 C 135.130 149.600,135.664 149.420,135.800 149.200 C 136.273 148.434,141.936 148.747,144.747 149.693 M290.187 150.600 C 290.084 150.930,289.916 151.470,289.813 151.800 C 289.709 152.130,289.779 152.400,289.967 152.400 C 290.155 152.400,290.388 151.860,290.485 151.200 C 290.672 149.931,290.503 149.591,290.187 150.600 M289.254 153.600 C 289.219 153.930,289.077 154.650,288.940 155.200 C 288.748 155.972,288.802 156.097,289.177 155.749 C 289.444 155.501,289.585 154.781,289.491 154.149 C 289.397 153.517,289.290 153.270,289.254 153.600 M174.200 164.800 C 174.336 165.020,174.887 165.200,175.424 165.200 C 175.961 165.200,176.400 165.336,176.400 165.502 C 176.400 165.669,176.985 166.063,177.700 166.379 C 179.330 167.099,182.912 170.700,183.644 172.354 C 183.947 173.039,184.331 173.600,184.498 173.600 C 185.314 173.600,184.773 177.760,183.789 179.050 C 182.017 181.374,176.000 181.611,176.000 179.357 C 176.000 179.051,175.832 178.800,175.627 178.800 C 175.422 178.800,175.146 178.461,175.015 178.048 C 174.716 177.104,173.661 175.951,172.501 175.300 C 171.442 174.705,166.800 174.624,166.800 175.200 C 166.800 175.420,166.607 175.600,166.371 175.600 C 165.803 175.600,165.272 176.192,163.615 178.674 C 159.016 185.564,151.384 179.821,155.389 172.485 C 156.783 169.932,160.915 166.000,162.205 166.000 C 162.532 166.000,162.800 165.820,162.800 165.600 C 162.800 165.380,163.239 165.200,163.776 165.200 C 164.313 165.200,164.864 165.020,165.000 164.800 C 165.140 164.573,167.130 164.400,169.600 164.400 C 172.070 164.400,174.060 164.573,174.200 164.800 M270.600 172.800 C 270.464 173.020,269.911 173.200,269.371 173.200 C 268.831 173.200,268.077 173.360,267.695 173.556 C 267.313 173.752,266.100 174.337,265.000 174.856 C 263.900 175.375,262.940 175.935,262.867 176.100 C 262.793 176.265,262.523 176.401,262.267 176.402 C 262.010 176.403,260.782 177.462,259.538 178.755 C 256.794 181.607,256.514 181.792,255.818 181.215 C 254.862 180.422,254.723 181.437,255.242 185.406 L 255.738 189.200 259.969 189.206 C 264.815 189.213,265.900 189.589,266.880 191.603 C 267.748 193.386,267.274 200.913,265.987 205.800 C 265.524 207.560,265.004 209.540,264.833 210.200 C 264.661 210.860,264.156 212.210,263.710 213.200 C 263.264 214.190,262.511 215.891,262.036 216.980 C 261.562 218.070,260.280 220.355,259.187 222.058 C 258.094 223.762,257.200 225.256,257.200 225.378 C 257.200 225.500,270.320 225.600,286.357 225.600 L 315.513 225.600 316.211 223.900 C 317.019 221.929,317.793 211.253,317.172 210.620 C 316.968 210.411,316.800 209.933,316.800 209.558 C 316.800 208.802,315.173 205.477,314.700 205.267 C 314.535 205.193,314.400 204.880,314.400 204.570 C 314.400 203.665,308.539 198.000,307.603 198.000 C 307.147 198.000,305.924 197.574,304.887 197.054 C 303.849 196.534,302.010 195.885,300.800 195.612 C 297.566 194.882,297.452 194.774,296.934 191.958 C 294.917 180.980,289.534 175.796,277.094 172.851 C 274.734 172.292,270.932 172.262,270.600 172.800 M332.600 183.600 C 332.464 183.820,332.723 184.000,333.176 184.000 C 333.629 184.000,334.000 183.820,334.000 183.600 C 334.000 183.380,333.741 183.200,333.424 183.200 C 333.107 183.200,332.736 183.380,332.600 183.600 M336.178 183.564 C 336.426 183.966,337.418 183.915,337.855 183.478 C 338.008 183.325,337.643 183.200,337.043 183.200 C 336.443 183.200,336.054 183.364,336.178 183.564 M339.800 183.600 C 340.893 184.069,341.200 184.069,341.200 183.600 C 341.200 183.380,340.705 183.213,340.100 183.228 C 339.125 183.253,339.091 183.295,339.800 183.600 M352.640 187.506 C 352.882 187.668,353.183 188.070,353.308 188.400 C 353.461 188.801,353.547 188.701,353.568 188.100 C 353.590 187.495,353.370 187.202,352.900 187.206 C 352.468 187.210,352.369 187.325,352.640 187.506 M353.605 190.009 C 354.101 190.936,354.400 191.024,354.400 190.243 C 354.400 189.936,354.126 189.580,353.791 189.452 C 353.294 189.261,353.259 189.364,353.605 190.009 M354.649 193.100 C 355.025 194.670,355.200 194.723,355.200 193.267 C 355.200 192.570,355.017 192.000,354.792 192.000 C 354.550 192.000,354.492 192.447,354.649 193.100 M355.386 196.743 C 355.478 197.482,355.653 198.187,355.776 198.310 C 356.162 198.695,356.008 196.631,355.604 196.000 C 355.328 195.570,355.267 195.780,355.386 196.743 M89.412 201.275 C 88.354 201.976,86.554 203.506,85.413 204.675 L 83.338 206.800 64.969 206.857 C 54.866 206.889,40.390 207.034,32.800 207.180 C 21.481 207.398,24.703 207.460,50.726 207.523 C 84.806 207.606,83.233 207.702,85.242 205.413 C 85.875 204.693,87.429 203.325,88.696 202.373 C 92.454 199.550,92.787 199.040,89.412 201.275 M355.552 207.000 C 355.314 208.599,355.400 209.134,355.827 208.707 C 355.951 208.582,355.994 207.787,355.922 206.940 L 355.791 205.400 355.552 207.000 M354.893 211.600 C 354.893 212.370,354.975 212.685,355.076 212.300 C 355.176 211.915,355.176 211.285,355.076 210.900 C 354.975 210.515,354.893 210.830,354.893 211.600 M353.057 217.084 C 352.923 217.478,352.636 218.205,352.419 218.700 C 351.779 220.164,352.303 219.725,353.034 218.186 C 353.403 217.408,353.614 216.681,353.503 216.570 C 353.392 216.459,353.192 216.690,353.057 217.084 M351.055 221.455 C 350.676 222.249,350.448 222.981,350.549 223.082 C 350.649 223.183,351.041 222.614,351.418 221.818 C 351.796 221.022,352.023 220.290,351.924 220.191 C 351.825 220.091,351.433 220.660,351.055 221.455 M364.832 262.131 C 364.814 262.313,365.491 263.123,366.335 263.931 C 367.179 264.739,368.188 265.850,368.577 266.400 C 368.965 266.950,369.174 267.130,369.042 266.800 C 368.909 266.470,368.689 265.885,368.554 265.500 C 368.418 265.115,368.148 264.800,367.953 264.800 C 367.759 264.800,367.600 264.607,367.600 264.371 C 367.600 263.747,366.553 262.800,365.862 262.800 C 365.535 262.800,365.176 262.575,365.065 262.300 C 364.954 262.025,364.849 261.949,364.832 262.131 M52.800 263.839 C 36.086 265.292,28.377 273.622,38.655 279.123 C 40.085 279.888,46.897 282.000,47.953 282.005 C 51.375 282.023,51.444 282.574,48.438 285.855 C 38.186 297.043,49.139 301.641,66.740 293.538 C 68.577 292.692,70.179 292.000,70.302 292.000 C 70.424 292.000,72.281 290.830,74.429 289.400 C 79.138 286.266,78.374 286.283,82.758 289.215 C 84.744 290.543,87.411 292.091,88.684 292.654 C 89.958 293.217,91.720 294.029,92.600 294.458 C 95.563 295.903,101.281 297.297,105.027 297.487 C 114.392 297.965,115.829 292.061,108.079 284.955 C 106.076 283.119,106.125 282.543,108.314 282.195 C 127.902 279.084,128.053 268.035,108.553 264.624 C 103.646 263.766,92.851 263.784,88.600 264.658 C 86.840 265.020,84.860 265.289,84.200 265.257 C 83.103 265.202,82.224 265.470,80.305 266.447 C 79.220 266.999,78.140 266.870,76.197 265.956 C 75.060 265.422,74.037 265.205,73.406 265.363 C 72.858 265.500,72.092 265.445,71.705 265.241 C 69.773 264.222,58.240 263.367,52.800 263.839 M355.843 265.033 C 355.693 265.423,355.782 265.606,356.075 265.508 C 356.673 265.309,357.002 264.400,356.476 264.400 C 356.261 264.400,355.976 264.685,355.843 265.033 M370.420 269.600 C 370.411 270.314,371.076 271.457,371.346 271.188 C 371.449 271.084,371.286 270.549,370.981 269.999 C 370.661 269.420,370.425 269.252,370.420 269.600 M372.406 273.500 C 372.424 274.377,373.188 274.959,373.194 274.100 C 373.197 273.605,373.020 273.200,372.800 273.200 C 372.580 273.200,372.403 273.335,372.406 273.500 M372.485 278.413 C 372.218 278.840,372.007 279.417,372.016 279.695 C 372.025 279.973,372.309 279.689,372.647 279.065 C 373.350 277.768,373.218 277.238,372.485 278.413 M367.371 282.971 C 366.948 283.281,366.691 283.625,366.801 283.735 C 366.911 283.845,367.348 283.681,367.771 283.371 C 368.195 283.062,368.452 282.718,368.342 282.608 C 368.232 282.498,367.795 282.662,367.371 282.971 M365.029 284.629 C 364.605 284.938,364.336 285.269,364.430 285.363 C 364.524 285.457,364.948 285.281,365.371 284.971 C 365.795 284.662,366.064 284.331,365.970 284.237 C 365.876 284.143,365.452 284.319,365.029 284.629 M362.700 285.876 C 362.315 285.976,362.000 286.343,362.000 286.691 C 362.000 287.238,362.109 287.225,362.800 286.600 C 363.480 285.984,363.846 285.486,363.500 285.646 C 363.445 285.672,363.085 285.775,362.700 285.876 M359.000 288.608 C 357.900 289.367,356.764 289.991,356.476 289.994 C 356.188 289.997,356.051 290.160,356.172 290.355 C 356.292 290.550,355.996 290.812,355.513 290.939 C 355.030 291.065,354.759 291.292,354.910 291.444 C 355.163 291.697,357.921 290.041,359.102 288.926 C 359.379 288.666,359.964 288.338,360.402 288.199 C 360.841 288.060,361.200 287.778,361.200 287.573 C 361.200 287.074,361.274 287.040,359.000 288.608 M389.600 294.800 L 387.800 295.080 389.400 295.134 C 390.280 295.163,391.270 295.013,391.600 294.800 C 391.930 294.587,392.020 294.437,391.800 294.466 C 391.580 294.496,390.590 294.646,389.600 294.800 M395.000 295.085 C 395.440 295.191,395.971 295.440,396.180 295.639 C 396.389 295.837,396.738 296.000,396.956 296.000 C 397.175 296.000,397.004 295.736,396.576 295.413 C 396.149 295.090,395.440 294.841,395.000 294.859 L 394.200 294.893 395.000 295.085 M345.994 297.218 C 345.447 297.639,345.238 297.986,345.529 297.991 C 346.086 298.000,347.404 296.871,347.142 296.608 C 347.057 296.524,346.541 296.798,345.994 297.218 M378.857 296.756 C 377.848 297.396,379.087 297.611,380.258 297.000 L 381.400 296.405 380.400 296.409 C 379.850 296.411,379.156 296.567,378.857 296.756 M398.000 297.753 C 398.000 298.083,398.180 298.464,398.400 298.600 C 398.620 298.736,398.800 298.577,398.800 298.247 C 398.800 297.917,398.620 297.536,398.400 297.400 C 398.180 297.264,398.000 297.423,398.000 297.753 M343.430 298.824 C 342.959 299.298,342.854 299.600,343.159 299.600 C 343.663 299.600,344.800 298.650,344.800 298.229 C 344.800 297.790,344.194 298.053,343.430 298.824 M370.400 298.400 C 369.912 298.715,369.964 298.789,370.676 298.794 C 371.158 298.797,371.664 298.620,371.800 298.400 C 372.115 297.891,371.188 297.891,370.400 298.400 M353.400 301.600 C 353.108 302.073,353.499 302.073,354.600 301.600 C 355.371 301.269,355.369 301.255,354.524 301.228 C 354.042 301.213,353.536 301.380,353.400 301.600 M335.400 304.400 C 334.542 304.968,334.400 305.195,334.900 305.197 C 335.285 305.199,335.600 305.008,335.600 304.773 C 335.600 304.531,335.989 304.443,336.500 304.569 C 336.995 304.692,337.174 304.689,336.898 304.562 C 336.621 304.435,336.497 304.167,336.621 303.966 C 336.948 303.437,336.745 303.509,335.400 304.400 M398.480 313.280 C 398.216 313.544,398.000 313.904,398.000 314.080 C 398.000 314.669,398.602 314.408,399.107 313.600 C 399.654 312.724,399.245 312.515,398.480 313.280 M383.000 317.200 C 382.860 317.427,383.196 317.600,383.776 317.600 C 384.339 317.600,384.800 317.420,384.800 317.200 C 384.800 316.980,384.451 316.800,384.024 316.800 C 383.597 316.800,383.136 316.980,383.000 317.200 M379.200 318.000 L 378.200 318.320 379.276 318.360 C 379.868 318.382,380.464 318.220,380.600 318.000 C 380.881 317.545,380.620 317.545,379.200 318.000 M376.200 318.378 C 375.760 318.555,375.277 318.629,375.128 318.543 C 374.978 318.457,374.752 318.554,374.626 318.758 C 374.304 319.279,376.357 319.003,376.908 318.452 C 377.423 317.937,377.322 317.927,376.200 318.378 M371.800 319.085 C 370.594 319.375,370.096 320.000,371.071 320.000 C 371.528 320.000,372.126 319.730,372.400 319.400 C 372.674 319.070,372.831 318.821,372.749 318.846 C 372.667 318.872,372.240 318.979,371.800 319.085 M362.600 321.014 C 361.599 321.473,361.541 321.567,362.251 321.582 C 362.719 321.592,363.326 321.330,363.600 321.000 C 364.183 320.297,364.166 320.297,362.600 321.014 M350.400 323.171 C 350.400 323.375,350.085 323.624,349.700 323.724 C 349.156 323.866,349.139 323.918,349.624 323.954 C 349.966 323.979,350.596 323.736,351.024 323.413 C 351.726 322.881,351.733 322.824,351.100 322.813 C 350.715 322.806,350.400 322.967,350.400 323.171 M345.400 324.252 C 344.405 324.738,344.371 324.795,345.200 324.584 C 345.750 324.445,346.830 324.187,347.600 324.011 C 348.972 323.698,348.976 323.692,347.800 323.678 C 347.140 323.671,346.060 323.929,345.400 324.252 M341.600 324.731 C 341.600 324.913,342.140 324.982,342.800 324.885 C 343.460 324.788,344.000 324.640,344.000 324.555 C 344.000 324.470,343.460 324.400,342.800 324.400 C 342.140 324.400,341.600 324.549,341.600 324.731 M337.233 325.344 C 337.325 325.423,337.940 325.608,338.600 325.756 C 339.476 325.952,339.638 325.915,339.200 325.618 C 338.660 325.253,336.832 324.998,337.233 325.344 M345.600 327.192 C 345.600 327.570,346.259 327.798,348.400 328.161 C 348.950 328.255,350.279 328.533,351.353 328.779 C 352.427 329.026,353.394 329.140,353.500 329.033 C 353.607 328.926,353.178 328.732,352.547 328.601 C 351.916 328.471,350.749 328.192,349.954 327.982 C 349.158 327.772,348.033 327.600,347.454 327.600 C 346.874 327.600,346.400 327.420,346.400 327.200 C 346.400 326.980,346.220 326.800,346.000 326.800 C 345.780 326.800,345.600 326.977,345.600 327.192 M354.033 329.343 C 354.476 329.722,356.817 329.951,356.596 329.594 C 356.462 329.377,355.793 329.200,355.110 329.200 C 354.426 329.200,353.942 329.264,354.033 329.343 M368.800 332.800 C 369.590 333.311,370.916 333.311,370.600 332.800 C 370.464 332.580,369.868 332.403,369.276 332.406 C 368.434 332.411,368.331 332.497,368.800 332.800 M384.911 341.400 C 384.939 342.390,385.106 343.200,385.281 343.200 C 385.457 343.200,385.600 342.390,385.600 341.400 C 385.600 340.410,385.433 339.600,385.230 339.600 C 385.026 339.600,384.883 340.410,384.911 341.400 M384.288 347.333 C 383.842 348.466,383.915 349.045,384.438 348.522 C 384.678 348.282,384.808 347.751,384.726 347.342 C 384.582 346.626,384.566 346.626,384.288 347.333 M329.400 347.600 C 329.536 347.820,330.042 347.997,330.524 347.994 C 331.236 347.989,331.288 347.915,330.800 347.600 C 330.012 347.091,329.085 347.091,329.400 347.600 M355.842 352.468 C 355.955 352.651,356.427 352.800,356.890 352.800 C 357.354 352.800,357.610 352.676,357.459 352.525 C 357.060 352.127,355.599 352.075,355.842 352.468 M368.474 354.608 C 368.612 354.745,369.327 354.952,370.062 355.067 C 371.811 355.339,371.391 354.915,369.600 354.600 C 368.843 354.467,368.337 354.470,368.474 354.608 M380.176 355.387 C 379.689 355.756,379.597 355.979,379.929 355.987 C 380.219 355.994,380.727 355.730,381.057 355.400 C 381.828 354.629,381.191 354.620,380.176 355.387 M373.200 355.652 C 373.200 355.844,373.860 356.000,374.667 356.000 C 376.398 356.000,376.274 355.663,374.467 355.452 C 373.770 355.371,373.200 355.461,373.200 355.652 " stroke="none" fill="#348c0c" fill-rule="evenodd"></path><path id="path4" d="M38.000 82.776 C 38.000 83.009,37.381 83.200,36.624 83.200 C 35.867 83.200,35.136 83.380,35.000 83.600 C 34.864 83.820,34.223 84.000,33.576 84.000 C 32.929 84.000,32.399 84.135,32.397 84.300 C 32.393 84.675,30.442 85.600,29.654 85.600 C 29.331 85.600,29.177 85.710,29.311 85.844 C 29.552 86.086,27.525 88.000,27.029 88.000 C 26.547 88.000,24.000 90.773,24.000 91.298 C 24.000 91.587,23.640 92.083,23.200 92.400 C 22.760 92.717,22.400 93.297,22.400 93.688 C 22.400 94.080,22.220 94.400,22.000 94.400 C 21.780 94.400,21.600 94.670,21.600 95.000 C 21.600 95.330,21.420 95.600,21.200 95.600 C 20.980 95.600,20.800 95.949,20.800 96.376 C 20.800 96.803,20.620 97.264,20.400 97.400 C 20.180 97.536,20.000 98.076,20.000 98.600 C 20.000 99.124,19.820 99.664,19.600 99.800 C 19.348 99.956,19.200 104.471,19.200 112.024 L 19.200 124.000 68.000 124.000 L 116.800 124.000 116.800 113.624 C 116.800 107.137,116.650 103.155,116.400 103.000 C 116.180 102.864,116.000 101.964,116.000 101.000 C 116.000 100.036,115.820 99.136,115.600 99.000 C 115.380 98.864,115.200 98.429,115.200 98.033 C 115.200 95.748,108.133 86.400,106.406 86.400 C 106.183 86.400,106.000 86.220,106.000 86.000 C 106.000 85.780,105.640 85.600,105.200 85.600 C 104.760 85.600,104.400 85.420,104.400 85.200 C 104.400 84.980,104.130 84.800,103.800 84.800 C 103.470 84.800,103.200 84.620,103.200 84.400 C 103.200 84.180,102.671 84.000,102.024 84.000 C 101.377 84.000,100.748 83.839,100.626 83.642 C 100.251 83.035,97.204 82.707,92.500 82.766 C 79.806 82.927,46.804 82.816,42.700 82.600 C 39.499 82.431,38.000 82.487,38.000 82.776 M261.800 120.400 C 261.664 120.620,261.203 120.800,260.776 120.800 C 260.349 120.800,260.000 120.980,260.000 121.200 C 260.000 121.420,259.608 121.600,259.128 121.600 C 258.012 121.600,255.798 122.306,253.959 123.247 C 253.167 123.653,252.427 123.894,252.316 123.783 C 252.205 123.672,251.886 123.855,251.608 124.190 C 251.330 124.526,250.854 124.800,250.551 124.800 C 250.248 124.800,250.000 124.980,250.000 125.200 C 250.000 125.420,249.728 125.600,249.395 125.600 C 248.552 125.600,247.331 126.309,245.431 127.900 C 245.102 128.175,244.673 128.400,244.476 128.400 C 243.942 128.400,241.636 130.702,241.903 130.969 C 242.029 131.096,241.923 131.200,241.667 131.200 C 241.410 131.200,241.200 131.452,241.200 131.759 C 241.200 132.067,240.435 133.170,239.500 134.210 C 235.730 138.405,231.905 144.607,230.378 149.000 C 230.225 149.440,229.897 150.303,229.650 150.919 C 229.402 151.534,229.200 152.469,229.200 152.995 C 229.200 153.522,229.043 154.050,228.850 154.169 C 228.658 154.288,228.377 155.424,228.227 156.693 C 228.077 157.962,227.856 159.765,227.737 160.700 L 227.519 162.400 230.833 162.400 C 240.836 162.400,250.219 169.466,254.366 180.123 C 254.607 180.740,254.970 181.142,255.174 181.016 C 255.378 180.890,255.658 180.970,255.796 181.193 C 256.246 181.921,256.698 181.638,259.297 179.000 C 260.706 177.570,262.056 176.400,262.296 176.400 C 262.537 176.400,262.793 176.265,262.867 176.100 C 262.940 175.935,263.900 175.375,265.000 174.856 C 266.100 174.337,267.313 173.752,267.695 173.556 C 268.077 173.360,268.806 173.200,269.315 173.200 C 269.824 173.200,270.411 173.030,270.620 172.821 C 270.829 172.613,272.144 172.388,273.542 172.321 L 276.084 172.200 276.660 170.490 C 278.020 166.457,281.755 161.597,285.800 158.596 C 288.049 156.927,288.711 156.121,289.022 154.667 C 289.172 153.970,289.403 153.220,289.537 153.000 C 289.670 152.780,289.841 152.154,289.916 151.610 C 289.990 151.065,290.187 150.435,290.352 150.210 C 290.517 149.984,290.689 148.734,290.733 147.432 C 290.778 146.130,290.967 144.870,291.154 144.632 C 291.748 143.874,291.152 131.914,290.478 131.083 C 290.263 130.817,289.877 129.520,289.620 128.200 C 289.363 126.880,289.044 125.530,288.911 125.200 C 288.778 124.870,288.654 124.440,288.635 124.244 C 288.616 124.048,288.240 123.688,287.800 123.444 C 287.360 123.200,286.910 122.909,286.800 122.798 C 286.418 122.412,283.739 121.600,282.848 121.600 C 282.356 121.600,282.046 121.449,282.160 121.265 C 282.274 121.081,281.671 120.903,280.821 120.869 C 279.971 120.836,278.780 120.621,278.176 120.391 C 276.620 119.799,264.103 119.924,263.854 120.534 C 263.718 120.866,263.654 120.856,263.632 120.500 C 263.614 120.225,263.409 120.000,263.176 120.000 C 262.943 120.000,262.864 120.180,263.000 120.400 C 263.136 120.620,262.956 120.800,262.600 120.800 C 262.244 120.800,262.064 120.620,262.200 120.400 C 262.336 120.180,262.357 120.000,262.247 120.000 C 262.137 120.000,261.936 120.180,261.800 120.400 M135.800 149.200 C 135.664 149.420,135.130 149.600,134.614 149.600 C 133.791 149.600,130.547 151.020,130.000 151.619 C 129.890 151.740,129.170 152.271,128.400 152.800 C 122.013 157.188,119.530 167.904,124.193 170.959 C 125.262 171.659,128.800 171.844,128.800 171.200 C 128.800 170.980,128.993 170.800,129.229 170.800 C 130.219 170.800,131.600 168.616,131.600 167.050 C 131.600 166.498,131.780 165.936,132.000 165.800 C 132.220 165.664,132.400 165.023,132.400 164.376 C 132.400 163.729,132.541 163.200,132.714 163.200 C 132.886 163.200,133.346 162.660,133.736 162.000 C 134.126 161.340,134.705 160.800,135.023 160.800 C 135.340 160.800,135.600 160.620,135.600 160.400 C 135.600 160.180,136.039 160.000,136.576 160.000 C 137.113 160.000,137.664 159.820,137.800 159.600 C 137.936 159.380,138.656 159.200,139.400 159.200 C 140.144 159.200,140.864 159.380,141.000 159.600 C 141.136 159.820,141.604 160.000,142.040 160.000 C 142.772 160.000,145.080 161.365,145.641 162.129 C 146.645 163.496,151.189 163.035,152.692 161.415 C 153.730 160.295,154.134 155.978,153.229 155.676 C 152.993 155.598,152.800 155.363,152.800 155.154 C 152.800 154.687,150.274 152.414,148.850 151.600 C 148.272 151.270,147.710 150.907,147.600 150.793 C 146.256 149.404,136.489 148.085,135.800 149.200 M165.000 164.800 C 164.864 165.020,164.313 165.200,163.776 165.200 C 163.239 165.200,162.800 165.380,162.800 165.600 C 162.800 165.820,162.532 166.000,162.205 166.000 C 160.915 166.000,156.783 169.932,155.389 172.485 C 151.384 179.821,159.016 185.564,163.615 178.674 C 165.272 176.192,165.803 175.600,166.371 175.600 C 166.607 175.600,166.800 175.420,166.800 175.200 C 166.800 174.624,171.442 174.705,172.501 175.300 C 173.661 175.951,174.716 177.104,175.015 178.048 C 175.146 178.461,175.422 178.800,175.627 178.800 C 175.832 178.800,176.000 179.051,176.000 179.357 C 176.000 181.611,182.017 181.374,183.789 179.050 C 184.773 177.760,185.314 173.600,184.498 173.600 C 184.331 173.600,183.947 173.039,183.644 172.354 C 182.912 170.700,179.330 167.099,177.700 166.379 C 176.985 166.063,176.400 165.669,176.400 165.502 C 176.400 165.336,175.961 165.200,175.424 165.200 C 174.887 165.200,174.336 165.020,174.200 164.800 C 174.060 164.573,172.070 164.400,169.600 164.400 C 167.130 164.400,165.140 164.573,165.000 164.800 M334.000 183.681 C 334.000 183.857,332.821 184.000,331.380 184.000 C 329.049 184.000,326.717 184.675,326.000 185.558 C 325.890 185.693,325.080 186.054,324.200 186.359 C 317.009 188.850,304.131 198.000,307.816 198.000 C 308.586 198.000,314.400 203.802,314.400 204.570 C 314.400 204.880,314.535 205.193,314.700 205.267 C 315.173 205.477,316.800 208.802,316.800 209.558 C 316.800 209.933,316.968 210.411,317.172 210.620 C 317.778 211.238,317.021 221.925,316.237 223.834 L 315.566 225.468 271.483 225.734 C 247.237 225.880,214.606 226.000,198.970 226.000 L 170.539 226.000 169.740 225.100 C 168.381 223.571,166.002 219.705,164.937 217.296 C 164.379 216.033,163.579 214.237,163.161 213.304 C 162.742 212.372,162.400 211.347,162.400 211.028 C 162.400 210.709,162.220 210.336,162.000 210.200 C 161.780 210.064,161.600 209.344,161.600 208.600 C 161.600 207.856,161.440 207.148,161.244 207.027 C 160.901 206.815,160.698 205.925,160.085 201.954 C 159.863 200.513,159.493 199.855,158.400 198.959 C 157.630 198.326,156.523 197.312,155.940 196.705 C 155.356 196.097,154.674 195.600,154.423 195.600 C 154.172 195.600,153.580 195.240,153.108 194.800 C 152.636 194.360,152.013 194.000,151.725 194.000 C 151.436 194.000,151.200 193.820,151.200 193.600 C 151.200 193.380,150.930 193.200,150.600 193.200 C 150.270 193.200,150.000 193.020,150.000 192.800 C 150.000 192.580,149.764 192.400,149.475 192.400 C 149.186 192.400,148.221 192.047,147.329 191.617 C 146.437 191.186,144.558 190.544,143.154 190.190 C 141.749 189.837,140.008 189.365,139.285 189.142 C 137.513 188.597,126.298 188.670,123.800 189.244 C 117.590 190.671,116.000 191.652,116.000 194.056 C 116.000 194.439,115.820 194.864,115.600 195.000 C 115.380 195.136,115.200 195.831,115.200 196.544 C 115.200 197.257,115.017 198.023,114.793 198.247 C 114.096 198.944,114.027 213.003,114.707 215.800 C 115.334 218.379,117.102 223.158,117.660 223.780 C 119.289 225.599,119.276 225.600,98.432 225.600 L 78.864 225.600 78.606 224.429 C 77.841 220.944,79.782 213.661,82.818 208.625 C 83.636 207.268,83.669 207.088,83.051 207.325 C 82.657 207.476,68.129 207.600,50.767 207.600 L 19.200 207.600 19.200 245.800 C 19.200 268.074,19.350 284.000,19.559 284.000 C 19.756 284.000,21.603 282.849,23.663 281.443 C 25.723 280.036,28.972 278.132,30.882 277.211 C 34.244 275.591,34.344 275.504,33.966 274.511 C 33.065 272.141,35.626 268.859,39.907 266.900 C 42.139 265.878,42.637 265.732,48.000 264.530 C 53.638 263.266,69.854 263.781,71.862 265.288 C 72.116 265.479,72.791 265.517,73.363 265.374 C 74.044 265.203,75.020 265.403,76.197 265.956 C 78.140 266.870,79.220 266.999,80.305 266.447 C 82.224 265.470,83.103 265.202,84.200 265.257 C 84.860 265.289,86.840 265.020,88.600 264.658 C 104.333 261.423,124.522 267.092,123.072 274.338 C 122.863 275.384,123.015 275.524,125.725 276.793 C 136.884 282.016,146.451 291.083,151.726 301.435 C 154.198 306.287,156.388 312.425,156.396 314.526 C 156.407 317.411,157.111 317.631,161.200 316.028 C 165.587 314.307,173.749 311.186,180.600 308.610 C 183.900 307.368,187.995 305.823,189.700 305.176 C 191.405 304.529,194.285 303.443,196.100 302.762 C 200.123 301.252,200.727 301.020,202.000 300.493 C 202.550 300.265,204.080 299.683,205.400 299.200 C 206.720 298.717,208.160 298.177,208.600 297.999 C 209.040 297.822,210.930 297.102,212.800 296.400 C 214.670 295.698,216.560 294.977,217.000 294.798 C 217.440 294.618,219.600 293.812,221.800 293.005 C 224.000 292.199,226.205 291.373,226.700 291.170 C 228.571 290.401,229.441 290.066,230.800 289.593 C 231.570 289.325,232.963 288.767,233.896 288.353 C 234.828 287.939,235.728 287.601,235.896 287.602 C 236.167 287.604,240.987 285.794,243.600 284.708 C 244.875 284.179,245.501 283.938,249.400 282.478 C 252.661 281.257,257.681 279.349,265.200 276.475 C 267.510 275.591,271.746 273.974,274.614 272.880 C 286.850 268.211,293.630 268.414,300.742 273.660 C 306.770 278.107,308.572 282.136,311.627 298.000 C 312.029 300.085,313.421 307.590,314.002 310.800 C 314.221 312.010,314.945 315.970,315.611 319.600 C 316.277 323.230,317.097 327.730,317.434 329.600 C 317.772 331.470,318.222 333.900,318.436 335.000 C 318.649 336.100,318.999 337.945,319.212 339.100 C 320.595 346.586,319.741 345.821,328.200 347.156 C 329.520 347.365,331.320 347.650,332.200 347.790 C 333.080 347.930,334.070 348.145,334.400 348.268 C 334.730 348.391,335.800 348.562,336.777 348.647 C 337.755 348.733,338.655 348.948,338.777 349.125 C 338.900 349.303,339.900 349.496,341.000 349.555 C 342.100 349.614,343.171 349.828,343.380 350.031 C 343.589 350.234,344.523 350.400,345.456 350.400 C 346.389 350.400,347.243 350.546,347.353 350.724 C 347.463 350.902,348.415 351.093,349.467 351.147 C 350.520 351.202,351.498 351.435,351.641 351.666 C 351.819 351.954,351.986 351.947,352.174 351.642 C 352.369 351.326,352.676 351.319,353.234 351.618 C 353.666 351.850,354.704 352.090,355.539 352.152 C 356.375 352.214,357.225 352.354,357.429 352.463 C 357.633 352.572,358.423 352.698,359.184 352.743 C 359.946 352.788,360.688 353.019,360.834 353.255 C 361.012 353.543,361.184 353.550,361.352 353.278 C 361.584 352.903,363.836 353.436,364.400 354.000 C 364.510 354.110,365.447 354.223,366.483 354.251 C 367.519 354.279,368.689 354.435,369.083 354.598 C 369.477 354.762,370.250 354.945,370.800 355.005 C 371.350 355.065,372.700 355.245,373.800 355.404 C 379.466 356.227,383.200 355.019,383.200 352.362 C 383.200 351.969,383.344 351.558,383.520 351.449 C 383.696 351.340,383.885 350.491,383.940 349.562 C 383.995 348.633,384.200 347.574,384.396 347.208 C 384.750 346.545,384.847 345.053,384.818 340.722 C 384.802 338.437,383.688 336.400,382.454 336.400 C 382.204 336.400,382.000 336.220,382.000 336.000 C 382.000 335.780,381.561 335.600,381.024 335.600 C 380.487 335.600,379.936 335.420,379.800 335.200 C 379.664 334.980,379.143 334.800,378.643 334.800 C 378.143 334.800,377.614 334.681,377.468 334.535 C 377.322 334.389,376.617 334.216,375.902 334.151 C 374.145 333.990,370.516 333.252,368.800 332.707 C 368.030 332.463,367.130 332.229,366.800 332.187 C 366.470 332.145,365.930 332.005,365.600 331.874 C 365.270 331.744,364.460 331.553,363.800 331.449 C 361.216 331.044,360.000 330.684,360.000 330.326 C 360.000 330.121,359.826 330.060,359.614 330.192 C 359.312 330.378,353.141 329.244,348.800 328.205 C 348.470 328.126,347.808 328.047,347.329 328.031 C 346.849 328.014,346.168 327.711,345.815 327.358 C 345.349 326.892,344.792 326.787,343.787 326.976 C 342.659 327.188,342.400 327.113,342.400 326.575 C 342.400 326.073,342.164 325.973,341.425 326.158 C 340.888 326.293,340.336 326.219,340.197 325.995 C 340.058 325.771,339.807 325.672,339.638 325.776 C 339.469 325.881,338.807 325.809,338.166 325.617 C 337.172 325.320,337.339 325.264,339.300 325.234 C 340.627 325.215,341.600 325.021,341.600 324.777 C 341.600 324.516,342.426 324.408,343.772 324.494 C 344.966 324.570,345.864 324.503,345.766 324.345 C 345.502 323.919,346.793 323.605,348.536 323.673 C 349.380 323.706,350.196 323.530,350.349 323.283 C 350.501 323.036,351.384 322.877,352.309 322.928 C 353.235 322.980,354.042 322.875,354.102 322.694 C 354.162 322.514,355.135 322.306,356.264 322.232 C 357.393 322.159,358.490 321.992,358.701 321.861 C 358.912 321.731,359.849 321.528,360.783 321.411 C 361.717 321.293,362.661 321.086,362.880 320.951 C 363.100 320.815,364.026 320.638,364.940 320.557 C 368.189 320.270,370.207 319.904,370.689 319.515 C 370.958 319.298,371.858 319.121,372.689 319.122 C 373.520 319.123,374.460 318.916,374.777 318.662 C 375.219 318.308,375.286 318.313,375.064 318.683 C 374.864 319.015,375.113 318.990,375.858 318.604 C 376.455 318.294,377.076 318.123,377.238 318.224 C 377.401 318.324,378.629 318.151,379.967 317.839 C 381.305 317.526,382.400 317.381,382.400 317.515 C 382.400 317.650,382.616 317.544,382.880 317.280 C 383.150 317.010,384.446 316.800,385.847 316.800 C 387.300 316.800,388.394 316.617,388.480 316.360 C 388.561 316.118,389.341 315.926,390.213 315.934 C 391.086 315.942,392.340 315.791,393.000 315.600 C 393.660 315.408,394.972 315.051,395.917 314.805 C 396.905 314.547,398.155 313.816,398.864 313.079 L 400.095 311.800 399.869 306.800 C 399.669 302.353,399.090 299.357,398.274 298.541 C 398.123 298.390,398.000 297.941,398.000 297.543 C 398.000 297.144,397.552 296.525,397.003 296.165 C 396.455 295.806,396.105 295.354,396.224 295.161 C 396.344 294.967,396.162 294.916,395.821 295.047 C 395.479 295.178,394.885 295.150,394.500 294.985 C 394.115 294.819,393.260 294.730,392.600 294.786 C 391.940 294.842,390.545 294.913,389.500 294.944 C 388.455 294.975,387.600 295.184,387.600 295.409 C 387.600 295.634,386.925 295.854,386.100 295.898 C 384.036 296.008,380.424 296.695,379.863 297.085 C 379.608 297.262,378.500 297.405,377.400 297.403 C 376.300 297.401,375.292 297.545,375.161 297.724 C 375.029 297.904,374.309 298.062,373.561 298.078 C 372.812 298.093,372.005 298.258,371.767 298.446 C 371.529 298.633,370.449 298.832,369.367 298.887 C 368.285 298.943,367.298 299.128,367.173 299.299 C 367.049 299.470,365.910 299.646,364.644 299.691 C 363.377 299.736,362.253 299.914,362.147 300.087 C 362.040 300.259,361.254 300.400,360.400 300.400 C 359.546 300.400,358.750 300.557,358.632 300.748 C 358.430 301.075,357.010 301.319,352.200 301.852 C 351.100 301.974,349.983 302.252,349.719 302.470 C 349.454 302.688,348.421 302.867,347.422 302.867 C 346.423 302.867,345.526 302.996,345.429 303.154 C 345.331 303.311,344.482 303.486,343.541 303.541 C 342.600 303.597,341.644 303.794,341.415 303.980 C 341.187 304.166,340.100 304.413,339.000 304.530 C 337.900 304.647,336.370 304.860,335.600 305.004 L 334.200 305.265 335.375 304.455 C 336.021 304.010,336.677 303.724,336.833 303.820 C 336.989 303.917,337.219 303.726,337.346 303.398 C 337.472 303.069,337.851 302.800,338.187 302.800 C 338.524 302.800,338.800 302.620,338.800 302.400 C 338.800 302.180,339.030 302.000,339.312 302.000 C 339.593 302.000,340.083 301.640,340.400 301.200 C 340.717 300.760,341.162 300.399,341.388 300.398 C 341.615 300.397,342.346 299.902,343.014 299.298 C 344.367 298.074,346.237 296.866,347.300 296.529 C 347.685 296.407,348.000 296.148,348.000 295.953 C 348.000 295.759,348.276 295.600,348.613 295.600 C 348.949 295.600,349.328 295.331,349.454 295.002 C 349.581 294.674,349.834 294.497,350.017 294.611 C 350.201 294.724,350.497 294.574,350.675 294.278 C 350.854 293.982,351.270 293.619,351.600 293.472 C 352.467 293.086,353.637 292.305,354.554 291.500 C 354.992 291.115,355.598 290.800,355.899 290.800 C 356.201 290.800,356.336 290.620,356.200 290.400 C 356.064 290.180,356.170 290.000,356.435 290.000 C 356.700 290.000,357.866 289.370,359.026 288.600 C 360.186 287.830,361.330 287.200,361.568 287.200 C 361.806 287.200,362.000 286.909,362.000 286.553 C 362.000 286.103,362.244 285.970,362.801 286.116 C 363.241 286.231,363.500 286.162,363.377 285.963 C 363.254 285.763,363.433 285.600,363.776 285.600 C 364.119 285.600,364.400 285.450,364.400 285.268 C 364.400 285.085,364.890 284.680,365.488 284.368 C 366.086 284.055,366.883 283.530,367.259 283.200 C 368.729 281.910,369.182 281.600,369.601 281.600 C 370.848 281.600,373.068 278.051,372.979 276.200 C 372.893 274.414,372.348 272.400,371.950 272.400 C 371.757 272.400,371.600 272.130,371.600 271.800 C 371.600 271.470,371.423 271.200,371.208 271.200 C 370.992 271.200,370.694 270.718,370.547 270.130 C 369.894 267.528,365.519 262.438,363.866 262.358 C 362.134 262.273,360.589 262.485,360.118 262.873 C 359.852 263.091,359.443 263.150,359.208 263.005 C 358.973 262.859,358.830 262.979,358.890 263.270 C 358.951 263.562,358.730 263.800,358.400 263.800 C 358.070 263.800,357.402 264.242,356.916 264.783 C 356.430 265.323,355.914 265.647,355.769 265.502 C 355.623 265.357,355.243 265.500,354.924 265.819 C 354.193 266.549,353.327 266.618,353.904 265.900 C 354.296 265.412,354.610 263.944,355.059 260.500 C 355.181 259.565,355.426 258.800,355.603 258.800 C 355.781 258.800,356.022 257.855,356.139 256.700 C 356.256 255.545,356.549 253.520,356.790 252.200 C 359.178 239.114,358.790 225.987,356.000 225.439 C 355.670 225.374,355.130 225.208,354.800 225.070 C 354.470 224.932,353.042 224.770,351.626 224.710 C 349.215 224.607,349.094 224.557,349.726 223.929 C 350.097 223.559,350.400 223.172,350.400 223.068 C 350.400 222.964,351.120 221.356,352.000 219.496 C 352.880 217.635,353.600 215.828,353.600 215.480 C 353.600 215.132,353.792 214.728,354.027 214.583 C 354.262 214.438,354.358 214.067,354.240 213.760 C 354.122 213.452,354.167 213.200,354.341 213.200 C 355.285 213.200,356.083 201.131,355.425 196.800 C 355.018 194.116,354.265 190.997,353.914 190.535 C 353.719 190.279,353.468 189.559,353.356 188.935 C 353.244 188.311,352.982 187.740,352.774 187.666 C 352.566 187.592,352.498 187.366,352.623 187.163 C 352.748 186.960,352.524 186.689,352.125 186.561 C 351.726 186.433,351.040 186.182,350.600 186.004 C 347.786 184.867,344.543 184.048,342.000 183.834 C 340.790 183.732,339.399 183.558,338.908 183.449 C 338.418 183.339,337.922 183.402,337.807 183.589 C 337.635 183.867,336.200 183.858,336.200 183.579 C 336.200 183.534,335.705 183.467,335.100 183.430 C 334.495 183.393,334.000 183.506,334.000 183.681 " stroke="none" fill="#d5e7ee" fill-rule="evenodd"></path></g></svg>