<svg width="512" height="512" xmlns="http://www.w3.org/2000/svg" preserveAspectRatio="xMidYMid meet" version="1.0">
 <metadata>Created by potrace 1.16, written by Peter Selinger 2001-2019</metadata>
 <defs>
  <filter id="svg_1_blur">
   <feGaussianBlur stdDeviation="0" in="SourceGraphic"/>
  </filter>
 </defs>
 <g>
  <title>Layer 1</title>
  <g filter="url(#svg_1_blur)" id="svg_1" fill="#000000" transform="translate(0.000000,512.000000) scale(0.100000,-0.100000)">
   <path fill="#ffffff" id="svg_2" d="m2320,4969c-564,-58 -1078,-304 -1472,-705c-134,-136 -199,-216 -300,-369c-190,-286 -323,-639 -374,-992c-21,-144 -24,-474 -6,-613c74,-561 304,-1034 691,-1421c145,-145 223,-210 366,-306c235,-158 483,-267 766,-337c198,-49 344,-66 569,-66c433,0 804,95 1176,301c119,66 149,103 148,184c-1,69 -31,117 -88,144c-61,30 -103,27 -177,-14c-600,-333 -1235,-379 -1842,-134c-680,274 -1169,903 -1273,1635c-22,158 -22,412 0,568c125,875 785,1576 1648,1750c620,126 1255,-39 1749,-452c570,-478 841,-1252 694,-1980c-30,-145 -87,-330 -120,-388c-110,-191 -378,-222 -531,-62c-55,57 -82,113 -94,195c-6,40 -10,426 -10,948c0,860 -1,881 -20,913c-30,48 -75,72 -140,72c-65,0 -110,-24 -140,-72c-18,-29 -20,-51 -20,-192l0,-159l-74,71c-159,150 -355,260 -563,314c-209,54 -468,51 -674,-7c-220,-62 -388,-161 -556,-327c-436,-430 -504,-1117 -162,-1625c304,-450 857,-662 1381,-529c235,60 408,157 584,328l91,89l44,-88c61,-124 170,-234 289,-291c113,-56 183,-72 305,-72c195,0 337,59 470,194c94,94 135,166 189,330c81,246 116,476 116,754c0,405 -67,707 -234,1057c-402,840 -1255,1373 -2185,1364c-75,-1 -174,-6 -221,-10zm505,-1494c310,-90 555,-334 651,-650c26,-84 28,-102 28,-265c0,-163 -2,-181 -28,-265c-174,-570 -800,-848 -1331,-590c-269,130 -460,378 -520,674c-24,114 -16,324 15,430c44,153 119,286 225,400c245,262 617,365 960,266z"/>
  </g>
 </g>
</svg>