<svg width="512" height="512" xmlns="http://www.w3.org/2000/svg" preserveAspectRatio="xMidYMid meet" version="1.0">
 <metadata>Created by potrace 1.16, written by Peter Selinger 2001-2019</metadata>

 <g>
  <title>Layer 1</title>
  <g id="svg_1" fill="#000000" transform="translate(0 512) scale(0.1 -0.1)">
   <path fill="#ffffff" id="svg_2" d="m2354.14673,5105c-394,-72 -731,-358 -877,-745c-60,-159 -65,-202 -72,-641l-6,-405l-84,-75c-221,-195 -413,-490 -509,-782c-185,-558 -105,-1155 220,-1637c185,-275 416,-478 713,-625c204,-101 354,-148 566,-179c136,-20 411,-21 541,-1c528,79 983,367 1279,808c369,550 417,1264 124,1862c-98,199 -269,425 -430,567l-70,62l-6,405c-7,439 -12,482 -72,641c-147,391 -485,676 -885,745c-105,19 -330,18 -432,0zm425,-489c229,-73 406,-261 465,-492c17,-66 20,-111 20,-302c0,-197 -2,-223 -15,-218c-167,64 -402,112 -598,122c-231,12 -529,-37 -754,-123c-10,-4 -13,43 -13,219c0,191 3,236 20,302c98,384 503,612 875,492zm10,-1381c449,-73 830,-356 1038,-771c38,-75 92,-237 113,-339c15,-70 19,-131 19,-270c-1,-159 -4,-193 -27,-292c-129,-545 -535,-944 -1086,-1065c-139,-31 -405,-31 -544,0c-549,121 -959,521 -1084,1059c-34,144 -42,357 -21,498c95,608 555,1078 1157,1180c104,18 327,18 435,0z"/>
   <path fill="#ffffff" id="svg_3" d="m2485.14673,2559c-125,-22 -263,-122 -323,-235c-110,-205 -57,-461 123,-598l48,-37l3,-298l3,-298l30,-49c17,-26 50,-62 74,-79c40,-28 49,-30 131,-30c82,0 91,2 131,30c24,17 57,53 74,79l30,49l5,299l5,299l47,37c240,191 236,558 -9,743c-100,76 -245,111 -372,88z"/>
  </g>
 </g>
</svg>