<svg id="svg" version="1.1" xmlns="http://www.w3.org/2000/svg" xmlns:xlink="http://www.w3.org/1999/xlink" width="400" height="400" viewBox="0, 0, 400,400"><g id="svgg"><path id="path0" d="M108.100 0.287 C 107.385 0.377,106.800 0.619,106.800 0.825 C 106.800 1.031,106.440 1.200,106.000 1.200 C 105.560 1.200,105.200 1.380,105.200 1.600 C 105.200 1.820,104.840 2.000,104.400 2.000 C 103.960 2.000,103.600 2.180,103.600 2.400 C 103.600 2.620,103.240 2.800,102.800 2.800 C 102.360 2.800,102.000 2.980,102.000 3.200 C 102.000 3.420,101.750 3.600,101.445 3.600 C 100.865 3.600,94.571 9.613,93.698 11.001 C 93.421 11.441,92.904 12.430,92.549 13.200 C 92.193 13.970,91.744 14.913,91.551 15.295 C 91.358 15.677,91.200 16.352,91.200 16.795 C 91.200 17.238,91.020 17.600,90.800 17.600 C 90.580 17.600,90.400 18.500,90.400 19.600 C 90.400 20.700,90.220 21.600,90.000 21.600 C 89.734 21.600,89.600 81.333,89.600 200.000 C 89.600 318.667,89.734 378.400,90.000 378.400 C 90.220 378.400,90.400 379.300,90.400 380.400 C 90.400 381.500,90.580 382.400,90.800 382.400 C 91.020 382.400,91.200 382.762,91.200 383.205 C 91.200 383.648,91.358 384.323,91.551 384.705 C 91.744 385.087,92.193 386.030,92.549 386.800 C 92.904 387.570,93.421 388.554,93.698 388.988 C 94.647 390.476,100.804 396.400,101.402 396.400 C 101.731 396.400,102.000 396.580,102.000 396.800 C 102.000 397.020,102.360 397.200,102.800 397.200 C 103.240 397.200,103.600 397.380,103.600 397.600 C 103.600 397.820,103.960 398.000,104.400 398.000 C 104.840 398.000,105.200 398.180,105.200 398.400 C 105.200 398.620,105.545 398.800,105.967 398.800 C 106.388 398.800,106.808 399.025,106.900 399.300 C 107.033 399.698,126.009 399.800,200.000 399.800 C 273.991 399.800,292.967 399.698,293.100 399.300 C 293.192 399.025,293.612 398.800,294.033 398.800 C 294.455 398.800,294.800 398.620,294.800 398.400 C 294.800 398.180,295.160 398.000,295.600 398.000 C 296.040 398.000,296.400 397.820,296.400 397.600 C 296.400 397.380,296.760 397.200,297.200 397.200 C 297.640 397.200,298.000 397.020,298.000 396.800 C 298.000 396.580,298.250 396.400,298.555 396.400 C 299.132 396.400,305.416 390.402,306.308 388.999 C 307.465 387.182,308.792 384.141,308.796 383.300 C 308.798 382.805,308.980 382.400,309.200 382.400 C 309.420 382.400,309.600 381.500,309.600 380.400 C 309.600 379.300,309.780 378.400,310.000 378.400 C 310.266 378.400,310.400 318.667,310.400 200.000 C 310.400 81.333,310.266 21.600,310.000 21.600 C 309.780 21.600,309.600 20.700,309.600 19.600 C 309.600 18.500,309.420 17.600,309.200 17.600 C 308.980 17.600,308.798 17.195,308.796 16.700 C 308.792 15.855,307.443 12.771,306.308 11.012 C 305.336 9.507,299.192 3.600,298.598 3.600 C 298.269 3.600,297.999 3.465,297.997 3.300 C 297.993 2.941,296.056 2.000,295.320 2.000 C 295.034 2.000,294.800 1.820,294.800 1.600 C 294.800 1.380,294.455 1.200,294.033 1.200 C 293.612 1.200,293.192 0.975,293.100 0.700 C 292.941 0.223,111.818 -0.182,108.100 0.287 M151.400 14.058 C 153.303 15.065,156.400 17.956,156.400 18.726 C 156.400 20.177,160.934 23.898,164.000 24.963 C 167.125 26.049,233.379 25.904,236.386 24.805 C 238.972 23.860,240.925 22.364,242.710 19.962 C 245.642 16.015,246.573 15.108,248.745 14.074 L 251.000 13.000 269.200 13.000 C 287.324 13.000,287.408 13.004,289.324 13.913 C 293.187 15.747,295.940 19.402,296.779 23.810 C 297.722 28.763,297.164 376.146,296.209 378.795 C 295.277 381.377,292.310 384.639,289.600 386.058 L 287.800 387.000 200.200 387.000 L 112.600 387.000 110.800 386.101 C 107.528 384.466,104.955 381.621,103.837 378.400 C 103.274 376.778,103.211 359.082,103.206 199.915 L 103.200 23.230 104.030 21.010 C 105.407 17.332,109.575 13.721,113.200 13.067 C 113.750 12.968,122.120 12.912,131.800 12.943 L 149.400 13.000 151.400 14.058 " stroke="none" fill="#544858" fill-rule="evenodd"></path><path id="path1" d="M122.100 13.500 C 126.885 13.563,134.715 13.563,139.500 13.500 C 144.285 13.436,140.370 13.384,130.800 13.384 C 121.230 13.384,117.315 13.436,122.100 13.500 M260.500 13.500 C 265.285 13.563,273.115 13.563,277.900 13.500 C 282.685 13.436,278.770 13.384,269.200 13.384 C 259.630 13.384,255.715 13.436,260.500 13.500 M148.974 13.957 C 149.124 14.201,149.552 14.401,149.924 14.401 C 150.752 14.403,153.166 15.840,154.047 16.855 C 154.403 17.265,154.836 17.600,155.009 17.600 C 155.614 17.600,153.788 15.910,152.200 15.000 C 150.208 13.858,148.589 13.335,148.974 13.957 M108.629 15.611 C 106.704 17.068,107.004 17.180,109.072 15.777 C 110.872 14.555,111.046 14.397,110.567 14.411 C 110.365 14.417,109.493 14.957,108.629 15.611 M246.900 15.574 C 246.009 16.219,245.161 16.939,245.016 17.174 C 244.526 17.967,245.201 17.606,246.463 16.400 C 247.154 15.740,247.951 15.200,248.236 15.200 C 248.520 15.200,248.864 15.020,249.000 14.800 C 249.463 14.051,248.524 14.397,246.900 15.574 M289.200 14.590 C 289.200 14.694,289.785 15.065,290.500 15.414 L 291.800 16.048 290.800 15.233 C 289.837 14.448,289.200 14.192,289.200 14.590 M105.414 19.035 C 105.041 19.604,104.805 20.138,104.889 20.222 C 104.973 20.307,105.358 19.841,105.744 19.188 C 106.606 17.728,106.348 17.609,105.414 19.035 M159.200 23.095 C 159.200 23.484,160.814 24.519,161.051 24.282 C 161.147 24.186,160.769 23.810,160.212 23.445 C 159.656 23.080,159.200 22.922,159.200 23.095 M239.594 23.618 C 239.047 24.039,238.780 24.380,239.000 24.378 C 239.529 24.373,240.991 23.258,240.765 23.031 C 240.668 22.934,240.141 23.198,239.594 23.618 M103.454 25.056 C 103.079 27.794,103.204 373.088,103.581 375.200 C 103.757 376.190,103.922 297.395,103.947 200.100 C 103.971 102.805,103.928 23.200,103.850 23.200 C 103.772 23.200,103.594 24.035,103.454 25.056 M296.200 200.239 C 296.200 297.593,296.317 376.832,296.460 376.324 C 296.808 375.089,296.820 24.791,296.472 23.915 C 296.322 23.538,296.200 102.884,296.200 200.239 M235.400 25.600 C 234.629 25.931,234.631 25.945,235.476 25.972 C 235.958 25.987,236.464 25.820,236.600 25.600 C 236.892 25.127,236.501 25.127,235.400 25.600 M216.167 58.727 C 211.781 59.455,207.800 64.115,206.852 69.633 C 206.248 73.151,206.226 120.262,206.827 123.967 C 207.595 128.699,209.902 131.987,213.882 134.020 L 215.800 135.000 238.267 135.110 L 260.734 135.219 262.917 134.254 C 265.861 132.952,268.160 130.784,269.419 128.124 L 270.462 125.919 270.420 98.860 C 270.367 65.035,270.483 66.143,266.570 62.236 C 265.059 60.726,264.388 60.292,261.900 59.208 C 261.085 58.853,218.131 58.401,216.167 58.727 M148.142 96.600 C 148.141 98.580,148.208 99.440,148.292 98.512 C 148.376 97.584,148.377 95.964,148.295 94.912 C 148.212 93.860,148.143 94.620,148.142 96.600 M138.533 161.975 C 135.261 162.777,132.102 165.509,130.365 169.040 L 129.400 171.000 129.400 200.000 L 129.400 229.000 130.512 231.264 C 131.733 233.751,133.834 235.869,136.482 237.283 L 138.200 238.200 160.651 238.313 C 186.282 238.441,185.779 238.499,189.352 235.026 C 191.796 232.651,194.173 227.251,193.357 225.930 C 193.245 225.748,184.264 225.600,173.400 225.600 C 160.663 225.600,153.559 225.458,153.400 225.200 C 153.264 224.980,152.644 224.800,152.022 224.800 C 149.589 224.800,145.494 221.778,144.297 219.100 C 144.026 218.495,143.669 218.000,143.502 218.000 C 143.336 218.000,143.200 217.460,143.200 216.800 C 143.200 216.140,143.021 215.600,142.803 215.600 C 142.545 215.600,142.370 206.171,142.303 188.700 L 142.200 161.800 141.000 161.732 C 140.340 161.695,139.230 161.804,138.533 161.975 M141.400 264.813 C 142.280 265.001,152.130 265.164,163.289 265.177 L 183.577 265.200 185.752 266.162 C 188.314 267.295,190.746 269.663,192.059 272.306 L 193.000 274.200 193.218 301.800 L 193.436 329.400 193.418 301.800 L 193.400 274.200 192.477 272.160 C 191.333 269.634,188.888 267.205,186.000 265.726 L 183.800 264.600 161.800 264.536 C 148.873 264.499,140.460 264.613,141.400 264.813 M216.400 264.766 C 212.886 265.503,209.628 268.127,207.667 271.800 L 206.600 273.800 206.600 303.200 L 206.600 332.600 207.555 334.524 C 208.765 336.960,211.316 339.522,213.808 340.804 L 215.744 341.800 238.772 341.800 C 264.653 341.800,263.115 341.969,266.624 338.735 C 268.765 336.761,269.820 335.119,270.602 332.543 C 271.433 329.803,271.482 277.690,270.656 274.600 C 269.494 270.250,267.267 267.519,263.254 265.523 L 261.400 264.600 239.600 264.536 C 227.610 264.502,217.170 264.605,216.400 264.766 M137.400 265.200 C 137.108 265.673,137.499 265.673,138.600 265.200 C 139.371 264.869,139.369 264.855,138.524 264.828 C 138.042 264.813,137.536 264.980,137.400 265.200 M132.523 268.592 C 131.355 269.797,130.411 271.012,130.424 271.292 C 130.436 271.571,130.661 271.440,130.924 271.000 C 131.186 270.560,132.254 269.345,133.299 268.300 C 134.343 267.255,135.073 266.400,134.921 266.400 C 134.769 266.400,133.690 267.386,132.523 268.592 M129.053 275.236 C 128.914 275.931,128.841 288.762,128.892 303.750 L 128.984 331.000 129.192 302.600 C 129.306 286.980,129.379 274.149,129.353 274.086 C 129.327 274.023,129.192 274.541,129.053 275.236 M157.721 293.498 C 159.877 293.571,163.297 293.570,165.321 293.498 C 167.344 293.425,165.580 293.366,161.400 293.367 C 157.220 293.367,155.564 293.426,157.721 293.498 M150.317 295.120 C 148.288 297.144,148.000 298.160,148.000 303.300 C 148.000 312.157,149.872 313.584,161.504 313.594 C 170.815 313.602,174.477 311.840,174.356 307.409 L 174.312 305.800 173.981 307.476 C 173.048 312.200,172.062 312.600,161.369 312.600 L 152.538 312.600 151.064 311.476 C 146.818 308.237,147.308 297.063,151.808 294.515 C 152.912 293.889,153.155 293.617,152.600 293.626 C 152.160 293.633,151.132 294.305,150.317 295.120 M170.220 294.163 C 171.636 294.780,173.518 296.874,173.785 298.131 C 173.886 298.609,174.045 299.360,174.138 299.800 C 174.236 300.261,174.327 300.039,174.354 299.274 C 174.432 297.019,171.696 293.582,169.850 293.616 C 169.158 293.628,169.227 293.730,170.220 294.163 M192.988 331.672 C 192.721 333.253,192.033 334.757,190.523 337.062 C 190.158 337.618,188.949 338.686,187.835 339.436 C 186.722 340.186,185.956 340.800,186.133 340.800 C 186.779 340.800,189.967 338.370,190.727 337.299 C 192.596 334.665,194.349 330.000,193.470 330.000 C 193.360 330.000,193.143 330.752,192.988 331.672 M130.400 335.079 C 130.400 336.752,136.682 341.664,138.696 341.566 C 139.156 341.543,139.054 341.426,138.400 341.226 C 135.514 340.345,132.872 338.324,131.060 335.611 C 130.697 335.067,130.400 334.828,130.400 335.079 M150.528 341.900 C 156.649 341.962,166.549 341.962,172.528 341.900 C 178.508 341.837,173.500 341.787,161.400 341.787 C 149.300 341.787,144.408 341.838,150.528 341.900 M164.828 362.301 C 160.407 364.555,160.505 370.839,165.000 373.291 L 167.000 374.381 200.000 374.379 L 233.000 374.377 234.800 373.459 C 239.512 371.056,239.740 364.585,235.192 362.301 C 233.046 361.222,166.943 361.222,164.828 362.301 M104.800 379.739 C 104.800 380.215,106.587 382.790,106.920 382.795 C 107.097 382.798,106.744 382.125,106.137 381.300 C 105.529 380.475,104.980 379.725,104.916 379.633 C 104.852 379.542,104.800 379.589,104.800 379.739 M108.046 383.940 C 109.012 384.690,111.177 385.903,110.790 385.477 C 110.422 385.074,107.575 383.200,107.328 383.200 C 107.198 383.200,107.521 383.533,108.046 383.940 M290.000 384.776 C 289.230 385.192,288.259 385.642,287.843 385.776 C 287.426 385.909,287.182 386.115,287.300 386.233 C 287.558 386.491,290.073 385.475,291.297 384.617 C 292.522 383.759,291.691 383.861,290.000 384.776 M156.932 386.700 C 180.875 386.757,219.935 386.757,243.732 386.700 C 267.529 386.643,247.940 386.596,200.200 386.596 C 152.460 386.596,132.989 386.643,156.932 386.700 " stroke="none" fill="#e5c182" fill-rule="evenodd"></path><path id="path2" d="M112.400 13.979 C 112.070 14.162,111.116 14.647,110.279 15.056 C 108.051 16.146,106.252 18.006,105.051 20.460 L 103.991 22.626 103.998 200.013 L 104.004 377.400 104.996 379.427 C 106.174 381.836,108.166 383.919,110.272 384.944 C 111.112 385.354,112.113 385.849,112.495 386.044 C 113.404 386.510,286.581 386.516,287.505 386.050 C 291.020 384.281,291.969 383.671,293.085 382.465 C 293.792 381.701,294.782 380.249,295.285 379.238 L 296.200 377.400 296.200 200.000 L 296.200 22.600 295.285 20.762 C 294.782 19.751,293.792 18.299,293.085 17.535 C 291.969 16.329,291.020 15.719,287.505 13.950 C 286.575 13.481,251.785 13.497,250.895 13.966 C 250.513 14.168,249.545 14.617,248.745 14.964 C 247.137 15.661,244.800 17.674,244.800 18.360 C 244.800 18.602,244.620 18.800,244.400 18.800 C 244.180 18.800,244.000 19.070,244.000 19.400 C 244.000 19.730,243.820 20.000,243.600 20.000 C 243.380 20.000,243.200 20.198,243.200 20.440 C 243.200 21.050,239.594 24.400,238.936 24.400 C 238.641 24.400,238.400 24.580,238.400 24.800 C 238.400 25.020,238.051 25.200,237.624 25.200 C 237.197 25.200,236.736 25.380,236.600 25.600 C 236.279 26.120,164.680 26.153,163.695 25.634 C 163.313 25.432,162.337 24.979,161.526 24.627 C 159.830 23.891,157.262 21.507,156.432 19.900 C 156.120 19.295,155.715 18.800,155.532 18.800 C 155.350 18.800,155.200 18.599,155.200 18.354 C 155.200 17.667,152.458 15.314,151.054 14.796 C 150.364 14.542,149.487 14.168,149.105 13.967 C 148.237 13.508,113.228 13.521,112.400 13.979 M169.800 58.498 C 183.979 58.598,184.229 58.614,186.076 59.533 C 188.156 60.567,191.370 63.770,192.053 65.489 C 193.072 68.053,193.167 70.669,193.217 97.472 L 193.270 125.545 192.170 127.996 C 190.944 130.727,188.646 133.020,185.791 134.362 C 184.047 135.182,183.525 135.200,161.304 135.191 L 138.600 135.183 136.509 134.091 C 133.770 132.662,131.529 130.486,130.351 128.114 L 129.400 126.200 129.290 97.615 C 129.164 65.168,129.061 66.376,132.281 62.795 C 135.951 58.713,137.882 58.162,148.056 58.298 C 152.095 58.352,161.880 58.442,169.800 58.498 M261.900 59.208 C 264.388 60.292,265.059 60.726,266.570 62.236 C 270.483 66.143,270.367 65.035,270.420 98.860 L 270.462 125.919 269.419 128.124 C 268.160 130.784,265.861 132.952,262.917 134.254 L 260.734 135.219 238.267 135.110 L 215.800 135.000 213.882 134.020 C 209.902 131.987,207.595 128.699,206.827 123.967 C 206.226 120.262,206.248 73.151,206.852 69.633 C 207.800 64.115,211.781 59.455,216.167 58.727 C 218.131 58.401,261.085 58.853,261.900 59.208 M152.003 87.684 C 148.862 89.285,148.400 90.438,148.400 96.679 C 148.400 102.729,148.682 103.659,151.068 105.479 L 152.537 106.600 160.768 106.600 C 169.403 106.600,170.538 106.468,171.872 105.311 C 175.873 101.838,175.518 90.879,171.309 87.993 C 169.106 86.482,154.813 86.253,152.003 87.684 M142.303 188.700 C 142.370 206.171,142.545 215.600,142.803 215.600 C 143.021 215.600,143.200 216.140,143.200 216.800 C 143.200 217.460,143.336 218.000,143.502 218.000 C 143.669 218.000,144.026 218.495,144.297 219.100 C 145.494 221.778,149.589 224.800,152.022 224.800 C 152.644 224.800,153.264 224.980,153.400 225.200 C 153.559 225.458,160.663 225.600,173.400 225.600 C 184.264 225.600,193.245 225.748,193.357 225.930 C 194.173 227.251,191.796 232.651,189.352 235.026 C 185.779 238.499,186.282 238.441,160.651 238.313 L 138.200 238.200 136.482 237.283 C 133.834 235.869,131.733 233.751,130.512 231.264 L 129.400 229.000 129.400 200.000 L 129.400 171.000 130.365 169.040 C 132.587 164.526,136.984 161.504,141.000 161.732 L 142.200 161.800 142.303 188.700 M260.980 162.423 C 261.189 162.631,261.774 162.800,262.280 162.800 C 262.786 162.800,263.200 162.980,263.200 163.200 C 263.200 163.420,263.470 163.600,263.800 163.600 C 264.130 163.600,264.400 163.780,264.400 164.000 C 264.400 164.220,264.615 164.400,264.877 164.400 C 265.523 164.400,268.071 167.185,268.747 168.631 C 269.047 169.274,269.452 170.113,269.647 170.495 C 269.841 170.877,270.000 183.432,270.000 198.395 C 270.000 218.335,270.121 225.600,270.452 225.600 C 271.166 225.600,270.497 229.437,269.414 231.555 C 268.263 233.802,266.011 236.014,263.600 237.266 L 261.800 238.200 239.341 238.310 C 213.722 238.435,214.200 238.489,210.725 235.058 C 206.424 230.812,206.400 230.618,206.400 200.000 C 206.400 173.146,206.469 171.845,208.061 168.571 C 209.483 165.645,212.357 163.083,215.137 162.261 C 217.081 161.686,260.391 161.840,260.980 162.423 M231.449 181.141 C 227.042 184.291,227.424 191.057,232.141 193.410 C 233.558 194.117,248.000 194.290,248.000 193.600 C 248.000 193.380,248.291 193.200,248.646 193.200 C 249.911 193.200,251.996 190.387,252.041 188.622 C 252.225 181.239,250.490 179.992,240.062 180.016 L 233.000 180.033 231.449 181.141 M232.103 206.575 C 226.934 209.433,227.055 216.453,232.324 219.500 C 233.410 220.127,248.000 220.220,248.000 219.600 C 248.000 219.380,248.225 219.200,248.500 219.200 C 251.853 219.196,253.406 211.291,250.646 208.278 C 249.901 207.465,249.001 206.800,248.646 206.800 C 248.291 206.800,248.000 206.620,248.000 206.400 C 248.000 205.787,233.233 205.949,232.103 206.575 M186.000 265.726 C 188.888 267.205,191.333 269.634,192.477 272.160 L 193.400 274.200 193.400 303.428 L 193.400 332.656 192.400 334.627 C 191.125 337.141,188.740 339.525,186.227 340.800 L 184.255 341.800 161.228 341.800 L 138.200 341.800 136.324 340.867 C 132.991 339.210,130.268 335.730,129.228 331.800 C 128.650 329.615,128.644 276.814,129.222 274.600 C 130.244 270.686,132.476 267.839,136.060 265.878 C 138.661 264.455,137.867 264.496,162.000 264.551 L 183.800 264.600 186.000 265.726 M263.254 265.523 C 267.267 267.519,269.494 270.250,270.656 274.600 C 271.482 277.690,271.433 329.803,270.602 332.543 C 269.820 335.119,268.765 336.761,266.624 338.735 C 263.115 341.969,264.653 341.800,238.772 341.800 L 215.744 341.800 213.808 340.804 C 211.316 339.522,208.765 336.960,207.555 334.524 L 206.600 332.600 206.600 303.200 L 206.600 273.800 207.667 271.800 C 209.628 268.127,212.886 265.503,216.400 264.766 C 217.170 264.605,227.610 264.502,239.600 264.536 L 261.400 264.600 263.254 265.523 M151.808 294.515 C 147.308 297.063,146.818 308.237,151.064 311.476 L 152.538 312.600 161.369 312.600 C 173.414 312.600,174.183 312.036,174.180 303.200 C 174.179 297.442,173.159 295.271,169.874 294.027 C 167.484 293.121,153.607 293.496,151.808 294.515 M235.192 362.301 C 239.740 364.585,239.512 371.056,234.800 373.459 L 233.000 374.377 200.000 374.379 L 167.000 374.381 165.000 373.291 C 160.505 370.839,160.407 364.555,164.828 362.301 C 166.943 361.222,233.046 361.222,235.192 362.301 " stroke="none" fill="#f6f6f6" fill-rule="evenodd"></path><path id="path3" d="M122.300 13.100 C 126.975 13.164,134.625 13.164,139.300 13.100 C 143.975 13.036,140.150 12.983,130.800 12.983 C 121.450 12.983,117.625 13.036,122.300 13.100 M269.800 13.178 C 287.263 13.398,287.415 13.407,289.294 14.341 C 292.718 16.043,295.137 19.074,296.365 23.200 L 296.782 24.600 296.557 23.019 C 296.087 19.699,293.085 15.814,289.538 13.934 C 287.801 13.014,287.786 13.013,270.000 12.985 L 252.200 12.956 269.800 13.178 M110.274 14.059 C 107.696 15.363,103.370 20.304,104.136 21.070 C 104.244 21.177,104.617 20.665,104.965 19.932 C 106.224 17.286,108.989 14.899,112.000 13.860 C 113.239 13.432,113.488 13.246,112.800 13.263 C 112.250 13.276,111.113 13.634,110.274 14.059 M149.808 13.921 C 152.745 14.936,154.137 16.088,156.428 19.403 C 158.577 22.511,160.788 24.267,163.967 25.388 C 166.580 26.310,233.420 26.310,236.033 25.388 C 239.269 24.247,241.550 22.438,243.616 19.376 C 245.815 16.118,247.069 15.076,250.107 13.982 C 251.258 13.568,251.829 13.222,251.375 13.214 C 250.921 13.206,249.633 13.642,248.511 14.183 C 246.556 15.127,245.582 16.097,242.710 19.962 C 240.925 22.364,238.972 23.860,236.386 24.805 C 233.379 25.904,167.125 26.049,164.000 24.963 C 160.934 23.898,156.400 20.177,156.400 18.726 C 156.400 17.244,150.740 13.184,148.713 13.213 C 148.160 13.221,148.592 13.500,149.808 13.921 M103.476 22.410 C 103.330 22.955,103.228 23.940,103.249 24.600 C 103.280 25.557,103.359 25.436,103.642 24.000 C 104.029 22.033,103.902 20.817,103.476 22.410 M296.998 200.000 C 296.998 296.470,297.044 335.935,297.100 287.700 C 297.156 239.465,297.156 160.535,297.100 112.300 C 297.044 64.065,296.998 103.530,296.998 200.000 M138.818 58.629 C 136.334 59.191,134.429 60.405,132.281 62.795 C 129.061 66.376,129.164 65.168,129.290 97.615 L 129.400 126.200 130.351 128.114 C 131.529 130.486,133.770 132.662,136.509 134.091 L 138.600 135.183 161.304 135.191 C 183.525 135.200,184.047 135.182,185.791 134.362 C 188.643 133.022,190.944 130.726,192.166 128.005 L 193.261 125.563 193.224 98.081 C 193.187 71.329,193.067 67.012,192.347 66.567 C 192.156 66.449,192.000 66.023,192.000 65.620 C 192.000 64.473,188.601 60.979,186.291 59.751 L 184.200 58.639 169.000 58.517 C 160.640 58.450,150.855 58.351,147.255 58.298 C 143.646 58.244,139.861 58.392,138.818 58.629 M170.339 87.422 C 171.862 88.032,172.899 88.993,173.900 90.724 C 174.230 91.295,174.400 93.359,174.400 96.800 C 174.400 102.454,174.253 102.978,172.082 105.070 C 170.425 106.667,168.309 106.941,159.143 106.742 C 149.327 106.529,148.200 105.499,148.200 96.737 L 148.200 91.275 149.410 89.779 C 151.666 86.991,152.415 86.800,161.086 86.800 C 167.118 86.800,169.120 86.935,170.339 87.422 M215.137 162.261 C 212.357 163.083,209.483 165.645,208.061 168.571 C 206.469 171.845,206.400 173.146,206.400 200.000 C 206.400 230.618,206.424 230.812,210.725 235.058 C 214.200 238.489,213.722 238.435,239.341 238.310 L 261.800 238.200 263.600 237.266 C 266.011 236.014,268.263 233.802,269.414 231.555 C 270.497 229.437,271.166 225.600,270.452 225.600 C 270.121 225.600,270.000 218.335,270.000 198.395 C 270.000 183.432,269.841 170.877,269.647 170.495 C 269.452 170.113,269.047 169.274,268.747 168.631 C 268.071 167.185,265.523 164.400,264.877 164.400 C 264.615 164.400,264.400 164.220,264.400 164.000 C 264.400 163.780,264.130 163.600,263.800 163.600 C 263.470 163.600,263.200 163.420,263.200 163.200 C 263.200 162.980,262.786 162.800,262.280 162.800 C 261.774 162.800,261.189 162.631,260.980 162.423 C 260.391 161.840,217.081 161.686,215.137 162.261 M248.662 180.821 C 251.355 182.259,252.153 184.102,252.041 188.622 C 251.996 190.387,249.911 193.200,248.646 193.200 C 248.291 193.200,248.000 193.380,248.000 193.600 C 248.000 194.290,233.558 194.117,232.141 193.410 C 227.424 191.057,227.042 184.291,231.449 181.141 L 233.000 180.033 240.062 180.016 C 246.437 180.002,247.274 180.080,248.662 180.821 M248.000 206.400 C 248.000 206.620,248.291 206.800,248.646 206.800 C 252.344 206.800,253.347 215.299,250.003 218.300 C 249.451 218.794,248.775 219.199,248.500 219.200 C 248.225 219.200,248.000 219.380,248.000 219.600 C 248.000 220.220,233.410 220.127,232.324 219.500 C 227.055 216.453,226.934 209.433,232.103 206.575 C 233.233 205.949,248.000 205.787,248.000 206.400 M103.206 375.433 C 103.209 376.295,103.388 377.270,103.603 377.600 C 103.870 378.010,103.914 377.565,103.741 376.200 C 103.425 373.705,103.198 373.381,103.206 375.433 M296.226 377.090 C 295.923 378.837,293.131 383.600,292.409 383.600 C 292.184 383.600,292.007 383.825,292.016 384.100 C 292.025 384.375,292.805 383.760,293.751 382.733 C 295.432 380.908,297.094 377.053,296.694 375.906 C 296.597 375.628,296.387 376.160,296.226 377.090 M104.000 379.084 C 104.000 379.504,105.957 382.400,106.242 382.400 C 106.359 382.400,106.082 381.877,105.627 381.238 C 105.172 380.599,104.800 379.890,104.800 379.662 C 104.800 379.434,104.620 379.136,104.400 379.000 C 104.180 378.864,104.000 378.902,104.000 379.084 M107.605 383.838 C 107.616 384.678,112.353 387.043,113.280 386.672 C 113.609 386.540,113.537 386.452,113.084 386.432 C 112.226 386.394,109.280 384.953,108.300 384.091 C 107.915 383.753,107.602 383.639,107.605 383.838 M290.947 384.813 C 290.719 385.041,289.648 385.572,288.567 385.995 C 287.485 386.417,286.910 386.771,287.289 386.781 C 288.149 386.805,291.600 385.155,291.600 384.720 C 291.600 384.294,291.443 384.317,290.947 384.813 M157.132 387.100 C 180.965 387.157,219.845 387.157,243.532 387.100 C 267.219 387.043,247.720 386.996,200.200 386.996 C 152.680 386.996,133.299 387.043,157.132 387.100 " stroke="none" fill="#94cea3" fill-rule="evenodd"></path><path id="path4" d="M137.193 265.712 C 134.555 266.697,131.990 269.082,130.585 271.859 L 129.400 274.200 129.400 303.200 C 129.400 331.978,129.407 332.214,130.255 334.049 C 131.427 336.584,133.754 339.054,136.175 340.331 L 138.200 341.400 161.416 341.400 L 184.631 341.400 186.973 340.000 C 190.204 338.068,192.258 335.165,193.060 331.400 C 193.247 330.520,193.310 317.290,193.200 302.000 L 193.000 274.200 192.059 272.306 C 190.755 269.683,188.319 267.297,185.814 266.189 L 183.701 265.255 161.401 265.127 C 140.812 265.010,138.954 265.055,137.193 265.712 M169.308 293.458 C 170.860 293.715,173.113 295.471,173.946 297.074 C 174.221 297.602,174.400 300.133,174.400 303.483 L 174.400 309.018 173.212 310.459 C 170.980 313.167,169.360 313.601,161.504 313.594 C 149.858 313.584,148.000 312.162,148.000 303.261 C 148.000 297.225,149.671 293.996,153.055 293.491 C 154.916 293.213,167.670 293.187,169.308 293.458 " stroke="none" fill="#fc8484" fill-rule="evenodd"></path></g></svg>